<svg xmlns="http://www.w3.org/2000/svg" width="113.291" height="107.198" viewBox="0 0 113.291 107.198">
  <g id="Group_43" data-name="Group 43" transform="translate(-450.608 -328.272)" opacity="0.3">
    <g id="Group_35" data-name="Group 35">
      <path id="Path_206" data-name="Path 206" d="M486.435,433.05a2.421,2.421,0,1,1-2.421-2.421A2.42,2.42,0,0,1,486.435,433.05Z" fill="#ff723a"/>
      <path id="Path_207" data-name="Path 207" d="M501.928,433.05a2.421,2.421,0,1,1-2.421-2.421A2.42,2.42,0,0,1,501.928,433.05Z" fill="#ff723a"/>
      <path id="Path_208" data-name="Path 208" d="M517.421,433.05A2.421,2.421,0,1,1,515,430.629,2.42,2.42,0,0,1,517.421,433.05Z" fill="#ff723a"/>
      <path id="Path_209" data-name="Path 209" d="M532.914,433.05a2.421,2.421,0,1,1-2.421-2.421A2.42,2.42,0,0,1,532.914,433.05Z" fill="#ff723a"/>
    </g>
    <g id="Group_36" data-name="Group 36">
      <path id="Path_210" data-name="Path 210" d="M470.942,418.427a2.42,2.42,0,1,1-2.421-2.421A2.421,2.421,0,0,1,470.942,418.427Z" fill="#ff723a"/>
      <path id="Path_211" data-name="Path 211" d="M486.435,418.427a2.421,2.421,0,1,1-2.421-2.421A2.421,2.421,0,0,1,486.435,418.427Z" fill="#ff723a"/>
      <path id="Path_212" data-name="Path 212" d="M501.928,418.427a2.421,2.421,0,1,1-2.421-2.421A2.421,2.421,0,0,1,501.928,418.427Z" fill="#ff723a"/>
      <path id="Path_213" data-name="Path 213" d="M517.421,418.427A2.421,2.421,0,1,1,515,416.006,2.421,2.421,0,0,1,517.421,418.427Z" fill="#ff723a"/>
      <path id="Path_214" data-name="Path 214" d="M532.914,418.427a2.421,2.421,0,1,1-2.421-2.421A2.421,2.421,0,0,1,532.914,418.427Z" fill="#ff723a"/>
      <path id="Path_215" data-name="Path 215" d="M548.406,418.427a2.421,2.421,0,1,1-2.42-2.421A2.42,2.42,0,0,1,548.406,418.427Z" fill="#ff723a"/>
    </g>
    <g id="Group_37" data-name="Group 37">
      <path id="Path_216" data-name="Path 216" d="M470.942,403.8a2.42,2.42,0,1,1-2.421-2.421A2.421,2.421,0,0,1,470.942,403.8Z" fill="#ff723a"/>
      <path id="Path_217" data-name="Path 217" d="M486.435,403.8a2.421,2.421,0,1,1-2.421-2.421A2.421,2.421,0,0,1,486.435,403.8Z" fill="#ff723a"/>
      <path id="Path_218" data-name="Path 218" d="M501.928,403.8a2.421,2.421,0,1,1-2.421-2.421A2.421,2.421,0,0,1,501.928,403.8Z" fill="#ff723a"/>
      <path id="Path_219" data-name="Path 219" d="M517.421,403.8A2.421,2.421,0,1,1,515,401.384,2.421,2.421,0,0,1,517.421,403.8Z" fill="#ff723a"/>
      <path id="Path_220" data-name="Path 220" d="M532.914,403.8a2.421,2.421,0,1,1-2.421-2.421A2.421,2.421,0,0,1,532.914,403.8Z" fill="#ff723a"/>
      <path id="Path_221" data-name="Path 221" d="M548.406,403.8a2.421,2.421,0,1,1-2.42-2.421A2.42,2.42,0,0,1,548.406,403.8Z" fill="#ff723a"/>
    </g>
    <g id="Group_38" data-name="Group 38">
      <path id="Path_222" data-name="Path 222" d="M455.449,389.182a2.421,2.421,0,1,1-2.42-2.42A2.421,2.421,0,0,1,455.449,389.182Z" fill="#ff723a"/>
      <path id="Path_223" data-name="Path 223" d="M470.942,389.182a2.42,2.42,0,1,1-2.421-2.42A2.421,2.421,0,0,1,470.942,389.182Z" fill="#ff723a"/>
      <path id="Path_224" data-name="Path 224" d="M486.435,389.182a2.421,2.421,0,1,1-2.421-2.42A2.421,2.421,0,0,1,486.435,389.182Z" fill="#ff723a"/>
      <path id="Path_225" data-name="Path 225" d="M501.928,389.182a2.421,2.421,0,1,1-2.421-2.42A2.421,2.421,0,0,1,501.928,389.182Z" fill="#ff723a"/>
      <path id="Path_226" data-name="Path 226" d="M517.421,389.182a2.421,2.421,0,1,1-2.421-2.42A2.421,2.421,0,0,1,517.421,389.182Z" fill="#ff723a"/>
      <path id="Path_227" data-name="Path 227" d="M532.914,389.182a2.421,2.421,0,1,1-2.421-2.42A2.421,2.421,0,0,1,532.914,389.182Z" fill="#ff723a"/>
      <path id="Path_228" data-name="Path 228" d="M548.406,389.182a2.421,2.421,0,1,1-2.42-2.42A2.42,2.42,0,0,1,548.406,389.182Z" fill="#ff723a"/>
      <circle id="Ellipse_55" data-name="Ellipse 55" cx="2.421" cy="2.421" r="2.421" transform="translate(559.058 386.762)" fill="#ff723a"/>
    </g>
    <g id="Group_39" data-name="Group 39">
      <path id="Path_229" data-name="Path 229" d="M455.449,374.56a2.421,2.421,0,1,1-2.42-2.421A2.421,2.421,0,0,1,455.449,374.56Z" fill="#ff723a"/>
      <path id="Path_230" data-name="Path 230" d="M470.942,374.56a2.42,2.42,0,1,1-2.421-2.421A2.421,2.421,0,0,1,470.942,374.56Z" fill="#ff723a"/>
      <path id="Path_231" data-name="Path 231" d="M486.435,374.56a2.421,2.421,0,1,1-2.421-2.421A2.421,2.421,0,0,1,486.435,374.56Z" fill="#ff723a"/>
      <path id="Path_232" data-name="Path 232" d="M501.928,374.56a2.421,2.421,0,1,1-2.421-2.421A2.421,2.421,0,0,1,501.928,374.56Z" fill="#ff723a"/>
      <path id="Path_233" data-name="Path 233" d="M517.421,374.56A2.421,2.421,0,1,1,515,372.139,2.421,2.421,0,0,1,517.421,374.56Z" fill="#ff723a"/>
      <path id="Path_234" data-name="Path 234" d="M532.914,374.56a2.421,2.421,0,1,1-2.421-2.421A2.421,2.421,0,0,1,532.914,374.56Z" fill="#ff723a"/>
      <path id="Path_235" data-name="Path 235" d="M548.406,374.56a2.421,2.421,0,1,1-2.42-2.421A2.42,2.42,0,0,1,548.406,374.56Z" fill="#ff723a"/>
      <path id="Path_236" data-name="Path 236" d="M563.9,374.56a2.421,2.421,0,1,1-2.42-2.421A2.42,2.42,0,0,1,563.9,374.56Z" fill="#ff723a"/>
    </g>
    <g id="Group_40" data-name="Group 40">
      <path id="Path_237" data-name="Path 237" d="M470.942,359.938a2.42,2.42,0,1,1-2.421-2.421A2.42,2.42,0,0,1,470.942,359.938Z" fill="#ff723a"/>
      <path id="Path_238" data-name="Path 238" d="M486.435,359.938a2.421,2.421,0,1,1-2.421-2.421A2.42,2.42,0,0,1,486.435,359.938Z" fill="#ff723a"/>
      <path id="Path_239" data-name="Path 239" d="M501.928,359.938a2.421,2.421,0,1,1-2.421-2.421A2.42,2.42,0,0,1,501.928,359.938Z" fill="#ff723a"/>
      <path id="Path_240" data-name="Path 240" d="M517.421,359.938A2.421,2.421,0,1,1,515,357.517,2.42,2.42,0,0,1,517.421,359.938Z" fill="#ff723a"/>
      <path id="Path_241" data-name="Path 241" d="M532.914,359.938a2.421,2.421,0,1,1-2.421-2.421A2.42,2.42,0,0,1,532.914,359.938Z" fill="#ff723a"/>
      <path id="Path_242" data-name="Path 242" d="M548.406,359.938a2.421,2.421,0,1,1-2.42-2.421A2.419,2.419,0,0,1,548.406,359.938Z" fill="#ff723a"/>
    </g>
    <g id="Group_41" data-name="Group 41">
      <path id="Path_243" data-name="Path 243" d="M470.942,345.315a2.42,2.42,0,1,1-2.421-2.42A2.421,2.421,0,0,1,470.942,345.315Z" fill="#ff723a"/>
      <path id="Path_244" data-name="Path 244" d="M486.435,345.315a2.421,2.421,0,1,1-2.421-2.42A2.421,2.421,0,0,1,486.435,345.315Z" fill="#ff723a"/>
      <path id="Path_245" data-name="Path 245" d="M501.928,345.315a2.421,2.421,0,1,1-2.421-2.42A2.421,2.421,0,0,1,501.928,345.315Z" fill="#ff723a"/>
      <path id="Path_246" data-name="Path 246" d="M517.421,345.315a2.421,2.421,0,1,1-2.421-2.42A2.421,2.421,0,0,1,517.421,345.315Z" fill="#ff723a"/>
      <path id="Path_247" data-name="Path 247" d="M532.914,345.315a2.421,2.421,0,1,1-2.421-2.42A2.421,2.421,0,0,1,532.914,345.315Z" fill="#ff723a"/>
      <path id="Path_248" data-name="Path 248" d="M548.406,345.315a2.421,2.421,0,1,1-2.42-2.42A2.42,2.42,0,0,1,548.406,345.315Z" fill="#ff723a"/>
    </g>
    <g id="Group_42" data-name="Group 42">
      <path id="Path_249" data-name="Path 249" d="M486.435,330.693a2.421,2.421,0,1,1-2.421-2.421A2.421,2.421,0,0,1,486.435,330.693Z" fill="#ff723a"/>
      <path id="Path_250" data-name="Path 250" d="M501.928,330.693a2.421,2.421,0,1,1-2.421-2.421A2.421,2.421,0,0,1,501.928,330.693Z" fill="#ff723a"/>
      <path id="Path_251" data-name="Path 251" d="M517.421,330.693A2.421,2.421,0,1,1,515,328.272,2.421,2.421,0,0,1,517.421,330.693Z" fill="#ff723a"/>
      <path id="Path_252" data-name="Path 252" d="M532.914,330.693a2.421,2.421,0,1,1-2.421-2.421A2.421,2.421,0,0,1,532.914,330.693Z" fill="#ff723a"/>
    </g>
  </g>
</svg>
