<svg xmlns="http://www.w3.org/2000/svg" width="139.071" height="131.654" viewBox="0 0 139.071 131.654">
  <g id="Group_25" data-name="Group 25" transform="translate(-498.465 11.712)" opacity="0.3">
    <g id="Group_17" data-name="Group 17">
      <path id="Path_123" data-name="Path 123" d="M504.947,116.406A2.947,2.947,0,1,1,502,113.459,2.946,2.946,0,0,1,504.947,116.406Z" fill="none" stroke="#ff723a" stroke-linecap="round" stroke-linejoin="round" stroke-width="1.179"/>
      <circle id="Ellipse_10" data-name="Ellipse 10" cx="2.946" cy="2.946" r="2.946" transform="translate(517.911 113.459)" fill="none" stroke="#ff723a" stroke-linecap="round" stroke-linejoin="round" stroke-width="1.179"/>
      <circle id="Ellipse_11" data-name="Ellipse 11" cx="2.946" cy="2.946" r="2.946" transform="translate(536.768 113.459)" fill="none" stroke="#ff723a" stroke-linecap="round" stroke-linejoin="round" stroke-width="1.179"/>
      <circle id="Ellipse_12" data-name="Ellipse 12" cx="2.946" cy="2.946" r="2.946" transform="translate(555.625 113.459)" fill="none" stroke="#ff723a" stroke-linecap="round" stroke-linejoin="round" stroke-width="1.179"/>
      <circle id="Ellipse_13" data-name="Ellipse 13" cx="2.946" cy="2.946" r="2.946" transform="translate(574.482 113.459)" fill="none" stroke="#ff723a" stroke-linecap="round" stroke-linejoin="round" stroke-width="1.179"/>
      <circle id="Ellipse_14" data-name="Ellipse 14" cx="2.946" cy="2.946" r="2.946" transform="translate(593.339 113.459)" fill="none" stroke="#ff723a" stroke-linecap="round" stroke-linejoin="round" stroke-width="1.179"/>
      <circle id="Ellipse_15" data-name="Ellipse 15" cx="2.946" cy="2.946" r="2.946" transform="translate(612.196 113.459)" fill="none" stroke="#ff723a" stroke-linecap="round" stroke-linejoin="round" stroke-width="1.179"/>
      <path id="Path_124" data-name="Path 124" d="M636.946,116.406A2.947,2.947,0,1,1,634,113.459,2.946,2.946,0,0,1,636.946,116.406Z" fill="none" stroke="#ff723a" stroke-linecap="round" stroke-linejoin="round" stroke-width="1.179"/>
    </g>
    <g id="Group_18" data-name="Group 18">
      <path id="Path_125" data-name="Path 125" d="M504.947,98.608A2.947,2.947,0,1,1,502,95.662,2.947,2.947,0,0,1,504.947,98.608Z" fill="none" stroke="#ff723a" stroke-linecap="round" stroke-linejoin="round" stroke-width="1.179"/>
      <circle id="Ellipse_16" data-name="Ellipse 16" cx="2.946" cy="2.946" r="2.946" transform="translate(517.911 95.662)" fill="none" stroke="#ff723a" stroke-linecap="round" stroke-linejoin="round" stroke-width="1.179"/>
      <circle id="Ellipse_17" data-name="Ellipse 17" cx="2.946" cy="2.946" r="2.946" transform="translate(536.768 95.662)" fill="none" stroke="#ff723a" stroke-linecap="round" stroke-linejoin="round" stroke-width="1.179"/>
      <circle id="Ellipse_18" data-name="Ellipse 18" cx="2.946" cy="2.946" r="2.946" transform="translate(555.625 95.662)" fill="none" stroke="#ff723a" stroke-linecap="round" stroke-linejoin="round" stroke-width="1.179"/>
      <circle id="Ellipse_19" data-name="Ellipse 19" cx="2.946" cy="2.946" r="2.946" transform="translate(574.482 95.662)" fill="none" stroke="#ff723a" stroke-linecap="round" stroke-linejoin="round" stroke-width="1.179"/>
      <circle id="Ellipse_20" data-name="Ellipse 20" cx="2.946" cy="2.946" r="2.946" transform="translate(593.339 95.662)" fill="none" stroke="#ff723a" stroke-linecap="round" stroke-linejoin="round" stroke-width="1.179"/>
      <circle id="Ellipse_21" data-name="Ellipse 21" cx="2.946" cy="2.946" r="2.946" transform="translate(612.196 95.662)" fill="none" stroke="#ff723a" stroke-linecap="round" stroke-linejoin="round" stroke-width="1.179"/>
      <path id="Path_126" data-name="Path 126" d="M636.946,98.608A2.947,2.947,0,1,1,634,95.662,2.947,2.947,0,0,1,636.946,98.608Z" fill="none" stroke="#ff723a" stroke-linecap="round" stroke-linejoin="round" stroke-width="1.179"/>
    </g>
    <g id="Group_19" data-name="Group 19">
      <path id="Path_127" data-name="Path 127" d="M504.947,80.811A2.947,2.947,0,1,1,502,77.864,2.946,2.946,0,0,1,504.947,80.811Z" fill="none" stroke="#ff723a" stroke-linecap="round" stroke-linejoin="round" stroke-width="1.179"/>
      <circle id="Ellipse_22" data-name="Ellipse 22" cx="2.946" cy="2.946" r="2.946" transform="translate(517.911 77.864)" fill="none" stroke="#ff723a" stroke-linecap="round" stroke-linejoin="round" stroke-width="1.179"/>
      <circle id="Ellipse_23" data-name="Ellipse 23" cx="2.946" cy="2.946" r="2.946" transform="translate(536.768 77.864)" fill="none" stroke="#ff723a" stroke-linecap="round" stroke-linejoin="round" stroke-width="1.179"/>
      <circle id="Ellipse_24" data-name="Ellipse 24" cx="2.946" cy="2.946" r="2.946" transform="translate(555.625 77.864)" fill="none" stroke="#ff723a" stroke-linecap="round" stroke-linejoin="round" stroke-width="1.179"/>
      <circle id="Ellipse_25" data-name="Ellipse 25" cx="2.946" cy="2.946" r="2.946" transform="translate(574.482 77.864)" fill="none" stroke="#ff723a" stroke-linecap="round" stroke-linejoin="round" stroke-width="1.179"/>
      <circle id="Ellipse_26" data-name="Ellipse 26" cx="2.946" cy="2.946" r="2.946" transform="translate(593.339 77.864)" fill="none" stroke="#ff723a" stroke-linecap="round" stroke-linejoin="round" stroke-width="1.179"/>
      <circle id="Ellipse_27" data-name="Ellipse 27" cx="2.946" cy="2.946" r="2.946" transform="translate(612.196 77.864)" fill="none" stroke="#ff723a" stroke-linecap="round" stroke-linejoin="round" stroke-width="1.179"/>
      <path id="Path_128" data-name="Path 128" d="M636.946,80.811A2.947,2.947,0,1,1,634,77.864,2.946,2.946,0,0,1,636.946,80.811Z" fill="none" stroke="#ff723a" stroke-linecap="round" stroke-linejoin="round" stroke-width="1.179"/>
    </g>
    <g id="Group_20" data-name="Group 20">
      <path id="Path_129" data-name="Path 129" d="M504.947,63.013A2.947,2.947,0,1,1,502,60.067,2.946,2.946,0,0,1,504.947,63.013Z" fill="none" stroke="#ff723a" stroke-linecap="round" stroke-linejoin="round" stroke-width="1.179"/>
      <path id="Path_130" data-name="Path 130" d="M523.8,63.013a2.947,2.947,0,1,1-2.947-2.946A2.946,2.946,0,0,1,523.8,63.013Z" fill="none" stroke="#ff723a" stroke-linecap="round" stroke-linejoin="round" stroke-width="1.179"/>
      <path id="Path_131" data-name="Path 131" d="M542.661,63.013a2.947,2.947,0,1,1-2.947-2.946A2.946,2.946,0,0,1,542.661,63.013Z" fill="none" stroke="#ff723a" stroke-linecap="round" stroke-linejoin="round" stroke-width="1.179"/>
      <path id="Path_132" data-name="Path 132" d="M561.518,63.013a2.947,2.947,0,1,1-2.947-2.946A2.946,2.946,0,0,1,561.518,63.013Z" fill="none" stroke="#ff723a" stroke-linecap="round" stroke-linejoin="round" stroke-width="1.179"/>
      <path id="Path_133" data-name="Path 133" d="M580.375,63.013a2.947,2.947,0,1,1-2.947-2.946A2.946,2.946,0,0,1,580.375,63.013Z" fill="none" stroke="#ff723a" stroke-linecap="round" stroke-linejoin="round" stroke-width="1.179"/>
      <path id="Path_134" data-name="Path 134" d="M599.232,63.013a2.947,2.947,0,1,1-2.947-2.946A2.946,2.946,0,0,1,599.232,63.013Z" fill="none" stroke="#ff723a" stroke-linecap="round" stroke-linejoin="round" stroke-width="1.179"/>
      <path id="Path_135" data-name="Path 135" d="M618.089,63.013a2.947,2.947,0,1,1-2.947-2.946A2.946,2.946,0,0,1,618.089,63.013Z" fill="none" stroke="#ff723a" stroke-linecap="round" stroke-linejoin="round" stroke-width="1.179"/>
      <path id="Path_136" data-name="Path 136" d="M636.946,63.013A2.947,2.947,0,1,1,634,60.067,2.946,2.946,0,0,1,636.946,63.013Z" fill="none" stroke="#ff723a" stroke-linecap="round" stroke-linejoin="round" stroke-width="1.179"/>
    </g>
    <g id="Group_21" data-name="Group 21">
      <path id="Path_137" data-name="Path 137" d="M504.947,45.216A2.947,2.947,0,1,1,502,42.269,2.946,2.946,0,0,1,504.947,45.216Z" fill="none" stroke="#ff723a" stroke-linecap="round" stroke-linejoin="round" stroke-width="1.179"/>
      <path id="Path_138" data-name="Path 138" d="M523.8,45.216a2.947,2.947,0,1,1-2.947-2.947A2.946,2.946,0,0,1,523.8,45.216Z" fill="none" stroke="#ff723a" stroke-linecap="round" stroke-linejoin="round" stroke-width="1.179"/>
      <path id="Path_139" data-name="Path 139" d="M542.661,45.216a2.947,2.947,0,1,1-2.947-2.947A2.946,2.946,0,0,1,542.661,45.216Z" fill="none" stroke="#ff723a" stroke-linecap="round" stroke-linejoin="round" stroke-width="1.179"/>
      <path id="Path_140" data-name="Path 140" d="M561.518,45.216a2.947,2.947,0,1,1-2.947-2.947A2.946,2.946,0,0,1,561.518,45.216Z" fill="none" stroke="#ff723a" stroke-linecap="round" stroke-linejoin="round" stroke-width="1.179"/>
      <path id="Path_141" data-name="Path 141" d="M580.375,45.216a2.947,2.947,0,1,1-2.947-2.947A2.946,2.946,0,0,1,580.375,45.216Z" fill="none" stroke="#ff723a" stroke-linecap="round" stroke-linejoin="round" stroke-width="1.179"/>
      <path id="Path_142" data-name="Path 142" d="M599.232,45.216a2.947,2.947,0,1,1-2.947-2.947A2.946,2.946,0,0,1,599.232,45.216Z" fill="none" stroke="#ff723a" stroke-linecap="round" stroke-linejoin="round" stroke-width="1.179"/>
      <path id="Path_143" data-name="Path 143" d="M618.089,45.216a2.947,2.947,0,1,1-2.947-2.947A2.946,2.946,0,0,1,618.089,45.216Z" fill="none" stroke="#ff723a" stroke-linecap="round" stroke-linejoin="round" stroke-width="1.179"/>
      <path id="Path_144" data-name="Path 144" d="M636.946,45.216A2.947,2.947,0,1,1,634,42.269,2.946,2.946,0,0,1,636.946,45.216Z" fill="none" stroke="#ff723a" stroke-linecap="round" stroke-linejoin="round" stroke-width="1.179"/>
    </g>
    <g id="Group_22" data-name="Group 22">
      <path id="Path_145" data-name="Path 145" d="M504.947,27.418A2.947,2.947,0,1,1,502,24.472,2.946,2.946,0,0,1,504.947,27.418Z" fill="none" stroke="#ff723a" stroke-linecap="round" stroke-linejoin="round" stroke-width="1.179"/>
      <path id="Path_146" data-name="Path 146" d="M523.8,27.418a2.947,2.947,0,1,1-2.947-2.946A2.946,2.946,0,0,1,523.8,27.418Z" fill="none" stroke="#ff723a" stroke-linecap="round" stroke-linejoin="round" stroke-width="1.179"/>
      <path id="Path_147" data-name="Path 147" d="M542.661,27.418a2.947,2.947,0,1,1-2.947-2.946A2.946,2.946,0,0,1,542.661,27.418Z" fill="none" stroke="#ff723a" stroke-linecap="round" stroke-linejoin="round" stroke-width="1.179"/>
      <path id="Path_148" data-name="Path 148" d="M561.518,27.418a2.947,2.947,0,1,1-2.947-2.946A2.946,2.946,0,0,1,561.518,27.418Z" fill="none" stroke="#ff723a" stroke-linecap="round" stroke-linejoin="round" stroke-width="1.179"/>
      <path id="Path_149" data-name="Path 149" d="M580.375,27.418a2.947,2.947,0,1,1-2.947-2.946A2.946,2.946,0,0,1,580.375,27.418Z" fill="none" stroke="#ff723a" stroke-linecap="round" stroke-linejoin="round" stroke-width="1.179"/>
      <path id="Path_150" data-name="Path 150" d="M599.232,27.418a2.947,2.947,0,1,1-2.947-2.946A2.946,2.946,0,0,1,599.232,27.418Z" fill="none" stroke="#ff723a" stroke-linecap="round" stroke-linejoin="round" stroke-width="1.179"/>
      <path id="Path_151" data-name="Path 151" d="M618.089,27.418a2.947,2.947,0,1,1-2.947-2.946A2.946,2.946,0,0,1,618.089,27.418Z" fill="none" stroke="#ff723a" stroke-linecap="round" stroke-linejoin="round" stroke-width="1.179"/>
      <path id="Path_152" data-name="Path 152" d="M636.946,27.418A2.947,2.947,0,1,1,634,24.472,2.946,2.946,0,0,1,636.946,27.418Z" fill="none" stroke="#ff723a" stroke-linecap="round" stroke-linejoin="round" stroke-width="1.179"/>
    </g>
    <g id="Group_23" data-name="Group 23">
      <path id="Path_153" data-name="Path 153" d="M504.947,9.621A2.947,2.947,0,1,1,502,6.674,2.946,2.946,0,0,1,504.947,9.621Z" fill="none" stroke="#ff723a" stroke-linecap="round" stroke-linejoin="round" stroke-width="1.179"/>
      <circle id="Ellipse_28" data-name="Ellipse 28" cx="2.946" cy="2.946" r="2.946" transform="translate(517.911 6.674)" fill="none" stroke="#ff723a" stroke-linecap="round" stroke-linejoin="round" stroke-width="1.179"/>
      <circle id="Ellipse_29" data-name="Ellipse 29" cx="2.946" cy="2.946" r="2.946" transform="translate(536.768 6.674)" fill="none" stroke="#ff723a" stroke-linecap="round" stroke-linejoin="round" stroke-width="1.179"/>
      <circle id="Ellipse_30" data-name="Ellipse 30" cx="2.946" cy="2.946" r="2.946" transform="translate(555.625 6.674)" fill="none" stroke="#ff723a" stroke-linecap="round" stroke-linejoin="round" stroke-width="1.179"/>
      <circle id="Ellipse_31" data-name="Ellipse 31" cx="2.946" cy="2.946" r="2.946" transform="translate(574.482 6.674)" fill="none" stroke="#ff723a" stroke-linecap="round" stroke-linejoin="round" stroke-width="1.179"/>
      <circle id="Ellipse_32" data-name="Ellipse 32" cx="2.946" cy="2.946" r="2.946" transform="translate(593.339 6.674)" fill="none" stroke="#ff723a" stroke-linecap="round" stroke-linejoin="round" stroke-width="1.179"/>
      <circle id="Ellipse_33" data-name="Ellipse 33" cx="2.946" cy="2.946" r="2.946" transform="translate(612.196 6.674)" fill="none" stroke="#ff723a" stroke-linecap="round" stroke-linejoin="round" stroke-width="1.179"/>
      <path id="Path_154" data-name="Path 154" d="M636.946,9.621A2.947,2.947,0,1,1,634,6.674,2.946,2.946,0,0,1,636.946,9.621Z" fill="none" stroke="#ff723a" stroke-linecap="round" stroke-linejoin="round" stroke-width="1.179"/>
    </g>
    <g id="Group_24" data-name="Group 24">
      <path id="Path_155" data-name="Path 155" d="M504.947-8.177A2.947,2.947,0,0,1,502-5.23a2.947,2.947,0,0,1-2.946-2.947A2.946,2.946,0,0,1,502-11.123,2.946,2.946,0,0,1,504.947-8.177Z" fill="none" stroke="#ff723a" stroke-linecap="round" stroke-linejoin="round" stroke-width="1.179"/>
      <circle id="Ellipse_34" data-name="Ellipse 34" cx="2.946" cy="2.946" r="2.946" transform="translate(517.911 -11.123)" fill="none" stroke="#ff723a" stroke-linecap="round" stroke-linejoin="round" stroke-width="1.179"/>
      <circle id="Ellipse_35" data-name="Ellipse 35" cx="2.946" cy="2.946" r="2.946" transform="translate(536.768 -11.123)" fill="none" stroke="#ff723a" stroke-linecap="round" stroke-linejoin="round" stroke-width="1.179"/>
      <circle id="Ellipse_36" data-name="Ellipse 36" cx="2.946" cy="2.946" r="2.946" transform="translate(555.625 -11.123)" fill="none" stroke="#ff723a" stroke-linecap="round" stroke-linejoin="round" stroke-width="1.179"/>
      <circle id="Ellipse_37" data-name="Ellipse 37" cx="2.946" cy="2.946" r="2.946" transform="translate(574.482 -11.123)" fill="none" stroke="#ff723a" stroke-linecap="round" stroke-linejoin="round" stroke-width="1.179"/>
      <circle id="Ellipse_38" data-name="Ellipse 38" cx="2.946" cy="2.946" r="2.946" transform="translate(593.339 -11.123)" fill="none" stroke="#ff723a" stroke-linecap="round" stroke-linejoin="round" stroke-width="1.179"/>
      <circle id="Ellipse_39" data-name="Ellipse 39" cx="2.946" cy="2.946" r="2.946" transform="translate(612.196 -11.123)" fill="none" stroke="#ff723a" stroke-linecap="round" stroke-linejoin="round" stroke-width="1.179"/>
      <path id="Path_156" data-name="Path 156" d="M636.946-8.177A2.947,2.947,0,0,1,634-5.23a2.947,2.947,0,0,1-2.947-2.947A2.946,2.946,0,0,1,634-11.123,2.946,2.946,0,0,1,636.946-8.177Z" fill="none" stroke="#ff723a" stroke-linecap="round" stroke-linejoin="round" stroke-width="1.179"/>
    </g>
  </g>
</svg>
