<svg xmlns="http://www.w3.org/2000/svg" xmlns:xlink="http://www.w3.org/1999/xlink" width="123" height="32" viewBox="0 0 123 32">
  <defs>
    <clipPath id="clip-path">
      <rect width="123" height="32" fill="none"/>
    </clipPath>
  </defs>
  <g id="Repeat_Grid_3" data-name="Repeat Grid 3" opacity="0.2" clip-path="url(#clip-path)">
    <g transform="translate(-436 -978)">
      <circle id="Ellipse_335" data-name="Ellipse 335" cx="2.5" cy="2.5" r="2.5" transform="translate(438 980)" fill="#f14d5d"/>
    </g>
    <g transform="translate(-414 -978)">
      <circle id="Ellipse_335-2" data-name="Ellipse 335" cx="2.5" cy="2.5" r="2.5" transform="translate(438 980)" fill="#f14d5d"/>
    </g>
    <g transform="translate(-392 -978)">
      <circle id="Ellipse_335-3" data-name="Ellipse 335" cx="2.5" cy="2.5" r="2.5" transform="translate(438 980)" fill="#f14d5d"/>
    </g>
    <g transform="translate(-370 -978)">
      <circle id="Ellipse_335-4" data-name="Ellipse 335" cx="2.5" cy="2.5" r="2.5" transform="translate(438 980)" fill="#f14d5d"/>
    </g>
    <g transform="translate(-348 -978)">
      <circle id="Ellipse_335-5" data-name="Ellipse 335" cx="2.5" cy="2.5" r="2.5" transform="translate(438 980)" fill="#f14d5d"/>
    </g>
    <g transform="translate(-326 -978)">
      <circle id="Ellipse_335-6" data-name="Ellipse 335" cx="2.5" cy="2.5" r="2.5" transform="translate(438 980)" fill="#f14d5d"/>
    </g>
    <g transform="translate(-436 -956)">
      <circle id="Ellipse_335-7" data-name="Ellipse 335" cx="2.5" cy="2.5" r="2.5" transform="translate(438 980)" fill="#f14d5d"/>
    </g>
    <g transform="translate(-414 -956)">
      <circle id="Ellipse_335-8" data-name="Ellipse 335" cx="2.5" cy="2.5" r="2.5" transform="translate(438 980)" fill="#f14d5d"/>
    </g>
    <g transform="translate(-392 -956)">
      <circle id="Ellipse_335-9" data-name="Ellipse 335" cx="2.5" cy="2.5" r="2.5" transform="translate(438 980)" fill="#f14d5d"/>
    </g>
    <g transform="translate(-370 -956)">
      <circle id="Ellipse_335-10" data-name="Ellipse 335" cx="2.5" cy="2.5" r="2.5" transform="translate(438 980)" fill="#f14d5d"/>
    </g>
    <g transform="translate(-348 -956)">
      <circle id="Ellipse_335-11" data-name="Ellipse 335" cx="2.5" cy="2.5" r="2.5" transform="translate(438 980)" fill="#f14d5d"/>
    </g>
    <g transform="translate(-326 -956)">
      <circle id="Ellipse_335-12" data-name="Ellipse 335" cx="2.5" cy="2.5" r="2.5" transform="translate(438 980)" fill="#f14d5d"/>
    </g>
  </g>
</svg>
