<svg xmlns="http://www.w3.org/2000/svg" xmlns:xlink="http://www.w3.org/1999/xlink" width="116.391" height="58.425" viewBox="0 0 116.391 58.425">
  <defs>
    <clipPath id="clip-path">
      <rect width="116.391" height="58.425" fill="none"/>
    </clipPath>
  </defs>
  <g id="Repeat_Grid_1" data-name="Repeat Grid 1" opacity="0.7" clip-path="url(#clip-path)">
    <g transform="translate(-179.386 -754.051)">
      <path id="Path_12231" data-name="Path 12231" d="M4419.661,761.19s12.039-7.935,25.172,0,14.229-11.492,25.446-5.472,11.491,11.765,21.889,3.831,12.039-5.472,22.163,1.642,21.068-5.472,21.068-5.472" transform="translate(-4240 1)" fill="none" stroke="#2878eb" stroke-linecap="round" stroke-width="2"/>
    </g>
    <g transform="translate(-179.386 -739.051)">
      <path id="Path_12231-2" data-name="Path 12231" d="M4419.661,761.19s12.039-7.935,25.172,0,14.229-11.492,25.446-5.472,11.491,11.765,21.889,3.831,12.039-5.472,22.163,1.642,21.068-5.472,21.068-5.472" transform="translate(-4240 1)" fill="none" stroke="#2878eb" stroke-linecap="round" stroke-width="2"/>
    </g>
    <g transform="translate(-179.386 -724.051)">
      <path id="Path_12231-3" data-name="Path 12231" d="M4419.661,761.19s12.039-7.935,25.172,0,14.229-11.492,25.446-5.472,11.491,11.765,21.889,3.831,12.039-5.472,22.163,1.642,21.068-5.472,21.068-5.472" transform="translate(-4240 1)" fill="none" stroke="#2878eb" stroke-linecap="round" stroke-width="2"/>
    </g>
    <g transform="translate(-179.386 -709.051)">
      <path id="Path_12231-4" data-name="Path 12231" d="M4419.661,761.19s12.039-7.935,25.172,0,14.229-11.492,25.446-5.472,11.491,11.765,21.889,3.831,12.039-5.472,22.163,1.642,21.068-5.472,21.068-5.472" transform="translate(-4240 1)" fill="none" stroke="#2878eb" stroke-linecap="round" stroke-width="2"/>
    </g>
  </g>
</svg>
