<svg xmlns="http://www.w3.org/2000/svg" xmlns:xlink="http://www.w3.org/1999/xlink" width="148.414" height="149.414" viewBox="0 0 148.414 149.414">
  <defs>
    <clipPath id="clip-path">
      <rect width="148.414" height="149.414" fill="none"/>
    </clipPath>
  </defs>
  <g id="Shapes" clip-path="url(#clip-path)">
    <g transform="translate(-448.793 -4485.793)">
      <line id="Line_164" data-name="Line 164" x2="6" y2="6" transform="translate(449.5 4486.5)" fill="none" stroke="#8e66ff" stroke-linecap="round" stroke-width="2"/>
    </g>
    <g transform="translate(-425.793 -4485.793)">
      <line id="Line_164-2" data-name="Line 164" x2="6" y2="6" transform="translate(449.5 4486.5)" fill="none" stroke="#8e66ff" stroke-linecap="round" stroke-width="2"/>
    </g>
    <g transform="translate(-402.793 -4485.793)">
      <line id="Line_164-3" data-name="Line 164" x2="6" y2="6" transform="translate(449.5 4486.5)" fill="none" stroke="#8e66ff" stroke-linecap="round" stroke-width="2"/>
    </g>
    <g transform="translate(-379.793 -4485.793)">
      <line id="Line_164-4" data-name="Line 164" x2="6" y2="6" transform="translate(449.5 4486.5)" fill="none" stroke="#8e66ff" stroke-linecap="round" stroke-width="2"/>
    </g>
    <g transform="translate(-356.793 -4485.793)">
      <line id="Line_164-5" data-name="Line 164" x2="6" y2="6" transform="translate(449.5 4486.5)" fill="none" stroke="#8e66ff" stroke-linecap="round" stroke-width="2"/>
    </g>
    <g transform="translate(-333.793 -4485.793)">
      <line id="Line_164-6" data-name="Line 164" x2="6" y2="6" transform="translate(449.5 4486.5)" fill="none" stroke="#8e66ff" stroke-linecap="round" stroke-width="2"/>
    </g>
    <g transform="translate(-310.793 -4485.793)">
      <line id="Line_164-7" data-name="Line 164" x2="6" y2="6" transform="translate(449.5 4486.5)" fill="none" stroke="#8e66ff" stroke-linecap="round" stroke-width="2"/>
    </g>
    <g transform="translate(-448.793 -4462.793)">
      <line id="Line_164-8" data-name="Line 164" x2="6" y2="6" transform="translate(449.5 4486.5)" fill="none" stroke="#8e66ff" stroke-linecap="round" stroke-width="2"/>
    </g>
    <g transform="translate(-425.793 -4462.793)">
      <line id="Line_164-9" data-name="Line 164" x2="6" y2="6" transform="translate(449.5 4486.5)" fill="none" stroke="#8e66ff" stroke-linecap="round" stroke-width="2"/>
    </g>
    <g transform="translate(-402.793 -4462.793)">
      <line id="Line_164-10" data-name="Line 164" x2="6" y2="6" transform="translate(449.5 4486.5)" fill="none" stroke="#8e66ff" stroke-linecap="round" stroke-width="2"/>
    </g>
    <g transform="translate(-379.793 -4462.793)">
      <line id="Line_164-11" data-name="Line 164" x2="6" y2="6" transform="translate(449.5 4486.5)" fill="none" stroke="#8e66ff" stroke-linecap="round" stroke-width="2"/>
    </g>
    <g transform="translate(-356.793 -4462.793)">
      <line id="Line_164-12" data-name="Line 164" x2="6" y2="6" transform="translate(449.5 4486.5)" fill="none" stroke="#8e66ff" stroke-linecap="round" stroke-width="2"/>
    </g>
    <g transform="translate(-333.793 -4462.793)">
      <line id="Line_164-13" data-name="Line 164" x2="6" y2="6" transform="translate(449.5 4486.5)" fill="none" stroke="#8e66ff" stroke-linecap="round" stroke-width="2"/>
    </g>
    <g transform="translate(-310.793 -4462.793)">
      <line id="Line_164-14" data-name="Line 164" x2="6" y2="6" transform="translate(449.5 4486.5)" fill="none" stroke="#8e66ff" stroke-linecap="round" stroke-width="2"/>
    </g>
    <g transform="translate(-448.793 -4439.793)">
      <line id="Line_164-15" data-name="Line 164" x2="6" y2="6" transform="translate(449.5 4486.5)" fill="none" stroke="#8e66ff" stroke-linecap="round" stroke-width="2"/>
    </g>
    <g transform="translate(-425.793 -4439.793)">
      <line id="Line_164-16" data-name="Line 164" x2="6" y2="6" transform="translate(449.5 4486.5)" fill="none" stroke="#8e66ff" stroke-linecap="round" stroke-width="2"/>
    </g>
    <g transform="translate(-402.793 -4439.793)">
      <line id="Line_164-17" data-name="Line 164" x2="6" y2="6" transform="translate(449.5 4486.5)" fill="none" stroke="#8e66ff" stroke-linecap="round" stroke-width="2"/>
    </g>
    <g transform="translate(-379.793 -4439.793)">
      <line id="Line_164-18" data-name="Line 164" x2="6" y2="6" transform="translate(449.5 4486.5)" fill="none" stroke="#8e66ff" stroke-linecap="round" stroke-width="2"/>
    </g>
    <g transform="translate(-356.793 -4439.793)">
      <line id="Line_164-19" data-name="Line 164" x2="6" y2="6" transform="translate(449.5 4486.5)" fill="none" stroke="#8e66ff" stroke-linecap="round" stroke-width="2"/>
    </g>
    <g transform="translate(-333.793 -4439.793)">
      <line id="Line_164-20" data-name="Line 164" x2="6" y2="6" transform="translate(449.5 4486.5)" fill="none" stroke="#8e66ff" stroke-linecap="round" stroke-width="2"/>
    </g>
    <g transform="translate(-310.793 -4439.793)">
      <line id="Line_164-21" data-name="Line 164" x2="6" y2="6" transform="translate(449.5 4486.5)" fill="none" stroke="#8e66ff" stroke-linecap="round" stroke-width="2"/>
    </g>
    <g transform="translate(-448.793 -4416.793)">
      <line id="Line_164-22" data-name="Line 164" x2="6" y2="6" transform="translate(449.5 4486.5)" fill="none" stroke="#8e66ff" stroke-linecap="round" stroke-width="2"/>
    </g>
    <g transform="translate(-425.793 -4416.793)">
      <line id="Line_164-23" data-name="Line 164" x2="6" y2="6" transform="translate(449.5 4486.5)" fill="none" stroke="#8e66ff" stroke-linecap="round" stroke-width="2"/>
    </g>
    <g transform="translate(-402.793 -4416.793)">
      <line id="Line_164-24" data-name="Line 164" x2="6" y2="6" transform="translate(449.5 4486.5)" fill="none" stroke="#8e66ff" stroke-linecap="round" stroke-width="2"/>
    </g>
    <g transform="translate(-379.793 -4416.793)">
      <line id="Line_164-25" data-name="Line 164" x2="6" y2="6" transform="translate(449.5 4486.5)" fill="none" stroke="#8e66ff" stroke-linecap="round" stroke-width="2"/>
    </g>
    <g transform="translate(-356.793 -4416.793)">
      <line id="Line_164-26" data-name="Line 164" x2="6" y2="6" transform="translate(449.5 4486.5)" fill="none" stroke="#8e66ff" stroke-linecap="round" stroke-width="2"/>
    </g>
    <g transform="translate(-333.793 -4416.793)">
      <line id="Line_164-27" data-name="Line 164" x2="6" y2="6" transform="translate(449.5 4486.5)" fill="none" stroke="#8e66ff" stroke-linecap="round" stroke-width="2"/>
    </g>
    <g transform="translate(-310.793 -4416.793)">
      <line id="Line_164-28" data-name="Line 164" x2="6" y2="6" transform="translate(449.5 4486.5)" fill="none" stroke="#8e66ff" stroke-linecap="round" stroke-width="2"/>
    </g>
    <g transform="translate(-448.793 -4393.793)">
      <line id="Line_164-29" data-name="Line 164" x2="6" y2="6" transform="translate(449.5 4486.5)" fill="none" stroke="#8e66ff" stroke-linecap="round" stroke-width="2"/>
    </g>
    <g transform="translate(-425.793 -4393.793)">
      <line id="Line_164-30" data-name="Line 164" x2="6" y2="6" transform="translate(449.5 4486.5)" fill="none" stroke="#8e66ff" stroke-linecap="round" stroke-width="2"/>
    </g>
    <g transform="translate(-402.793 -4393.793)">
      <line id="Line_164-31" data-name="Line 164" x2="6" y2="6" transform="translate(449.5 4486.5)" fill="none" stroke="#8e66ff" stroke-linecap="round" stroke-width="2"/>
    </g>
    <g transform="translate(-379.793 -4393.793)">
      <line id="Line_164-32" data-name="Line 164" x2="6" y2="6" transform="translate(449.5 4486.5)" fill="none" stroke="#8e66ff" stroke-linecap="round" stroke-width="2"/>
    </g>
    <g transform="translate(-356.793 -4393.793)">
      <line id="Line_164-33" data-name="Line 164" x2="6" y2="6" transform="translate(449.5 4486.5)" fill="none" stroke="#8e66ff" stroke-linecap="round" stroke-width="2"/>
    </g>
    <g transform="translate(-333.793 -4393.793)">
      <line id="Line_164-34" data-name="Line 164" x2="6" y2="6" transform="translate(449.5 4486.5)" fill="none" stroke="#8e66ff" stroke-linecap="round" stroke-width="2"/>
    </g>
    <g transform="translate(-310.793 -4393.793)">
      <line id="Line_164-35" data-name="Line 164" x2="6" y2="6" transform="translate(449.5 4486.5)" fill="none" stroke="#8e66ff" stroke-linecap="round" stroke-width="2"/>
    </g>
    <g transform="translate(-448.793 -4370.793)">
      <line id="Line_164-36" data-name="Line 164" x2="6" y2="6" transform="translate(449.5 4486.5)" fill="none" stroke="#8e66ff" stroke-linecap="round" stroke-width="2"/>
    </g>
    <g transform="translate(-425.793 -4370.793)">
      <line id="Line_164-37" data-name="Line 164" x2="6" y2="6" transform="translate(449.5 4486.5)" fill="none" stroke="#8e66ff" stroke-linecap="round" stroke-width="2"/>
    </g>
    <g transform="translate(-402.793 -4370.793)">
      <line id="Line_164-38" data-name="Line 164" x2="6" y2="6" transform="translate(449.5 4486.5)" fill="none" stroke="#8e66ff" stroke-linecap="round" stroke-width="2"/>
    </g>
    <g transform="translate(-379.793 -4370.793)">
      <line id="Line_164-39" data-name="Line 164" x2="6" y2="6" transform="translate(449.5 4486.5)" fill="none" stroke="#8e66ff" stroke-linecap="round" stroke-width="2"/>
    </g>
    <g transform="translate(-356.793 -4370.793)">
      <line id="Line_164-40" data-name="Line 164" x2="6" y2="6" transform="translate(449.5 4486.5)" fill="none" stroke="#8e66ff" stroke-linecap="round" stroke-width="2"/>
    </g>
    <g transform="translate(-333.793 -4370.793)">
      <line id="Line_164-41" data-name="Line 164" x2="6" y2="6" transform="translate(449.5 4486.5)" fill="none" stroke="#8e66ff" stroke-linecap="round" stroke-width="2"/>
    </g>
    <g transform="translate(-310.793 -4370.793)">
      <line id="Line_164-42" data-name="Line 164" x2="6" y2="6" transform="translate(449.5 4486.5)" fill="none" stroke="#8e66ff" stroke-linecap="round" stroke-width="2"/>
    </g>
    <g transform="translate(-448.793 -4347.793)">
      <line id="Line_164-43" data-name="Line 164" x2="6" y2="6" transform="translate(449.5 4486.5)" fill="none" stroke="#8e66ff" stroke-linecap="round" stroke-width="2"/>
    </g>
    <g transform="translate(-425.793 -4347.793)">
      <line id="Line_164-44" data-name="Line 164" x2="6" y2="6" transform="translate(449.5 4486.5)" fill="none" stroke="#8e66ff" stroke-linecap="round" stroke-width="2"/>
    </g>
    <g transform="translate(-402.793 -4347.793)">
      <line id="Line_164-45" data-name="Line 164" x2="6" y2="6" transform="translate(449.5 4486.5)" fill="none" stroke="#8e66ff" stroke-linecap="round" stroke-width="2"/>
    </g>
    <g transform="translate(-379.793 -4347.793)">
      <line id="Line_164-46" data-name="Line 164" x2="6" y2="6" transform="translate(449.5 4486.5)" fill="none" stroke="#8e66ff" stroke-linecap="round" stroke-width="2"/>
    </g>
    <g transform="translate(-356.793 -4347.793)">
      <line id="Line_164-47" data-name="Line 164" x2="6" y2="6" transform="translate(449.5 4486.5)" fill="none" stroke="#8e66ff" stroke-linecap="round" stroke-width="2"/>
    </g>
    <g transform="translate(-333.793 -4347.793)">
      <line id="Line_164-48" data-name="Line 164" x2="6" y2="6" transform="translate(449.5 4486.5)" fill="none" stroke="#8e66ff" stroke-linecap="round" stroke-width="2"/>
    </g>
    <g transform="translate(-310.793 -4347.793)">
      <line id="Line_164-49" data-name="Line 164" x2="6" y2="6" transform="translate(449.5 4486.5)" fill="none" stroke="#8e66ff" stroke-linecap="round" stroke-width="2"/>
    </g>
  </g>
</svg>
