<svg xmlns="http://www.w3.org/2000/svg" xmlns:xlink="http://www.w3.org/1999/xlink" width="102" height="100" viewBox="0 0 102 100">
  <defs>
    <clipPath id="clip-path">
      <rect width="102" height="100" fill="none"/>
    </clipPath>
  </defs>
  <g id="Repeat_Grid_2" data-name="Repeat Grid 2" opacity="0.7" clip-path="url(#clip-path)">
    <g transform="translate(-436 -978)">
      <g id="Ellipse_335" data-name="Ellipse 335" transform="translate(436 978)" fill="none" stroke="#8e66ff" stroke-width="2">
        <circle cx="4.5" cy="4.5" r="4.5" stroke="none"/>
        <circle cx="4.5" cy="4.5" r="3.5" fill="none"/>
      </g>
    </g>
    <g transform="translate(-414 -978)">
      <g id="Ellipse_335-2" data-name="Ellipse 335" transform="translate(436 978)" fill="none" stroke="#8e66ff" stroke-width="2">
        <circle cx="4.5" cy="4.5" r="4.5" stroke="none"/>
        <circle cx="4.5" cy="4.5" r="3.5" fill="none"/>
      </g>
    </g>
    <g transform="translate(-392 -978)">
      <g id="Ellipse_335-3" data-name="Ellipse 335" transform="translate(436 978)" fill="none" stroke="#8e66ff" stroke-width="2">
        <circle cx="4.5" cy="4.5" r="4.5" stroke="none"/>
        <circle cx="4.5" cy="4.5" r="3.5" fill="none"/>
      </g>
    </g>
    <g transform="translate(-370 -978)">
      <g id="Ellipse_335-4" data-name="Ellipse 335" transform="translate(436 978)" fill="none" stroke="#8e66ff" stroke-width="2">
        <circle cx="4.5" cy="4.5" r="4.5" stroke="none"/>
        <circle cx="4.5" cy="4.5" r="3.5" fill="none"/>
      </g>
    </g>
    <g transform="translate(-348 -978)">
      <g id="Ellipse_335-5" data-name="Ellipse 335" transform="translate(436 978)" fill="none" stroke="#8e66ff" stroke-width="2">
        <circle cx="4.5" cy="4.5" r="4.5" stroke="none"/>
        <circle cx="4.5" cy="4.5" r="3.5" fill="none"/>
      </g>
    </g>
    <g transform="translate(-436 -956)">
      <g id="Ellipse_335-6" data-name="Ellipse 335" transform="translate(436 978)" fill="none" stroke="#8e66ff" stroke-width="2">
        <circle cx="4.5" cy="4.5" r="4.5" stroke="none"/>
        <circle cx="4.5" cy="4.5" r="3.5" fill="none"/>
      </g>
    </g>
    <g transform="translate(-414 -956)">
      <g id="Ellipse_335-7" data-name="Ellipse 335" transform="translate(436 978)" fill="none" stroke="#8e66ff" stroke-width="2">
        <circle cx="4.5" cy="4.5" r="4.5" stroke="none"/>
        <circle cx="4.5" cy="4.5" r="3.5" fill="none"/>
      </g>
    </g>
    <g transform="translate(-392 -956)">
      <g id="Ellipse_335-8" data-name="Ellipse 335" transform="translate(436 978)" fill="none" stroke="#8e66ff" stroke-width="2">
        <circle cx="4.5" cy="4.5" r="4.5" stroke="none"/>
        <circle cx="4.5" cy="4.5" r="3.5" fill="none"/>
      </g>
    </g>
    <g transform="translate(-370 -956)">
      <g id="Ellipse_335-9" data-name="Ellipse 335" transform="translate(436 978)" fill="none" stroke="#8e66ff" stroke-width="2">
        <circle cx="4.5" cy="4.5" r="4.5" stroke="none"/>
        <circle cx="4.5" cy="4.5" r="3.5" fill="none"/>
      </g>
    </g>
    <g transform="translate(-348 -956)">
      <g id="Ellipse_335-10" data-name="Ellipse 335" transform="translate(436 978)" fill="none" stroke="#8e66ff" stroke-width="2">
        <circle cx="4.5" cy="4.5" r="4.5" stroke="none"/>
        <circle cx="4.5" cy="4.5" r="3.5" fill="none"/>
      </g>
    </g>
    <g transform="translate(-436 -934)">
      <g id="Ellipse_335-11" data-name="Ellipse 335" transform="translate(436 978)" fill="none" stroke="#8e66ff" stroke-width="2">
        <circle cx="4.5" cy="4.5" r="4.5" stroke="none"/>
        <circle cx="4.5" cy="4.5" r="3.5" fill="none"/>
      </g>
    </g>
    <g transform="translate(-414 -934)">
      <g id="Ellipse_335-12" data-name="Ellipse 335" transform="translate(436 978)" fill="none" stroke="#8e66ff" stroke-width="2">
        <circle cx="4.5" cy="4.5" r="4.5" stroke="none"/>
        <circle cx="4.5" cy="4.5" r="3.5" fill="none"/>
      </g>
    </g>
    <g transform="translate(-392 -934)">
      <g id="Ellipse_335-13" data-name="Ellipse 335" transform="translate(436 978)" fill="none" stroke="#8e66ff" stroke-width="2">
        <circle cx="4.5" cy="4.5" r="4.5" stroke="none"/>
        <circle cx="4.5" cy="4.5" r="3.5" fill="none"/>
      </g>
    </g>
    <g transform="translate(-370 -934)">
      <g id="Ellipse_335-14" data-name="Ellipse 335" transform="translate(436 978)" fill="none" stroke="#8e66ff" stroke-width="2">
        <circle cx="4.5" cy="4.5" r="4.5" stroke="none"/>
        <circle cx="4.5" cy="4.5" r="3.5" fill="none"/>
      </g>
    </g>
    <g transform="translate(-348 -934)">
      <g id="Ellipse_335-15" data-name="Ellipse 335" transform="translate(436 978)" fill="none" stroke="#8e66ff" stroke-width="2">
        <circle cx="4.5" cy="4.5" r="4.5" stroke="none"/>
        <circle cx="4.5" cy="4.5" r="3.5" fill="none"/>
      </g>
    </g>
    <g transform="translate(-436 -912)">
      <g id="Ellipse_335-16" data-name="Ellipse 335" transform="translate(436 978)" fill="none" stroke="#8e66ff" stroke-width="2">
        <circle cx="4.5" cy="4.5" r="4.5" stroke="none"/>
        <circle cx="4.5" cy="4.5" r="3.5" fill="none"/>
      </g>
    </g>
    <g transform="translate(-414 -912)">
      <g id="Ellipse_335-17" data-name="Ellipse 335" transform="translate(436 978)" fill="none" stroke="#8e66ff" stroke-width="2">
        <circle cx="4.5" cy="4.5" r="4.5" stroke="none"/>
        <circle cx="4.5" cy="4.5" r="3.5" fill="none"/>
      </g>
    </g>
    <g transform="translate(-392 -912)">
      <g id="Ellipse_335-18" data-name="Ellipse 335" transform="translate(436 978)" fill="none" stroke="#8e66ff" stroke-width="2">
        <circle cx="4.5" cy="4.5" r="4.5" stroke="none"/>
        <circle cx="4.5" cy="4.5" r="3.5" fill="none"/>
      </g>
    </g>
    <g transform="translate(-370 -912)">
      <g id="Ellipse_335-19" data-name="Ellipse 335" transform="translate(436 978)" fill="none" stroke="#8e66ff" stroke-width="2">
        <circle cx="4.5" cy="4.5" r="4.5" stroke="none"/>
        <circle cx="4.5" cy="4.5" r="3.5" fill="none"/>
      </g>
    </g>
    <g transform="translate(-348 -912)">
      <g id="Ellipse_335-20" data-name="Ellipse 335" transform="translate(436 978)" fill="none" stroke="#8e66ff" stroke-width="2">
        <circle cx="4.5" cy="4.5" r="4.5" stroke="none"/>
        <circle cx="4.5" cy="4.5" r="3.5" fill="none"/>
      </g>
    </g>
    <g transform="translate(-436 -890)">
      <g id="Ellipse_335-21" data-name="Ellipse 335" transform="translate(436 978)" fill="none" stroke="#8e66ff" stroke-width="2">
        <circle cx="4.5" cy="4.5" r="4.5" stroke="none"/>
        <circle cx="4.5" cy="4.5" r="3.5" fill="none"/>
      </g>
    </g>
    <g transform="translate(-414 -890)">
      <g id="Ellipse_335-22" data-name="Ellipse 335" transform="translate(436 978)" fill="none" stroke="#8e66ff" stroke-width="2">
        <circle cx="4.5" cy="4.5" r="4.5" stroke="none"/>
        <circle cx="4.5" cy="4.5" r="3.5" fill="none"/>
      </g>
    </g>
    <g transform="translate(-392 -890)">
      <g id="Ellipse_335-23" data-name="Ellipse 335" transform="translate(436 978)" fill="none" stroke="#8e66ff" stroke-width="2">
        <circle cx="4.5" cy="4.5" r="4.5" stroke="none"/>
        <circle cx="4.5" cy="4.5" r="3.5" fill="none"/>
      </g>
    </g>
    <g transform="translate(-370 -890)">
      <g id="Ellipse_335-24" data-name="Ellipse 335" transform="translate(436 978)" fill="none" stroke="#8e66ff" stroke-width="2">
        <circle cx="4.5" cy="4.5" r="4.5" stroke="none"/>
        <circle cx="4.5" cy="4.5" r="3.5" fill="none"/>
      </g>
    </g>
    <g transform="translate(-348 -890)">
      <g id="Ellipse_335-25" data-name="Ellipse 335" transform="translate(436 978)" fill="none" stroke="#8e66ff" stroke-width="2">
        <circle cx="4.5" cy="4.5" r="4.5" stroke="none"/>
        <circle cx="4.5" cy="4.5" r="3.5" fill="none"/>
      </g>
    </g>
  </g>
</svg>
