<svg xmlns="http://www.w3.org/2000/svg" width="278.617" height="147.143" viewBox="0 0 278.617 147.143">
  <g id="Group_3060" data-name="Group 3060" transform="translate(1.397 1.411)">
    <g id="Group_3054" data-name="Group 3054" transform="translate(0 31.255)">
      <path id="Path_11733" data-name="Path 11733" d="M250.26,69.81l-18.9,3.745" transform="translate(-173.452 -46.103)" fill="none" stroke="#ff723a" stroke-linecap="round" stroke-miterlimit="10" stroke-width="2"/>
      <path id="Path_11734" data-name="Path 11734" d="M293.027,73.345l-42.24-18.96,32.852,24.591" transform="translate(-235.646 -46.103)" fill="none" stroke="#ff723a" stroke-linecap="round" stroke-miterlimit="10" stroke-width="2"/>
      <path id="Path_11735" data-name="Path 11735" d="M306.576,67.9q-37.732-11.635-75.9-21.8" transform="translate(-229.085 -46.103)" fill="none" stroke="#ff723a" stroke-linecap="round" stroke-miterlimit="10" stroke-width="2"/>
      <path id="Path_11736" data-name="Path 11736" d="M281.567,79.6q-10.71-.351-21.427.045" transform="translate(-233.539 -46.103)" fill="none" stroke="#ff723a" stroke-linecap="round" stroke-miterlimit="10" stroke-width="2"/>
      <path id="Path_11737" data-name="Path 11737" d="M279.239,46.243a398.65,398.65,0,0,0,28.929,35.311" transform="translate(-279.239 -46.103)" fill="none" stroke="#ff723a" stroke-linecap="round" stroke-miterlimit="10" stroke-width="2"/>
      <path id="Path_11738" data-name="Path 11738" d="M249.655,74.88a163.5,163.5,0,0,0-.725,19.657" transform="translate(-190.373 -46.103)" fill="none" stroke="#ff723a" stroke-linecap="round" stroke-miterlimit="10" stroke-width="2"/>
      <path id="Path_11739" data-name="Path 11739" d="M250.346,79.065q4.458,7.887,8.917,15.775" transform="translate(-201.441 -46.103)" fill="none" stroke="#ff723a" stroke-linecap="round" stroke-miterlimit="10" stroke-width="2"/>
      <path id="Path_11740" data-name="Path 11740" d="M268.492,94.776q-8.526-8.037-17.732-15.308" transform="translate(-211.084 -46.103)" fill="none" stroke="#ff723a" stroke-linecap="round" stroke-miterlimit="10" stroke-width="2"/>
    </g>
    <path id="Path_12168" data-name="Path 12168" d="M32,59.279c9.767,9.132,7.926,21.271,10.025,32.315,3.328,17.513,19.71,34.869,45.312,40.66,20.45,4.624,44.092,1.129,61.273-7.447s28.2-21.7,32.908-35.461c2-5.851,2.941-11.928,1.51-17.85-3.257-13.481-18.649-24.724-36.907-31.425A41.459,41.459,0,0,0,133,37.115c-4.67-.128-9.695,1.2-11.849,3.905-2.487,3.117-.393,7.141,3.571,9.524s9.359,3.453,14.63,4.2c28.473,4.045,60.612.055,81.341-13.283S247.219,4.875,229.94-10.4" transform="translate(36.044 10.405)" fill="none" stroke="#ff723a" stroke-linecap="round" stroke-miterlimit="10" stroke-width="2" stroke-dasharray="9.738"/>
  </g>
</svg>
