<svg xmlns="http://www.w3.org/2000/svg" width="78.973" height="81.576" viewBox="0 0 78.973 81.576">
  <g id="Group_3014" data-name="Group 3014" transform="translate(-703.11 -384.7)" opacity="0.3">
    <path id="Path_11655" data-name="Path 11655" d="M735.623,392.192c-7.993,16.933-8.434,38.041-5.073,58.6.859,5.249,2.681,11.5,7.428,13.852a9.231,9.231,0,0,0,6.56.493c7.68-2.086,11.2-10.7,12.878-18.964,3.578-17.59,1.765-38.408-9.564-54.94-1.659-2.42-3.743-4.891-6.349-5.6-3.42-.93-6.211,1.492-8.464,3.771" transform="translate(1.71)" fill="none" stroke="#ff723a" stroke-miterlimit="10" stroke-width="1.5"/>
    <path id="Path_11656" data-name="Path 11656" d="M708.628,419.705c16.063,16.53,38.43,25.655,58.361,23.808,3.445-.32,6.886-.973,9.659-2.792A10.059,10.059,0,0,0,781.326,432c-.2-5.756-5.181-10.934-10.152-14.281-11.156-7.513-24-10.142-36.224-10.993-8.5-.591-17.109-.374-24.446,2.837a11.986,11.986,0,0,0-5.272,3.887,7.365,7.365,0,0,0-.768,6.92" transform="translate(0 1.461)" fill="none" stroke="#ff723a" stroke-miterlimit="10" stroke-width="1.5"/>
    <path id="Path_11657" data-name="Path 11657" d="M710.345,446.781C720.9,432.23,731.759,417.9,744.023,405c6.06-6.373,12.535-12.442,20.314-16.5,3.125-1.632,7.378-2.741,10.479.092,3.161,2.887,2.841,7.8,1.639,11.4-1.935,5.781-5.21,10.743-8.573,15.544-11.759,16.783-25.35,32.636-43.574,41.443-3.925,1.9-8.956,3.312-13.063.232a4.891,4.891,0,0,1-1.839-2.364,4.727,4.727,0,0,1,.6-3.417,67.237,67.237,0,0,1,6.533-10.885" transform="translate(0.371 0.099)" fill="none" stroke="#ff723a" stroke-miterlimit="10" stroke-width="1.5"/>
    <path id="Path_11658" data-name="Path 11658" d="M740.354,420.48c-1.144.975-1.151,3.128-.041,4.56a3.532,3.532,0,0,0,4.4,1.14,3.478,3.478,0,0,0,.851-4.4,3.217,3.217,0,0,0-1.425-1.529,2.868,2.868,0,0,0-1.322-.224,5.344,5.344,0,0,0-4.313,2.344" transform="translate(2.4 2.402)" fill="none" stroke="#ff723a" stroke-miterlimit="10" stroke-width="1.5"/>
    <path id="Path_11659" data-name="Path 11659" d="M704.474,419.072a4.022,4.022,0,0,0,2.711,4.422,2.612,2.612,0,0,0,3.182-2.913c-.211-1.864-2.206-3.587-3.888-3.357s-2.6,2.346-1.785,4.13" transform="translate(0.032 2.206)" fill="none" stroke="#ff723a" stroke-miterlimit="10" stroke-width="1.5"/>
    <path id="Path_11660" data-name="Path 11660" d="M720.666,451.824a4.069,4.069,0,0,0,.825,3.735,3.8,3.8,0,0,0,3.451,1.421,2.36,2.36,0,0,0,1.921-2.391,2.83,2.83,0,0,0-2.27-2.632,1.6,1.6,0,0,0-1.315,2.456" transform="translate(1.15 4.609)" fill="none" stroke="#ff723a" stroke-miterlimit="10" stroke-width="1.5"/>
    <path id="Path_11661" data-name="Path 11661" d="M768.933,402.761c-1.555,1.769-.391,5.021,1.065,7.431.69,1.143,1.648,2.393,2.834,2.5a1.992,1.992,0,0,0,1.986-1.624,7.962,7.962,0,0,0-.009-3.044,5.618,5.618,0,0,0-1.46-3.666,2.917,2.917,0,0,0-2.9-.487,6.652,6.652,0,0,0-2.26,1.677" transform="translate(4.461 1.203)" fill="none" stroke="#ff723a" stroke-miterlimit="10" stroke-width="1.5"/>
    <path id="Path_11662" data-name="Path 11662" d="M734.251,387.9a2.2,2.2,0,0,0-1.912,1.915,6.61,6.61,0,0,0,.371,3.205c.578,1.8,2.046,3.907,3.689,3.669,1.076-.156,1.636-1.3,1.815-2.429a8.833,8.833,0,0,0-.762-4.991,2.839,2.839,0,0,0-1.41-1.586,1.664,1.664,0,0,0-1.326.171c-2.081,1.1-2.437,4.03-2.6,6.626" transform="translate(1.956 0.152)" fill="none" stroke="#ff723a" stroke-miterlimit="10" stroke-width="1.5"/>
    <path id="Path_11663" data-name="Path 11663" d="M749.328,449.683a8.437,8.437,0,0,0,5.449,8.128c1.652.525,3.589.182,4.137-1.355a4.755,4.755,0,0,0,.008-2.439,10.032,10.032,0,0,0-1.846-4.356,4.9,4.9,0,0,0-3.922-2.055,3.321,3.321,0,0,0-2.792,2.806,8.451,8.451,0,0,0,.623,4.653" transform="translate(3.149 4.315)" fill="none" stroke="#ff723a" stroke-miterlimit="10" stroke-width="1.5"/>
  </g>
</svg>
