<svg xmlns="http://www.w3.org/2000/svg" width="72.343" height="62.676" viewBox="0 0 72.343 62.676">
  <g id="Group_3062" data-name="Group 3062" transform="translate(162.866 -1023.76) rotate(-45)" opacity="0.3">
    <g id="Group_2999" data-name="Group 2999" transform="translate(-851.738 619.35)">
      <path id="Path_11535" data-name="Path 11535" d="M561,243.188l7.247,48.246" transform="translate(-555.41 -231.18)" fill="none" stroke="#ff723a" stroke-miterlimit="10" stroke-width="1.5"/>
      <path id="Path_11536" data-name="Path 11536" d="M570.461,241.659q4.036,23.179,8.07,46.357" transform="translate(-552.897 -231.586)" fill="none" stroke="#ff723a" stroke-miterlimit="10" stroke-width="1.5"/>
      <path id="Path_11537" data-name="Path 11537" d="M558.493,244.637a2.223,2.223,0,0,0-1.077,1.276,165.716,165.716,0,0,0,18.062-2.523,15.212,15.212,0,0,0,3.961-1.177q-.788-2.375-1.574-4.748l-19.977,2.087a1.519,1.519,0,0,0-.987.351,1.412,1.412,0,0,0-.287.862,9.547,9.547,0,0,0,1.271,5.583" transform="translate(-556.582 -232.699)" fill="none" stroke="#ff723a" stroke-miterlimit="10" stroke-width="1.5"/>
      <path id="Path_11538" data-name="Path 11538" d="M560.028,239.467q-.224-2.006-.451-4.012a4.874,4.874,0,0,0,3.49-.053,64.175,64.175,0,0,1,9.414-1.7q.241,2.5.482,5" transform="translate(-555.786 -233.699)" fill="none" stroke="#ff723a" stroke-miterlimit="10" stroke-width="1.5"/>
      <path id="Path_11539" data-name="Path 11539" d="M574.835,239.392l1.825-.688a.618.618,0,0,1,1.018.53c1.608,10.186,1.815,20.534,2.018,30.843a3.363,3.363,0,0,1-2.451.525l-1.014-7.8a2.447,2.447,0,0,0,2.01-.687" transform="translate(-551.736 -232.4)" fill="none" stroke="#ff723a" stroke-miterlimit="10" stroke-width="1.5"/>
      <path id="Path_11540" data-name="Path 11540" d="M566.648,282.844a10.636,10.636,0,0,0,9.557,2.094c1.336-.371,2.737-1.181,3.041-2.533.343-1.534-.866-3.09-.558-4.632" transform="translate(-553.909 -221.998)" fill="none" stroke="#ff723a" stroke-miterlimit="10" stroke-width="1.5"/>
      <path id="Path_11541" data-name="Path 11541" d="M566.654,283.577a56.809,56.809,0,0,0,9.223,13.963,1.152,1.152,0,0,0,.534.4c.6.152.979-.628,1.1-1.238q1.627-8.06,2.589-16.235" transform="translate(-553.908 -221.283)" fill="none" stroke="#ff723a" stroke-miterlimit="10" stroke-width="1.5"/>
    </g>
    <path id="Path_11787" data-name="Path 11787" d="M557.911,256.5q1.619,7.375,3.238,14.75" transform="translate(-1407.967 391.705)" fill="none" stroke="#ff723a" stroke-miterlimit="10" stroke-width="1.5"/>
    <path id="Path_11788" data-name="Path 11788" d="M562.193,277.537a16.331,16.331,0,0,0,.72,4.677" transform="translate(-1406.83 397.289)" fill="none" stroke="#ff723a" stroke-miterlimit="10" stroke-width="1.5"/>
    <path id="Path_11861" data-name="Path 11861" d="M564.446,244.226l-.923,6.748" transform="translate(-1406.477 388.446)" fill="none" stroke="#ff723a" stroke-miterlimit="10" stroke-width="1.5"/>
    <path id="Path_11862" data-name="Path 11862" d="M569.229,242.492a164.694,164.694,0,0,0-4.7,19.687" transform="translate(-1406.209 387.985)" fill="none" stroke="#ff723a" stroke-miterlimit="10" stroke-width="1.5"/>
    <path id="Path_11863" data-name="Path 11863" d="M570.645,245.2a104.529,104.529,0,0,1-3.528,19" transform="translate(-1405.523 388.705)" fill="none" stroke="#ff723a" stroke-miterlimit="10" stroke-width="1.5"/>
    <path id="Path_11864" data-name="Path 11864" d="M572.3,251.5l-.306,3.68" transform="translate(-1404.228 390.376)" fill="none" stroke="#ff723a" stroke-miterlimit="10" stroke-width="1.5"/>
  </g>
</svg>
