<svg xmlns="http://www.w3.org/2000/svg" width="277.573" height="224.084" viewBox="0 0 277.573 224.084">
  <g id="Group_3060" data-name="Group 3060" transform="translate(-86.882 -319.759)" opacity="0.3">
    <g id="Group_3054" data-name="Group 3054" transform="translate(55.681 331.212)">
      <path id="Path_11733" data-name="Path 11733" d="M231.36,69.81l18.9,3.745" fill="none" stroke="#ff723a" stroke-miterlimit="10" stroke-width="1.5"/>
      <path id="Path_11734" data-name="Path 11734" d="M250.787,73.345l42.24-18.96L260.175,78.976" fill="none" stroke="#ff723a" stroke-miterlimit="10" stroke-width="1.5"/>
      <path id="Path_11735" data-name="Path 11735" d="M230.677,67.9q37.732-11.635,75.9-21.8" fill="none" stroke="#ff723a" stroke-miterlimit="10" stroke-width="1.5"/>
      <path id="Path_11736" data-name="Path 11736" d="M260.14,79.6q10.71-.351,21.427.045" fill="none" stroke="#ff723a" stroke-miterlimit="10" stroke-width="1.5"/>
      <path id="Path_11737" data-name="Path 11737" d="M308.168,46.243a398.65,398.65,0,0,1-28.929,35.311" fill="none" stroke="#ff723a" stroke-miterlimit="10" stroke-width="1.5"/>
      <path id="Path_11738" data-name="Path 11738" d="M248.886,74.88a163.5,163.5,0,0,1,.725,19.657" fill="none" stroke="#ff723a" stroke-miterlimit="10" stroke-width="1.5"/>
      <path id="Path_11739" data-name="Path 11739" d="M259.263,79.065q-4.458,7.887-8.917,15.775" fill="none" stroke="#ff723a" stroke-miterlimit="10" stroke-width="1.5"/>
      <path id="Path_11740" data-name="Path 11740" d="M250.76,94.776q8.526-8.037,17.732-15.308" fill="none" stroke="#ff723a" stroke-miterlimit="10" stroke-width="1.5"/>
    </g>
    <path id="Path_12168" data-name="Path 12168" d="M240.119,96.619c-9.767,14.025-7.926,32.669-10.025,49.631-3.328,26.9-19.71,53.554-45.312,62.447-20.45,7.1-44.092,1.734-61.273-11.437S95.308,163.928,90.6,142.8c-2-8.986-2.941-18.32-1.51-27.415C92.348,94.678,107.74,77.411,126,67.119c4.073-2.3,8.457-4.345,13.128-4.541s9.695,1.849,11.849,6c2.487,4.788.393,10.967-3.571,14.628s-9.359,5.3-14.63,6.454c-28.473,6.213-60.612.084-81.341-20.4S24.905,13.063,42.184-10.4" transform="translate(55.681 331.212)" fill="none" stroke="#ff723a" stroke-linecap="round" stroke-miterlimit="10" stroke-width="1.5" stroke-dasharray="9.738"/>
  </g>
</svg>
