<svg xmlns="http://www.w3.org/2000/svg" width="58.614" height="68.634" viewBox="0 0 58.614 68.634">
  <g id="Group_3006" data-name="Group 3006" transform="translate(-19.278 -289.556)">
    <path id="Path_11588" data-name="Path 11588" d="M20.3,312.831,46.908,356.69c.2.323.437.678.809.742a1.352,1.352,0,0,0,.95-.35q13.667-9.621,27.249-19.36a1.907,1.907,0,0,0,.546-3.256,543.715,543.715,0,0,0-34.712-43.9L24.56,303.179a6.864,6.864,0,0,0-2.25,2.273,6.85,6.85,0,0,0-.533,2.645l-.444,6.674" fill="none" stroke="#ff723a" stroke-miterlimit="10" stroke-width="1.5"/>
    <path id="Path_11589" data-name="Path 11589" d="M22.508,304.861a54.351,54.351,0,0,1,9.883,9.167,49.917,49.917,0,0,0-12.979.633" fill="none" stroke="#ff723a" stroke-miterlimit="10" stroke-width="1.5"/>
    <path id="Path_11590" data-name="Path 11590" d="M33.726,307.223l7.116-4.281" fill="none" stroke="#ff723a" stroke-miterlimit="10" stroke-width="1.5"/>
    <path id="Path_11591" data-name="Path 11591" d="M34.271,320l13.56-9.253" fill="none" stroke="#ff723a" stroke-miterlimit="10" stroke-width="1.5"/>
    <path id="Path_11592" data-name="Path 11592" d="M40.369,321.388a33.977,33.977,0,0,0,7.4-5.375" fill="none" stroke="#ff723a" stroke-miterlimit="10" stroke-width="1.5"/>
    <path id="Path_11593" data-name="Path 11593" d="M43.566,334.119a72.691,72.691,0,0,1,15.11-10.177" fill="none" stroke="#ff723a" stroke-miterlimit="10" stroke-width="1.5"/>
    <path id="Path_11594" data-name="Path 11594" d="M50.754,334.269l7.706-5.929" fill="none" stroke="#ff723a" stroke-miterlimit="10" stroke-width="1.5"/>
    <path id="Path_11595" data-name="Path 11595" d="M52.608,337.636l7.822-5.711" fill="none" stroke="#ff723a" stroke-miterlimit="10" stroke-width="1.5"/>
  </g>
</svg>
