<svg xmlns="http://www.w3.org/2000/svg" width="58.901" height="64.349" viewBox="0 0 58.901 64.349">
  <g id="Group_3008" data-name="Group 3008" transform="translate(-321.615 -83.859)">
    <path id="Path_11604" data-name="Path 11604" d="M350.064,86.1,322.692,129.49a1.013,1.013,0,0,0,.435,1.748q14.707,7.937,29.486,15.744a1.907,1.907,0,0,0,3.157-.965,543.49,543.49,0,0,0,23.792-50.656L360.6,85.608a5.146,5.146,0,0,0-5.643-.3l-6.171,2.582" fill="none" stroke="#ff723a" stroke-miterlimit="10" stroke-width="1.5"/>
    <path id="Path_11605" data-name="Path 11605" d="M358.182,84.522a54.37,54.37,0,0,1-3.792,12.935,49.927,49.927,0,0,0-6.36-11.332" fill="none" stroke="#ff723a" stroke-miterlimit="10" stroke-width="1.5"/>
    <path id="Path_11606" data-name="Path 11606" d="M361.076,95.615l7.007,4.457" fill="none" stroke="#ff723a" stroke-miterlimit="10" stroke-width="1.5"/>
    <path id="Path_11607" data-name="Path 11607" d="M349.888,101.8l14.333,8" fill="none" stroke="#ff723a" stroke-miterlimit="10" stroke-width="1.5"/>
    <path id="Path_11608" data-name="Path 11608" d="M351.365,107.882a34,34,0,0,0,8.111,4.221" fill="none" stroke="#ff723a" stroke-miterlimit="10" stroke-width="1.5"/>
    <path id="Path_11609" data-name="Path 11609" d="M341.4,116.425A72.57,72.57,0,0,1,357.25,125.4" fill="none" stroke="#ff723a" stroke-miterlimit="10" stroke-width="1.5"/>
    <path id="Path_11610" data-name="Path 11610" d="M344.473,122.924l8.745,4.25" fill="none" stroke="#ff723a" stroke-miterlimit="10" stroke-width="1.5"/>
    <path id="Path_11611" data-name="Path 11611" d="M342.287,126.086l8.6,4.45" fill="none" stroke="#ff723a" stroke-miterlimit="10" stroke-width="1.5"/>
  </g>
</svg>
