<svg id="_3d" data-name="3d" xmlns="http://www.w3.org/2000/svg" width="50.552" height="50.552" viewBox="0 0 50.552 50.552">
  <g id="Group_3081" data-name="Group 3081" transform="translate(5.924 2.962)">
    <path id="Path_12198" data-name="Path 12198" d="M71.652,41.355a1.481,1.481,0,0,1-1.329-.825l-3.739-7.568h-5.1a1.481,1.481,0,0,1,0-2.962H67.5a1.481,1.481,0,0,1,1.328.825l4.147,8.392a1.482,1.482,0,0,1-1.327,2.137Z" transform="translate(-60 -30)" fill="#fff"/>
    <path id="Path_12199" data-name="Path 12199" d="M320.477,41.355a1.482,1.482,0,0,1-1.327-2.138l4.147-8.392A1.481,1.481,0,0,1,324.625,30h6.023a1.481,1.481,0,0,1,0,2.962h-5.1l-3.739,7.568A1.481,1.481,0,0,1,320.477,41.355Z" transform="translate(-293.425 -30)" fill="#fff"/>
    <path id="Path_12200" data-name="Path 12200" d="M67.5,379.253H61.481a1.481,1.481,0,1,1,0-2.962h5.107l3.738-7.475a1.481,1.481,0,1,1,2.649,1.325l-4.147,8.294A1.481,1.481,0,0,1,67.5,379.253Z" transform="translate(-60 -334.625)" fill="#fff"/>
    <path id="Path_12201" data-name="Path 12201" d="M330.647,379.252h-6.023a1.481,1.481,0,0,1-1.325-.819l-4.147-8.294a1.481,1.481,0,1,1,2.649-1.325l3.738,7.475h5.107a1.481,1.481,0,0,1,0,2.962Z" transform="translate(-293.424 -334.624)" fill="#fff"/>
  </g>
  <path id="Path_12202" data-name="Path 12202" d="M123.578,83.986a1.5,1.5,0,0,0-.812-1.321l-14.81-7.5a1.481,1.481,0,0,0-1.339,0l-14.81,7.5A1.5,1.5,0,0,0,91,83.988c0,.052,0,.1,0,.155v17.505c0,.066,0,.131,0,.2a1.507,1.507,0,0,0,.625,1.218c.185.132,14.577,7.31,14.875,7.459.043.021.085.044.129.064a1.525,1.525,0,0,0,1.332,0c.19-.091,14.5-7.248,14.746-7.373a1.532,1.532,0,0,0,.875-1.385C123.58,101.588,123.578,84.134,123.578,83.986Zm-2.962,16.956-11.848,5.924V92.306l11.848-5.924Zm-13.329-22.8L118.8,83.977l-11.516,5.758L95.771,83.977Zm-1.481,14.164v14.559l-11.848-5.924V86.382Z" transform="translate(-82.011 -67.596)" fill="#fff"/>
  <g id="Group_3082" data-name="Group 3082">
    <path id="Path_12203" data-name="Path 12203" d="M4.443,430.886a4.443,4.443,0,1,1,4.443-4.443A4.448,4.448,0,0,1,4.443,430.886Zm0-5.924a1.481,1.481,0,1,0,1.481,1.481A1.483,1.483,0,0,0,4.443,424.962Z" transform="translate(0 -380.334)" fill="#fff"/>
    <path id="Path_12204" data-name="Path 12204" d="M426.443,430.886a4.443,4.443,0,1,1,4.443-4.443A4.448,4.448,0,0,1,426.443,430.886Zm0-5.924a1.481,1.481,0,1,0,1.481,1.481A1.483,1.483,0,0,0,426.443,424.962Z" transform="translate(-380.334 -380.334)" fill="#fff"/>
    <path id="Path_12205" data-name="Path 12205" d="M426.443,8.886a4.443,4.443,0,1,1,4.443-4.443A4.448,4.448,0,0,1,426.443,8.886Zm0-5.924a1.481,1.481,0,1,0,1.481,1.481A1.483,1.483,0,0,0,426.443,2.962Z" transform="translate(-380.334)" fill="#fff"/>
    <path id="Path_12206" data-name="Path 12206" d="M4.443,8.886A4.443,4.443,0,1,1,8.886,4.443,4.448,4.448,0,0,1,4.443,8.886Zm0-5.924A1.481,1.481,0,1,0,5.924,4.443,1.483,1.483,0,0,0,4.443,2.962Z" fill="#fff"/>
  </g>
</svg>
