<svg xmlns="http://www.w3.org/2000/svg" width="27.003" height="15.753" viewBox="0 0 27.003 15.753">
  <g id="arrow-right" transform="translate(-4.5 -10.124)">
    <path id="Path_589" data-name="Path 589" d="M22.829,10.454a1.125,1.125,0,0,1,1.593,0l6.75,6.75a1.125,1.125,0,0,1,0,1.593l-6.75,6.75a1.126,1.126,0,1,1-1.593-1.593L28.784,18l-5.956-5.954a1.125,1.125,0,0,1,0-1.593Z" fill="#1b212f" fill-rule="evenodd"/>
    <path id="Path_590" data-name="Path 590" d="M4.5,18a1.125,1.125,0,0,1,1.125-1.125H29.25a1.125,1.125,0,0,1,0,2.25H5.625A1.125,1.125,0,0,1,4.5,18Z" fill="#1b212f" fill-rule="evenodd"/>
  </g>
</svg>
