<svg xmlns="http://www.w3.org/2000/svg" width="26.063" height="28.228" viewBox="0 0 26.063 28.228">
  <g id="avatar-outline-alerted" transform="translate(-5 -0.506)">
    <path id="Path_600" data-name="Path 600" d="M27.126,23.665a14.907,14.907,0,0,0-21.657,0A1.737,1.737,0,0,0,5,24.856v4.569a1.737,1.737,0,0,0,1.737,1.737H25.849a1.737,1.737,0,0,0,1.737-1.737V24.856A1.737,1.737,0,0,0,27.126,23.665Zm-1.277,5.759H6.737V24.847a13.178,13.178,0,0,1,19.111,0Z" transform="translate(0 -2.429)" fill="#fff"/>
    <path id="Path_601" data-name="Path 601" d="M17.083,15.162a6.081,6.081,0,0,0,3.866-1.39h-.191a3.2,3.2,0,0,1-1.937-.695A4.344,4.344,0,1,1,19.9,5.762l.869-1.529a6.081,6.081,0,1,0-3.683,10.928Z" transform="translate(-0.789 -0.327)" fill="#fff"/>
    <path id="Path_602" data-name="Path 602" d="M26.07,1.057,21.1,9.622a1.112,1.112,0,0,0,.956,1.737H32a1.112,1.112,0,0,0,.956-1.737L27.99,1.057a1.112,1.112,0,0,0-1.92,0Z" transform="translate(-2.089 0)" fill="#fff"/>
  </g>
</svg>
