<svg xmlns="http://www.w3.org/2000/svg" width="18.16" height="18.16" viewBox="0 0 18.16 18.16">
  <g id="bar-chart" transform="translate(-2.25 -2.25)">
    <path id="Path_596" data-name="Path 596" d="M6.141,15.222H3.547v3.891H6.141Zm6.486-5.189H10.033v9.08h2.594Zm6.486-6.486H16.519V19.113h2.594Zm-2.594-1.3a1.3,1.3,0,0,0-1.3,1.3V19.113a1.3,1.3,0,0,0,1.3,1.3h2.594a1.3,1.3,0,0,0,1.3-1.3V3.547a1.3,1.3,0,0,0-1.3-1.3ZM8.736,10.033a1.3,1.3,0,0,1,1.3-1.3h2.594a1.3,1.3,0,0,1,1.3,1.3v9.08a1.3,1.3,0,0,1-1.3,1.3H10.033a1.3,1.3,0,0,1-1.3-1.3ZM2.25,15.222a1.3,1.3,0,0,1,1.3-1.3H6.141a1.3,1.3,0,0,1,1.3,1.3v3.891a1.3,1.3,0,0,1-1.3,1.3H3.547a1.3,1.3,0,0,1-1.3-1.3Z" transform="translate(0 0)" fill="#2878eb" fill-rule="evenodd"/>
  </g>
</svg>
