<svg xmlns="http://www.w3.org/2000/svg" width="25.097" height="22.125" viewBox="0 0 25.097 22.125">
  <g id="certificate-line" transform="translate(-2 -6)">
    <path id="Path_12295" data-name="Path 12295" d="M25.528,6H3.569A1.569,1.569,0,0,0,2,7.569V23.254a1.569,1.569,0,0,0,1.569,1.569H15.333l.447-.549.729-.894-.071-.125H3.569V7.569h21.96v6.713A6.6,6.6,0,0,1,27.1,15.7V7.569A1.569,1.569,0,0,0,25.528,6Z" fill="#ff723a"/>
    <path id="Path_12296" data-name="Path 12296" d="M7,12H20.333v1.255H7Z" transform="translate(-1.079 -1.294)" fill="#ff723a"/>
    <path id="Path_12297" data-name="Path 12297" d="M7,16h8.627v1.255H7Z" transform="translate(-1.079 -2.157)" fill="#ff723a"/>
    <path id="Path_12298" data-name="Path 12298" d="M7,23h7.843v1.255H7Z" transform="translate(-1.079 -3.667)" fill="#ff723a"/>
    <path id="Path_12299" data-name="Path 12299" d="M26.077,17.23a4.988,4.988,0,0,0-3.451,8.627L21.1,27.716l.706,2.831,2.87-3.5a4.91,4.91,0,0,0,2.784,0l2.87,3.5.706-2.831L29.52,25.857a4.988,4.988,0,0,0-3.451-8.627Zm0,8.376a3.38,3.38,0,1,1,3.427-3.38A3.38,3.38,0,0,1,26.077,25.606Z" transform="translate(-4.109 -2.423)" fill="#ff723a"/>
  </g>
</svg>
