<svg xmlns="http://www.w3.org/2000/svg" width="80.6" height="80.215" viewBox="0 0 80.6 80.215">
  <g id="chart" transform="translate(0 -1.223)">
    <path id="Path_11509" data-name="Path 11509" d="M10.32,66.528q-.087,0-.174-.006A2.628,2.628,0,0,1,8.232,65.5,39.771,39.771,0,0,1,0,41.139,40.33,40.33,0,0,1,34.682,1.249a2.629,2.629,0,0,1,2.99,2.6V19.867a2.628,2.628,0,0,1-2,2.551A19.259,19.259,0,0,0,23.878,51.2a2.628,2.628,0,0,1-.38,3.237L12.179,65.758A2.63,2.63,0,0,1,10.32,66.528ZM32.415,7.006A35.167,35.167,0,0,0,5.256,41.139a34.535,34.535,0,0,0,5.42,18.688l7.7-7.7a24.476,24.476,0,0,1,2.7-26.219,24.751,24.751,0,0,1,11.334-8Z" transform="translate(0 -0.001)" fill="#8e66ff"/>
    <path id="Path_11510" data-name="Path 11510" d="M121.421,381.356a39.88,39.88,0,0,1-24.091-8.024,2.628,2.628,0,0,1-.284-3.96l11.337-11.354a2.628,2.628,0,0,1,3.21-.4,19.218,19.218,0,0,0,19.785-.062,2.628,2.628,0,0,1,3.221.389l11.319,11.319a2.628,2.628,0,0,1-.27,3.953A39.777,39.777,0,0,1,121.421,381.356ZM103,370.849a34.921,34.921,0,0,0,36.978-.09l-7.7-7.7a24.493,24.493,0,0,1-21.557.063Z" transform="translate(-81.121 -299.919)" fill="#ff723a"/>
    <path id="Path_11511" data-name="Path 11511" d="M300.134,66.4a2.628,2.628,0,0,1-1.858-.77L286.957,54.315a2.628,2.628,0,0,1-.389-3.221,19.279,19.279,0,0,0-11.876-28.677,2.628,2.628,0,0,1-2-2.551V3.851a2.628,2.628,0,0,1,2.99-2.6,40.33,40.33,0,0,1,34.682,39.89,39.775,39.775,0,0,1-8.139,24.226,2.628,2.628,0,0,1-1.915,1.034C300.253,66.4,300.194,66.4,300.134,66.4Zm-8.068-14.413,7.7,7.7a34.536,34.536,0,0,0,5.341-18.556A35.168,35.168,0,0,0,277.951,7V17.9a24.75,24.75,0,0,1,11.334,8,24.515,24.515,0,0,1,2.781,26.087Z" transform="translate(-229.767 0)" fill="#f14d5d"/>
    <path id="Path_11512" data-name="Path 11512" d="M215.328,154.168c-2.045-1.465-4.159-2.979-4.159-4.434a2.628,2.628,0,0,1,5.257,0,2.628,2.628,0,0,0,5.257,0,7.9,7.9,0,0,0-5.256-7.433v-1.766a2.628,2.628,0,0,0-5.257,0V142.3a7.9,7.9,0,0,0-5.256,7.433c0,4.155,3.523,6.679,6.354,8.707,2.045,1.465,4.159,2.98,4.159,4.434a2.628,2.628,0,0,1-5.257,0,2.628,2.628,0,1,0-5.257,0,7.9,7.9,0,0,0,5.256,7.433v1.766a2.628,2.628,0,1,0,5.257,0v-1.766a7.9,7.9,0,0,0,5.256-7.433C221.682,158.72,218.159,156.2,215.328,154.168Z" transform="translate(-173.498 -115.167)" fill="#ff723a"/>
  </g>
</svg>
