<svg id="code" xmlns="http://www.w3.org/2000/svg" width="56.889" height="50" viewBox="0 0 56.889 50">
  <path id="Path_11520" data-name="Path 11520" d="M55.222,123.333H1.667a1.667,1.667,0,0,1,0-3.333H55.222a1.667,1.667,0,1,1,0,3.333Zm0,0" transform="translate(0 -106.667)" fill="#f14d5d"/>
  <path id="Path_11521" data-name="Path 11521" d="M51.889,50H5a5.006,5.006,0,0,1-5-5V5A5.006,5.006,0,0,1,5,0H51.889a5.006,5.006,0,0,1,5,5V45A5.006,5.006,0,0,1,51.889,50ZM5,3.333A1.669,1.669,0,0,0,3.333,5V45A1.669,1.669,0,0,0,5,46.667H51.889A1.669,1.669,0,0,0,53.556,45V5a1.669,1.669,0,0,0-1.667-1.667Zm0,0" transform="translate(0 0)" fill="#ff723a"/>
  <g id="Group_2994" data-name="Group 2994" transform="translate(10.111 20)">
    <path id="Path_11522" data-name="Path 11522" d="M99.333,226.667a1.66,1.66,0,0,1-1.178-.488l-6.667-6.667a1.666,1.666,0,0,1,0-2.357l6.667-6.667a1.666,1.666,0,0,1,2.357,2.357l-5.488,5.488,5.488,5.488a1.667,1.667,0,0,1-1.178,2.845Zm0,0" transform="translate(-91 -206.666)" fill="#8e66ff"/>
    <path id="Path_11523" data-name="Path 11523" d="M332.667,226.667a1.667,1.667,0,0,1-1.178-2.845l5.488-5.488-5.488-5.488a1.666,1.666,0,0,1,2.357-2.357l6.667,6.667a1.666,1.666,0,0,1,0,2.357l-6.667,6.667a1.66,1.66,0,0,1-1.178.488Zm0,0" transform="translate(-304.333 -206.666)" fill="#8e66ff"/>
    <path id="Path_11524" data-name="Path 11524" d="M212.664,203.331a1.668,1.668,0,0,1-1.582-2.194l6.667-20a1.667,1.667,0,1,1,3.162,1.054l-6.667,20A1.667,1.667,0,0,1,212.664,203.331Zm0,0" transform="translate(-197.664 -179.997)" fill="#8e66ff"/>
  </g>
  <path id="Path_11525" data-name="Path 11525" d="M216,63.333h-3.333a1.667,1.667,0,0,1,0-3.333H216a1.667,1.667,0,0,1,0,3.333Zm0,0" transform="translate(-187.556 -53.333)" fill="#ff723a"/>
  <path id="Path_11526" data-name="Path 11526" d="M306,63.333h-3.333a1.667,1.667,0,1,1,0-3.333H306a1.667,1.667,0,0,1,0,3.333Zm0,0" transform="translate(-267.556 -53.333)" fill="#f14d5d"/>
  <path id="Path_11527" data-name="Path 11527" d="M396,63.333h-3.333a1.667,1.667,0,0,1,0-3.333H396a1.667,1.667,0,0,1,0,3.333Zm0,0" transform="translate(-347.556 -53.333)" fill="#ff723a"/>
</svg>
