<svg xmlns="http://www.w3.org/2000/svg" width="50.247" height="50.247" viewBox="0 0 50.247 50.247">
  <g id="cube" transform="translate(0 -0.001)">
    <path id="Path_11517" data-name="Path 11517" d="M267.595,218.329c0-.015,0-.029,0-.044,0-.039,0-.079-.01-.117l0-.02c0-.036-.012-.071-.02-.106l-.007-.031c-.01-.04-.021-.08-.034-.119l-.005-.014c-.012-.035-.026-.07-.041-.1l-.013-.029c-.017-.036-.035-.072-.054-.107l-.015-.025c-.016-.028-.033-.054-.051-.081l-.023-.033q-.033-.046-.07-.09l-.028-.031c-.02-.022-.039-.043-.06-.064l-.03-.029c-.028-.026-.058-.052-.089-.076l-.031-.024c-.028-.021-.057-.041-.087-.061l-.02-.013,0,0c-.036-.022-.072-.042-.11-.061l-.012-.007L254.9,211.151a1.472,1.472,0,1,0-1.308,2.637l9.215,4.57-8.558,4.244-11.121-5.56A1.472,1.472,0,0,0,241,218.358v14.721a1.472,1.472,0,0,0,.805,1.312l11.776,5.986.012.005a1.493,1.493,0,0,0,.14.061l.014.005a1.5,1.5,0,0,0,.146.044l.028.007a1.465,1.465,0,0,0,.146.026l.026,0a1.476,1.476,0,0,0,.154.009h0a1.46,1.46,0,0,0,.153-.009l.027,0a1.457,1.457,0,0,0,.145-.025l.028-.007a1.514,1.514,0,0,0,.146-.044l.013,0q.07-.026.138-.06l.013-.005,11.875-5.986a1.472,1.472,0,0,0,.81-1.314V218.358c0-.01,0-.02,0-.03Zm-23.65,2.412,8.832,4.416v11.509l-8.832-4.49Zm20.707,11.432-8.931,4.5V225.159l8.931-4.428Zm0,0" transform="translate(-217.349 -190.29)" fill="#fff"/>
    <path id="Path_11518" data-name="Path 11518" d="M26.592,218.261c0-.012,0-.023,0-.034s0-.043-.007-.064,0-.027-.007-.04-.006-.038-.01-.057l-.01-.042c0-.018-.008-.036-.013-.053s-.008-.028-.012-.042-.011-.035-.017-.051-.01-.028-.015-.041-.013-.033-.02-.049l-.018-.04-.024-.049-.02-.038-.028-.048-.021-.036-.032-.048-.023-.033c-.012-.016-.025-.033-.037-.048l-.022-.028-.049-.055-.016-.018c-.022-.023-.045-.046-.069-.068l-.026-.022c-.016-.014-.032-.028-.049-.042l-.033-.026-.046-.034-.036-.024-.034-.023-.013-.007-.038-.021-.05-.028-.015-.008-11.776-5.888a1.473,1.473,0,0,0-1.313,0L.818,217.042l-.017.009-.051.028-.037.021-.016.01-.031.021-.036.024-.046.034-.033.025-.047.04-.027.024c-.02.018-.038.037-.057.056l-.013.013c-.023.023-.044.048-.065.073l-.016.021c-.015.018-.029.037-.043.056l-.021.03c-.012.017-.023.034-.034.051l-.02.034c-.01.016-.02.033-.028.05l-.019.037c-.008.016-.016.033-.024.05s-.012.026-.017.039-.014.033-.02.05-.01.027-.015.041-.012.035-.017.052-.008.028-.012.042-.009.036-.013.054-.007.028-.01.041-.007.038-.01.057,0,.027-.007.04,0,.043-.007.065,0,.022,0,.033c0,.033,0,.067,0,.1v14.721A1.472,1.472,0,0,0,.81,234.4l11.875,5.986.013.006a1.448,1.448,0,0,0,.138.059l.012.005c.048.017.1.031.146.044l.028.007a1.465,1.465,0,0,0,.146.026l.026,0a1.464,1.464,0,0,0,.153.009h0a1.488,1.488,0,0,0,.154-.009l.026,0a1.47,1.47,0,0,0,.147-.026l.028-.007a1.415,1.415,0,0,0,.146-.044l.015-.006c.046-.018.092-.038.138-.06l.013-.006,11.776-5.986a1.471,1.471,0,0,0,.805-1.312V218.36C26.6,218.327,26.594,218.294,26.592,218.261Zm-13.248-4.144,8.488,4.244L13.344,222.6,4.786,218.36Zm-10.4,6.617,8.93,4.428v11.515l-8.93-4.5Zm20.707,11.444-8.832,4.49V225.159l8.832-4.416Zm0,0" transform="translate(0 -190.292)" fill="#fff"/>
    <path id="Path_11519" data-name="Path 11519" d="M147.494,7.262c0-.011,0-.022,0-.033s0-.044-.007-.065,0-.026-.007-.04-.006-.038-.01-.057-.006-.028-.01-.041-.008-.036-.013-.054l-.012-.041c-.005-.017-.011-.035-.017-.052s-.01-.027-.015-.041-.013-.034-.02-.05l-.017-.039-.024-.049-.019-.037c-.009-.016-.018-.033-.028-.049l-.021-.035-.033-.049-.021-.031-.039-.051-.02-.026-.052-.059-.013-.014c-.022-.023-.045-.046-.069-.068L147,6.259l-.051-.044-.032-.025-.047-.035-.036-.024-.035-.023-.013-.007-.038-.021-.051-.028-.015-.008L134.907.157a1.47,1.47,0,0,0-1.316,0L121.814,6.045l-.015.008-.051.028-.038.021-.013.007-.035.023-.036.024-.046.035-.033.025-.049.043-.025.021q-.036.033-.069.068l-.015.017c-.017.018-.034.037-.05.056l-.022.028c-.013.016-.026.032-.038.049l-.023.033-.032.048-.021.036-.028.048-.02.038c-.008.016-.016.032-.024.049l-.018.04-.02.05c-.005.014-.01.027-.015.041s-.012.034-.017.052l-.012.041c0,.018-.009.036-.013.054s-.007.028-.01.041-.007.038-.01.057,0,.026-.007.04,0,.043-.007.064,0,.023,0,.034c0,.033,0,.066,0,.1V22.18a1.472,1.472,0,0,0,.814,1.317l11.776,5.888.015.007a1.478,1.478,0,0,0,.14.06l.005,0a1.5,1.5,0,0,0,.146.044l.028.007c.048.011.1.019.145.025l.028,0a1.3,1.3,0,0,0,.3,0l.028,0c.048-.006.1-.014.145-.025l.028-.007a1.4,1.4,0,0,0,.146-.044l.005,0a1.48,1.48,0,0,0,.14-.06l.015-.007L146.683,23.5a1.472,1.472,0,0,0,.814-1.317V7.361C147.5,7.328,147.5,7.295,147.494,7.262ZM134.249,3.119l8.485,4.242L134.249,11.6l-8.485-4.243Zm-10.3,6.624,8.832,4.416V25.686l-8.832-4.416ZM144.553,21.27l-8.832,4.416V14.16l8.832-4.416Zm0,0" transform="translate(-109.125 0)" fill="#fff"/>
  </g>
</svg>
