<svg id="design_1_" data-name="design (1)" xmlns="http://www.w3.org/2000/svg" width="80.658" height="80.659" viewBox="0 0 80.658 80.659">
  <path id="Path_11513" data-name="Path 11513" d="M261.265,150.017a2.354,2.354,0,0,1-1.671-.692l-17.9-17.9a2.363,2.363,0,0,1,3.342-3.342l17.9,17.9a2.363,2.363,0,0,1-1.671,4.034Zm0,0" transform="translate(-203.039 -107.326)" fill="#f14d5d"/>
  <path id="Path_11514" data-name="Path 11514" d="M22.432,42.692A2.355,2.355,0,0,1,20.762,42L.692,21.931a2.363,2.363,0,0,1,0-3.342l17.9-17.9a2.362,2.362,0,0,1,3.341,0L42,20.762A2.363,2.363,0,1,1,38.658,24.1l-18.4-18.4L5.7,20.26l18.4,18.4a2.363,2.363,0,0,1-1.671,4.034Zm0,0" transform="translate(0 0)" fill="#8e66ff"/>
  <path id="Path_11515" data-name="Path 11515" d="M263.434,283.7a2.356,2.356,0,0,1-1.671-.692l-20.069-20.069a2.363,2.363,0,0,1,3.342-3.342l18.4,18.4,14.554-14.554-18.4-18.4a2.363,2.363,0,0,1,3.342-3.341L283,261.764a2.363,2.363,0,0,1,0,3.342l-17.9,17.9a2.356,2.356,0,0,1-1.671.692Zm0,0" transform="translate(-203.036 -203.037)" fill="#8e66ff"/>
  <path id="Path_11516" data-name="Path 11516" d="M20.261,80.662H2.363A2.363,2.363,0,0,1,0,78.3V60.4a2.362,2.362,0,0,1,.692-1.671L58.728.7A2.363,2.363,0,0,1,62.07.7l17.9,17.9a2.364,2.364,0,0,1,0,3.342L21.931,79.97a2.36,2.36,0,0,1-1.671.692ZM4.726,75.936H19.281L74.953,20.263,60.4,5.709,4.726,61.38Zm0,0" transform="translate(0 -0.003)" fill="#ff723a"/>
</svg>
