<svg xmlns="http://www.w3.org/2000/svg" width="51.274" height="80.793" viewBox="0 0 51.274 80.793">
  <g id="dna" transform="translate(-0.051 0)">
    <g id="Group_2993" data-name="Group 2993" transform="translate(10.148 8.551)">
      <path id="Path_11502" data-name="Path 11502" d="M106.28,127.771H86.085a2.335,2.335,0,1,1,0-4.67H106.28a2.335,2.335,0,1,1,0,4.67Zm0,0" transform="translate(-80.642 -112.231)" fill="#8e66ff"/>
      <path id="Path_11503" data-name="Path 11503" d="M92.8,58.869H66.386a2.335,2.335,0,0,1,0-4.67H92.8a2.335,2.335,0,0,1,0,4.67Zm0,0" transform="translate(-64.051 -54.199)" fill="#8e66ff"/>
      <path id="Path_11504" data-name="Path 11504" d="M106.28,364.069H86.085a2.335,2.335,0,1,1,0-4.67H106.28a2.335,2.335,0,1,1,0,4.67Zm0,0" transform="translate(-80.642 -311.248)" fill="#8e66ff"/>
      <path id="Path_11505" data-name="Path 11505" d="M92.8,432.97H66.386a2.335,2.335,0,1,1,0-4.67H92.8a2.335,2.335,0,1,1,0,4.67Zm0,0" transform="translate(-64.051 -369.279)" fill="#8e66ff"/>
    </g>
    <path id="Path_11506" data-name="Path 11506" d="M7.04,284.087A7,7,0,0,1,.051,277.1v-4.986A36.824,36.824,0,0,1,15.969,241.79a2.328,2.328,0,0,1,2.651,0l.158.11c.095.063.189.126.268.189l6.532,4.355c.457.316.947.647,1.483,1.057a2.335,2.335,0,0,1,0,3.755A32.333,32.333,0,0,0,14.029,277.13a6.975,6.975,0,0,1-6.989,6.958Zm10.318-37.549A32.193,32.193,0,0,0,4.72,272.1v4.985a2.335,2.335,0,1,0,4.67,0A36.854,36.854,0,0,1,21.823,249.5Zm0,0" transform="translate(0 -203.295)" fill="#f14d5d"/>
    <path id="Path_11507" data-name="Path 11507" d="M158.564,42.739a2.386,2.386,0,0,1-1.325-.41l-.158-.11c-.095-.063-.174-.126-.269-.19l-6.531-4.354c-.457-.316-.947-.647-1.483-1.057a2.335,2.335,0,0,1,0-3.755A32.332,32.332,0,0,0,161.829,6.989a6.989,6.989,0,1,1,13.978,0v4.985A36.824,36.824,0,0,1,159.889,42.3a2.228,2.228,0,0,1-1.325.441Zm-4.512-8.14,4.45,2.966a32.2,32.2,0,0,0,12.637-25.558V7a2.335,2.335,0,0,0-4.67,0,36.945,36.945,0,0,1-3.96,16.6,36.831,36.831,0,0,1-8.457,11Zm0,0" transform="translate(-124.483)" fill="#f14d5d"/>
    <path id="Path_11508" data-name="Path 11508" d="M44.418,80.879a7,7,0,0,1-6.989-6.989A32.127,32.127,0,0,0,23.088,47.1l-6.532-4.355A36.792,36.792,0,0,1,.148,12.076V7.091a6.981,6.981,0,1,1,13.962,0A32.126,32.126,0,0,0,28.452,33.88l6.531,4.355A36.79,36.79,0,0,1,51.391,68.9V73.89a6.979,6.979,0,0,1-6.973,6.989ZM7.122,4.756A2.339,2.339,0,0,0,4.787,7.091v4.986A32.129,32.129,0,0,0,19.128,38.865L25.66,43.22A36.794,36.794,0,0,1,42.068,73.89a2.335,2.335,0,1,0,4.67,0V68.9A32.128,32.128,0,0,0,32.4,42.115l-6.532-4.354A36.794,36.794,0,0,1,9.457,7.091,2.339,2.339,0,0,0,7.122,4.756Zm0,0" transform="translate(-0.082 -0.086)" fill="#ff723a"/>
  </g>
</svg>
