<svg xmlns="http://www.w3.org/2000/svg" width="32" height="50.423" viewBox="0 0 32 50.423">
  <g id="dna" transform="translate(-0.051 0)">
    <g id="Group_2993" data-name="Group 2993" transform="translate(6.352 5.336)">
      <path id="Path_11502" data-name="Path 11502" d="M97.811,126.016h-12.6a1.457,1.457,0,1,1,0-2.914h12.6a1.457,1.457,0,1,1,0,2.914Zm0,0" transform="translate(-81.811 -116.317)" fill="#fff"/>
      <path id="Path_11503" data-name="Path 11503" d="M81.991,57.114H65.509a1.457,1.457,0,0,1,0-2.915H81.991a1.457,1.457,0,1,1,0,2.915Zm0,0" transform="translate(-64.051 -54.199)" fill="#fff"/>
      <path id="Path_11504" data-name="Path 11504" d="M97.811,362.313h-12.6a1.457,1.457,0,1,1,0-2.915h12.6a1.457,1.457,0,1,1,0,2.915Zm0,0" transform="translate(-81.811 -329.348)" fill="#fff"/>
      <path id="Path_11505" data-name="Path 11505" d="M81.991,431.215H65.509a1.457,1.457,0,1,1,0-2.914H81.991a1.457,1.457,0,1,1,0,2.914Zm0,0" transform="translate(-64.051 -391.466)" fill="#fff"/>
    </g>
    <path id="Path_11506" data-name="Path 11506" d="M4.413,268.032A4.37,4.37,0,0,1,.051,263.67v-3.112a22.982,22.982,0,0,1,9.935-18.924,1.453,1.453,0,0,1,1.654,0l.1.069c.059.04.118.079.167.118l4.077,2.718c.285.2.591.4.925.66a1.457,1.457,0,0,1,0,2.343A20.179,20.179,0,0,0,8.774,263.69a4.353,4.353,0,0,1-4.362,4.342ZM10.852,244.6a20.092,20.092,0,0,0-7.887,15.951v3.111a1.457,1.457,0,1,0,2.915,0,23,23,0,0,1,7.759-17.211Zm0,0" transform="translate(0 -217.61)" fill="#fff"/>
    <path id="Path_11507" data-name="Path 11507" d="M154.537,26.673a1.489,1.489,0,0,1-.827-.256l-.1-.069c-.059-.04-.108-.079-.168-.118l-4.076-2.717c-.285-.2-.591-.4-.925-.66a1.457,1.457,0,0,1,0-2.343,20.178,20.178,0,0,0,8.133-16.148,4.362,4.362,0,1,1,8.724,0V7.473A22.982,22.982,0,0,1,155.364,26.4a1.39,1.39,0,0,1-.827.275Zm-2.816-5.08,2.777,1.851a20.093,20.093,0,0,0,7.887-15.951V4.371a1.457,1.457,0,0,0-2.914,0A23.057,23.057,0,0,1,157,14.73a22.986,22.986,0,0,1-5.278,6.863Zm0,0" transform="translate(-133.248)" fill="#fff"/>
    <path id="Path_11508" data-name="Path 11508" d="M27.777,50.515a4.371,4.371,0,0,1-4.362-4.362,20.05,20.05,0,0,0-8.95-16.719l-4.077-2.718A22.962,22.962,0,0,1,.148,7.575V4.464a4.357,4.357,0,1,1,8.714,0,20.05,20.05,0,0,0,8.95,16.719L21.889,23.9a22.961,22.961,0,0,1,10.24,19.141v3.112a4.356,4.356,0,0,1-4.352,4.362ZM4.5,3.007A1.46,1.46,0,0,0,3.043,4.464V7.575a20.051,20.051,0,0,0,8.95,16.719l4.077,2.717A22.963,22.963,0,0,1,26.31,46.153a1.457,1.457,0,1,0,2.914,0V43.041a20.051,20.051,0,0,0-8.95-16.719L16.2,23.6A22.963,22.963,0,0,1,5.957,4.464,1.46,1.46,0,0,0,4.5,3.007Zm0,0" transform="translate(-0.088 -0.092)" fill="#fff"/>
  </g>
</svg>
