<svg xmlns="http://www.w3.org/2000/svg" width="87.41" height="100.82" viewBox="0 0 87.41 100.82">
  <g id="graduate" transform="translate(-5.256 -0.999)">
    <path id="Path_12246" data-name="Path 12246" d="M81.62,70.3c-11.277-5.066-13.4-5.822-15.43-7.648a49.862,49.862,0,0,0-3.615-3.524,14.04,14.04,0,0,0,.093-5.164,22.434,22.434,0,0,0,2.554-4.438A29.837,29.837,0,0,0,67.26,42.1a5.255,5.255,0,0,0,4.661-6.533A4.654,4.654,0,0,0,68.073,32.2a18.829,18.829,0,0,0,.143-9.545l-.025.006a12.537,12.537,0,0,0,.967-2.306,10.98,10.98,0,0,0-.6-7.816l13.1-4.069a.788.788,0,0,0-.038-1.514c-7.4-1.917-14.982-3.532-22.54-4.8C48.459.377,45.1.769,36.249,2.527,28.373,4.09,19.967,5.14,12.16,7.352a.789.789,0,0,0-.416,1.23c2.083,2.779,6.572,2.68,9.283,3.473Q25.215,13.284,29.4,14.5a14.744,14.744,0,0,0-.065,7.375l-.1-.025a16.961,16.961,0,0,0,.955,10.786c-2.917,1.377-4.658,5.348-2.754,7.914a4.507,4.507,0,0,0,3.776,1.615,25.082,25.082,0,0,0,3.818,10.872,18.756,18.756,0,0,0,.128,7.229C30.4,62.286,18.972,69.566,14.627,73,2.594,82.494,4.144,91.845,8.3,95.891c2.623,2.565,6.344,3.291,9.93,3.814,19.187,2.8,38.9,3.015,58.045-.543C82.513,98,90.335,95.78,92.307,88.614,94.342,81.211,87.3,72.861,81.62,70.3ZM60.55,60.744c-.153.5-.477,1.375-.58,1.627-.028.069-.065.135-.095.2l-.353-.353.139-.139a.394.394,0,0,0-.558-.558l-.139.139-1.341-1.339a.394.394,0,0,0-.558.558l1.341,1.341L56.928,63.7l-.323-.323a.394.394,0,1,0-.558.558l.381.381a.371.371,0,0,0,.082.359.3.3,0,0,0,.359.082l.632.63a.394.394,0,0,0,.558-.558l-.573-.573,1.478-1.478.558.558a18.065,18.065,0,0,1-2.985,4.466.377.377,0,0,0-.039-.463l-.049-.049a.369.369,0,0,0-.518-.518L54.754,65.6a.394.394,0,0,0-.558.558l1.156,1.156-1.479,1.479-1.016-1.016.317-.317a.394.394,0,0,0-.558-.558L48.229,71.29l-.416-.416a.394.394,0,0,0-.558.558l.416.416-1.035,1.035c-3.527-3.889-11.159-7.448-10.29-18a16.234,16.234,0,0,0,24.933.766,15.124,15.124,0,0,1-.731,5.093ZM49.524,72.579l-.734-.734,1.155-1.155,1.068,1.068a.394.394,0,0,0,.558-.558L50.5,70.133l1.8-1.8,1.016,1.016-.877.877a.394.394,0,0,0,.558.558l.931-.931c.033.009.061.039.1.039a.392.392,0,0,0,.279-.115.368.368,0,0,0,.076-.375l1.533-1.533.03.028a.348.348,0,0,0,.487.028,18.164,18.164,0,0,1-3.259,2.856c-.353.236-.718.468-1.087.7a14.209,14.209,0,0,0-3.971,3.313,11.128,11.128,0,0,0-.942-1.33L48.237,72.4l.734.734a.392.392,0,1,0,.553-.554ZM43.365,57.592a.378.378,0,0,0,.537-.008.389.389,0,0,0,.008-.537L45.351,55.6,47.3,57.553l-1.089,1.089a.394.394,0,0,0,0,.558c.038.038.09.036.135.055a12.363,12.363,0,0,1-3.516-1.129Zm5.983.893-.931-.931,1.892-1.892L51.4,56.757l-1.886,1.886a.394.394,0,0,0,.556.558l1.886-1.886a11.745,11.745,0,0,0,1.577,1.459,14.814,14.814,0,0,1-6.985.518.368.368,0,0,0,.219-.091l1.089-1.089.931.931a.394.394,0,1,0,.558-.558ZM52.7,53.269l1.095,1.095L51.96,56.2,50.865,55.1Zm9.86-2.327a.356.356,0,0,0,.158.065,19.167,19.167,0,0,1-1.5,2.281c-.134.175-.288.32-.427.488a.372.372,0,0,0-.088-.343l-.608-.606,2.177-2.177Zm-2.418,3.05a.307.307,0,0,0,.4.065,12.682,12.682,0,0,1-3.237,2.9.379.379,0,0,0-.106-.3l-.471-.471,2.8-2.8Zm-3.968,1.638-1.267-1.267,2.8-2.8,1.267,1.267Zm-.556.556-.975.975a.394.394,0,1,0,.556.558l.975-.975a2.258,2.258,0,0,0,.638.54,11.579,11.579,0,0,1-2.9,1.359.385.385,0,0,0-.019-.512l-1.377-1.377,1.835-1.835ZM70.4,35.992a3.679,3.679,0,0,1-2.921,4.5c.035-.32.066-.643.1-.966,0-1.553.287-2.33-.249-3.957,0-.625-.028-1.226-.079-1.818A3.032,3.032,0,0,1,70.4,35.992Zm-3.642-5.154a11.668,11.668,0,0,0-1.9-4.011,15.785,15.785,0,0,0,2.1-2.251A17.259,17.259,0,0,1,66.762,30.838ZM49,31.038l1.448-1.448.838.836a.394.394,0,0,0,.556-.558l-.838-.838L52.4,27.637l1.393,1.391-.721.721a.368.368,0,0,0,.2.638c-1.427.291-3.146.537-4.264.651Zm-18.117-16.1,2.771.808C37.24,16.8,41.3,18,45.41,18.083c5.928.12,11.462-1.939,21.625-5.076a9.347,9.347,0,0,1,.613,6.9v0a11.021,11.021,0,0,1-.9,2.114l-1.01-1.01,1.331-1.331a.394.394,0,0,0-.558-.558l-1.331,1.331-.219-.219a.394.394,0,1,0-.558.556l.219.219-.764.764a.394.394,0,1,0,.558.556l.764-.764,1.153,1.155a13.871,13.871,0,0,1-2.853,3.243.377.377,0,0,0-.1-.244l-.633-.632.847-.847.458.458a.394.394,0,1,0,.558-.558l-.458-.458.63-.632a.392.392,0,0,0,0-.556c-.372-.372-.8.244-1.188.632l-.356-.356a.394.394,0,1,0-.558.556l.356.356-.847.847-.855-.854a.394.394,0,0,0-.558.556l.855.854L60.19,26.525,58.8,25.134l2.453-2.453a.394.394,0,0,0-.558-.558L56.2,26.614l-.673-.673a.394.394,0,0,0-.558.558l.673.673-1.3,1.3-1.393-1.391,1.838-1.838a.394.394,0,0,0-.556-.558L52.2,26.718c-.038.019-.083.016-.117.049s-.03.077-.049.117l-1.591,1.591-.758-.758.29-.29a.394.394,0,1,0-.558-.556L47.183,29.11l-.81-.81a.394.394,0,0,0-.558.556l.81.81-.989.989a.369.369,0,0,0-.076.183l-1.484-1.489,1.09-1.09a.394.394,0,1,0-.558-.556l-1.09,1.09-.129-.129a.394.394,0,0,0-.558.558l.129.129-.893.893-1.035-1.035a.394.394,0,0,0-.558.558l.981.981C33.064,28.982,29,22.194,30.887,14.938Zm29.046-1.862L58.461,11.6l2.057-2.057L62.172,11.2l-.258.258a.394.394,0,0,0,.558.556l.258-.258.714.714-3.472,1.076A.375.375,0,0,0,59.934,13.076Zm5.743-4.267,1.871,1.87a.394.394,0,0,0,.558-.558L66.235,8.25,68.886,5.6c1.129.235,2.254.485,3.381.734L70.571,8.028,69.442,6.9a.393.393,0,0,0-.556.556l1.129,1.129L68.752,9.847a.394.394,0,0,0,.558.556l1.263-1.262.66.66a.394.394,0,1,0,.558-.556l-.66-.66,2.053-2.053c.751.17,1.5.348,2.249.525L73.58,8.91a.374.374,0,0,0-.052.43c-1.961.61-6.8,2.112-9.233,2.865L63.289,11.2ZM58.245,25.693l1.391,1.391-.31.31a.394.394,0,0,0,.558.558l.31-.31.315.315a20.644,20.644,0,0,1-2.034.933l-1.712-1.714Zm2.506,1.393,1.437-1.437.633.632a.376.376,0,0,0,.165.069,12.793,12.793,0,0,1-1.764,1.207Zm-3.088,2.1c-.627.224-1.282.432-1.972.621l-.783-.781,1.3-1.3Zm-2.854.854c-.384.095-.784.183-1.189.269,0,0,.008,0,.011,0l.721-.721Zm-12.235.81.947-.947,1.263,1.263a21.739,21.739,0,0,1-2.18-.2A.417.417,0,0,0,42.574,30.853Zm5.592.183c.009,0,.017-.011.027-.011a.485.485,0,0,0,.027.066c-.685.054-1.358.093-2,.1l.969-.969.7.7a.387.387,0,0,0,.277.117Zm.313-.588c-.016-.027-.011-.061-.035-.085l-.7-.7,1.391-1.391.758.756ZM74.593,9.009l1.738-1.738c.728.173,1.46.339,2.185.518ZM13.93,8.5c7.338-1.939,15.138-2.943,22.662-4.436C45.077,2.38,48.316,1.95,58.814,3.707q4.575.768,9.144,1.708l-5.23,5.23L61.074,8.99l2.509-2.509a.394.394,0,1,0-.558-.556L60.483,8.466a.356.356,0,0,0-.493.495L57.9,11.049,56.035,9.182a.394.394,0,0,0-.558.556l1.867,1.867-2.4,2.4a.394.394,0,0,0,.558.558l2.4-2.4,1.473,1.474c.038.038.088.036.135.055l-.3.095c-1.715.534-3.455,1.074-5.213,1.534a.391.391,0,0,0,0-.543l-2.3-2.3,2.6-2.6a.394.394,0,0,0-.558-.556l-2.6,2.6-.726-.726a.394.394,0,1,0-.556.558l.726.726L48.455,14.6l-1.4-1.4a.393.393,0,0,0-.556.556l1.43,1.43a.375.375,0,0,0,.046.447.324.324,0,0,0,.447.046l.093.093a.394.394,0,1,0,.558-.556l-.061-.061,2.123-2.125,2.3,2.3a.38.38,0,0,0,.189.079,30.446,30.446,0,0,1-8.182,1.1c-.766-.016-1.534-.083-2.3-.173l.554-.554.428.428a.394.394,0,1,0,.558-.558l-.428-.428L49.077,10.4a.393.393,0,1,0-.556-.556L43.7,14.666l-1.2-1.2a.394.394,0,0,0-.558.558l1.2,1.2-.928.928c-.016.016-.011.041-.024.058A61.509,61.509,0,0,1,34.1,14.236c-4.781-1.4-8.6-2.508-12.632-3.692-2.314-.677-5.6-.739-7.541-2.043ZM32.7,27.906a8.516,8.516,0,0,0-1.306,3.554,15.684,15.684,0,0,1-1.011-6.808A13.451,13.451,0,0,0,32.7,27.906ZM28.694,39.612c-1.347-1.813.291-4.874,2.423-5.674-.055.633-.11,1.274-.21,1.911a32.029,32.029,0,0,0,.115,4.753A2.966,2.966,0,0,1,28.694,39.612Zm3.762-3.321.008-.2c.4-2.591.2-5.162,1.411-7.111,8.042,6.592,23.577,3.475,29.81-1.152,2.338,3.255,1.843,6.563,2.119,8.138.917,2.579-.66,9.374-1.673,12.016l-1.079-1.079,1.489-1.489a.394.394,0,0,0-.558-.558l-1.489,1.489-.8-.8a.394.394,0,0,0-.556.558l.8.8-.8.8a.394.394,0,1,0,.556.558l.8-.8,1.326,1.326c-.016.036-.028.077-.044.113-.224.506-.458.983-.7,1.446l-.391-.391a.28.28,0,0,0-.28-.28l-1.739-1.739a.394.394,0,0,0-.558.558l1.6,1.6-2.177,2.177-1.267-1.267.674-.674a.394.394,0,0,0-.558-.558l-.674.674-.233-.233a.394.394,0,0,0-.558.558l.233.233-2.8,2.8-1.095-1.095.671-.671a.394.394,0,0,0-.558-.558l-.811.811a.28.28,0,0,0-.279.279L50.3,54.552l-1.374-1.374a.394.394,0,1,0-.558.558l1.374,1.374L47.853,57,45.9,55.053l2.476-2.476a.394.394,0,0,0-.558-.558l-2.476,2.476-.52-.52a.394.394,0,0,0-.558.558l.52.52-1.437,1.437-1.6-1.6a.394.394,0,0,0-.558.558l1.6,1.6-.695.695a16.812,16.812,0,0,1-5.616-5.312c-3.2-4.633-4.25-11.312-4.028-16.139Zm14.91,40.568a0,0,0,0,0,0,0,.787.787,0,0,0,1.489-.049,5.49,5.49,0,0,1,2.114-2.683c1.98-1.506,8.773-4.661,11.21-13.3,1.575,1.405,2.427,2.938,5.009,4.507A22.8,22.8,0,0,1,49.653,83.051,36.424,36.424,0,0,1,30.911,64.233,40.992,40.992,0,0,1,35.552,61.8c2.681,8.573,9.787,9.664,11.814,15.061Zm4.185,23.275.221-.221.208.208C51.837,100.126,51.695,100.13,51.552,100.134Zm10.575-.606c-.734.068-1.482.1-2.221.161a.385.385,0,0,0,.258-.107.394.394,0,0,0,0-.558l-1.117-1.117,2.144-2.144,2.276,2.276L62.23,99.275A.391.391,0,0,0,62.126,99.527Zm-2.52.054a.387.387,0,0,0,.265.109c-.934.074-1.87.145-2.81.2l1.43-1.429Zm3.6-.17.813-.813.362.362a.394.394,0,0,0,.558-.558l-.362-.362,3.856-3.856,1.749,1.749L68.027,98.09a.394.394,0,0,0,.556.558l2.16-2.158,1.175,1.174a.394.394,0,0,0,.558-.558L71.3,95.932l3.065-3.065,3,3-1.17,1.17a.389.389,0,0,0-.008.536C72.123,98.333,67.93,98.94,63.21,99.411Zm8.872-8.872c.014.024.009.052.03.072l1.7,1.7-3.065,3.065L69,93.626Zm15.89-1.194L85.3,92.015l-1.485-1.485,2.67-2.672Zm-3.228,3.228L82.4,94.913l-1.485-1.485,2.341-2.341Zm-2.377,3.418a36.48,36.48,0,0,1-5.447,1.437l3.442-3.442Zm-4.444-.682-3-3L76.8,90.427l3,3Zm5.246.37-.21-.21L85.3,93.128l.947.947a14.51,14.51,0,0,1-3.078,1.6ZM86.9,93.61l-1.038-1.038,2.672-2.67.446.446a.394.394,0,0,0,.558-.558L86.239,86.5a.394.394,0,0,0-.556.558l.247.247-2.67,2.67L81.893,88.6a.394.394,0,0,0-.558.558L82.7,90.531l-2.341,2.341-3-3,3.417-3.417a.394.394,0,0,0-.558-.558l-3.417,3.417-.841-.841a.394.394,0,0,0-.558.558l.841.841-1.881,1.881-1.7-1.7c-.02-.02-.05-.016-.072-.03l2.917-2.917a.394.394,0,0,0-.558-.558l-6.518,6.518L67.4,92.03a.394.394,0,1,0-.556.558l1.04,1.04-3.856,3.856L61.75,95.208l6.277-6.277a.394.394,0,0,0-.558-.558L61.192,94.65l-.775-.775a.394.394,0,0,0-.558.558l.775.775-2.144,2.144-1.763-1.764a.394.394,0,1,0-.558.558l1.763,1.764-1.5,1.5a.39.39,0,0,0-.011.532c-1.115.065-2.238.106-3.362.148l-.732-.732,1.945-1.947L56,99.138a.394.394,0,1,0,.558-.558l-1.726-1.726,4.66-4.66a.394.394,0,0,0-.558-.558l-4.66,4.66-.05-.05a.394.394,0,0,0-.558.558l.05.05L51.769,98.8,50.4,97.432a.394.394,0,0,0-.556.558l1.369,1.369-.446.446a.37.37,0,0,0-.083.356q-2.233.054-4.485.055l1.222-1.222.586.588a.394.394,0,0,0,.558-.558l-.586-.588L53.113,93.3a.394.394,0,0,0-.558-.558l-5.134,5.134-1.237-1.237a.394.394,0,0,0-.558.558l1.237,1.237-1.632,1.632c-.038.038-.038.09-.057.137-1.643-.013-3.286-.024-4.946-.08L41.557,98.8l.851.851a.394.394,0,0,0,.558-.558l-.851-.851,4.1-4.1a.394.394,0,1,0-.558-.558l-4.1,4.1-.775-.777a.394.394,0,0,0-.558.558l.777.777-1.435,1.433a.368.368,0,0,0-.058.414,198.511,198.511,0,0,1-21.052-1.939C15.127,97.66,11.683,97,9.4,94.764c-3.184-3.1-5.45-11.339,6.2-20.529A133.233,133.233,0,0,1,29.57,65.022c6.1,13.636,18.424,19.637,20,19.637,2.55,0,15.835-4.371,19.045-18.547,1.575.811,2.027.986,12.355,5.625,4.323,1.947,8.948,7.371,9.888,12.081l-1.014,1.014-1.369-1.369a.394.394,0,0,0-.556.558l1.369,1.369-1.237,1.237a.394.394,0,0,0,.558.558l1.237-1.237,1.158,1.158a8.045,8.045,0,0,1-.219,1.09A10.544,10.544,0,0,1,86.9,93.61Zm4.179-7.547-.673-.671.616-.616A9.857,9.857,0,0,1,91.075,86.063Z" transform="translate(0 0)" fill="#1b212f"/>
  </g>
</svg>
