<svg xmlns="http://www.w3.org/2000/svg" xmlns:xlink="http://www.w3.org/1999/xlink" width="24" height="18" viewBox="0 0 24 18">
  <defs>
    <clipPath id="clip-path">
      <path id="Path_12337" data-name="Path 12337" d="M21,0H3A3,3,0,0,1,0-3V-13a1,1,0,0,1,1-1,1,1,0,0,1,1,1V-3A1,1,0,0,0,3-2H21a1,1,0,0,0,1-1V-15a1,1,0,0,0-1-1H11a1,1,0,0,1-1-1,1,1,0,0,1,1-1H21a3,3,0,0,1,3,3V-3A3,3,0,0,1,21,0ZM1-18a1,1,0,0,0-1,1,1,1,0,0,0,1,1,1,1,0,0,0,1-1A1,1,0,0,0,1-18Zm3,0a1,1,0,0,0-1,1,1,1,0,0,0,1,1,1,1,0,0,0,1-1A1,1,0,0,0,4-18Zm3,0a1,1,0,0,0-1,1,1,1,0,0,0,1,1,1,1,0,0,0,1-1A1,1,0,0,0,7-18Z" fill="#f26375" clip-rule="evenodd"/>
    </clipPath>
    <clipPath id="clip-path-2">
      <path id="Path_12336" data-name="Path 12336" d="M-777,2371H318V-1787H-777Z" fill="#f26375"/>
    </clipPath>
  </defs>
  <g id="Group_3293" data-name="Group 3293" transform="translate(0 18)">
    <g id="Group_3292" data-name="Group 3292" clip-path="url(#clip-path)">
      <g id="Group_3291" data-name="Group 3291" clip-path="url(#clip-path-2)">
        <path id="Path_12335" data-name="Path 12335" d="M-5-23H29V5H-5Z" fill="#f26375"/>
      </g>
    </g>
  </g>
</svg>
