<svg xmlns="http://www.w3.org/2000/svg" xmlns:xlink="http://www.w3.org/1999/xlink" width="24" height="21" viewBox="0 0 24 21">
  <defs>
    <clipPath id="clip-path">
      <path id="Path_12319" data-name="Path 12319" d="M21-.1H3a3,3,0,0,1-3-3v-11a3,3,0,0,1,3-3H21a3,3,0,0,1,3,3v1.3a2,2,0,0,1-1.32,1.88l-9.6,3.49a3,3,0,0,1-2.21-.06L4.6-10.18a1,1,0,0,1-.525-1.315A1,1,0,0,1,5.39-12.02l6.27,2.69a1,1,0,0,0,.73,0l9.6-3.49v-1.3a1,1,0,0,0-1-1H3a1,1,0,0,0-1,1v11a1,1,0,0,0,1,1H21a1,1,0,0,0,1-1v-5a1,1,0,0,1,1-1,1,1,0,0,1,1,1v5a3,3,0,0,1-.872,2.134A3,3,0,0,1,21-.1Zm-4-20a1,1,0,0,0-1-1H8a1,1,0,0,0-1,1,1,1,0,0,0,1,1h8A1,1,0,0,0,17-20.1Z" fill="#f88b5b" clip-rule="evenodd"/>
    </clipPath>
    <clipPath id="clip-path-2">
      <path id="Path_12318" data-name="Path 12318" d="M-681,2755H414V-1403H-681Z" fill="#f88b5b"/>
    </clipPath>
  </defs>
  <g id="Group_3275" data-name="Group 3275" transform="translate(0 21.1)">
    <g id="Group_3274" data-name="Group 3274" clip-path="url(#clip-path)">
      <g id="Group_3273" data-name="Group 3273" clip-path="url(#clip-path-2)">
        <path id="Path_12317" data-name="Path 12317" d="M-5-26.1H29v31H-5Z" fill="#f88b5b"/>
      </g>
    </g>
  </g>
</svg>
