<svg xmlns="http://www.w3.org/2000/svg" width="77.328" height="70.516" viewBox="0 0 77.328 70.516">
  <g id="Group_3197" data-name="Group 3197" transform="translate(-1387.998 -1258.143)">
    <path id="Path_12300" data-name="Path 12300" d="M140.34,202.755A2.754,2.754,0,0,0,137.585,200H109.214a2.755,2.755,0,1,0,0,5.509h28.372A2.754,2.754,0,0,0,140.34,202.755Z" transform="translate(1292.543 1085.689)" fill="#fff"/>
    <path id="Path_12301" data-name="Path 12301" d="M109.214,280a2.755,2.755,0,1,0,0,5.509h17.231a2.755,2.755,0,0,0,0-5.509Z" transform="translate(1292.543 1016.707)" fill="#fff"/>
    <path id="Path_12304" data-name="Path 12304" d="M137.585,120H109.214a2.755,2.755,0,1,0,0,5.509h28.372a2.755,2.755,0,0,0,0-5.509Z" transform="translate(1292.543 1154.671)" fill="#fff"/>
    <g id="Group_3196" data-name="Group 3196">
      <path id="Path_12302" data-name="Path 12302" d="M46.8,65.007H37.588A5.515,5.515,0,0,1,32.079,59.5V11.018a5.515,5.515,0,0,1,5.509-5.509H71.454a5.515,5.515,0,0,1,5.509,5.509v16.94a2.755,2.755,0,1,0,5.509,0V11.018A11.031,11.031,0,0,0,71.454,0H37.588A11.031,11.031,0,0,0,26.57,11.018V59.5A11.031,11.031,0,0,0,37.588,70.516H46.8a2.755,2.755,0,1,0,0-5.509Z" transform="translate(1361.428 1258.143)" fill="#fff"/>
      <g id="infinity_1_" data-name="infinity (1)" transform="translate(1424.854 1170.978)">
        <g id="Group_3195" data-name="Group 3195" transform="translate(0 130.396)">
          <path id="Path_12312" data-name="Path 12312" d="M30.543,130.4a9.92,9.92,0,0,0-7.021,2.909l-3.287,3.287L16.948,133.3a9.928,9.928,0,1,0,0,14.04l3.287-3.287,3.287,3.287a9.928,9.928,0,1,0,7.02-16.948ZM13.217,143.611a4.628,4.628,0,0,1-1.043.784,4.562,4.562,0,0,1-2.245.579,4.649,4.649,0,0,1,0-9.3,4.581,4.581,0,0,1,2.249.58,4.651,4.651,0,0,1,1.039.782l3.286,3.287Zm17.327,1.364a4.576,4.576,0,0,1-2.251-.581,4.624,4.624,0,0,1-1.037-.782l-3.286-3.287,3.287-3.286a4.649,4.649,0,1,1,3.287,7.937Z" transform="translate(0 -130.396)" fill="#fff"/>
        </g>
      </g>
    </g>
  </g>
</svg>
