<svg xmlns="http://www.w3.org/2000/svg" width="50.309" height="50.309" viewBox="0 0 50.309 50.309">
  <g id="mace" transform="translate(-0.5 0)">
    <path id="Path_12177" data-name="Path 12177" d="M321.754,258.386a1.474,1.474,0,0,1-.888-2.651l4.71-3.546a1.474,1.474,0,0,1,1.773,2.355l-4.71,3.546A1.466,1.466,0,0,1,321.754,258.386Zm0,0" transform="translate(-288.358 -227.141)" fill="#fff"/>
    <path id="Path_12178" data-name="Path 12178" d="M52.806,368.836a1.474,1.474,0,0,1-1.474-1.474v-3.138a1.285,1.285,0,0,0-1.284-1.284H34.732a1.285,1.285,0,0,0-1.284,1.284v3.138a1.474,1.474,0,0,1-2.948,0v-3.138a4.237,4.237,0,0,1,4.232-4.232H50.048a4.237,4.237,0,0,1,4.232,4.232v3.138A1.474,1.474,0,0,1,52.806,368.836Zm0,0" transform="translate(-27.052 -324.619)" fill="#fff"/>
    <path id="Path_12179" data-name="Path 12179" d="M28.7,429.036H1.974A1.474,1.474,0,0,1,.5,427.562v-3.145A4.427,4.427,0,0,1,4.922,420H25.753a4.427,4.427,0,0,1,4.422,4.422v3.145a1.474,1.474,0,0,1-1.474,1.474ZM3.448,426.089h23.78v-1.671a1.476,1.476,0,0,0-1.474-1.474H4.922a1.476,1.476,0,0,0-1.474,1.474Zm0,0" transform="translate(0 -378.727)" fill="#fff"/>
    <path id="Path_12180" data-name="Path 12180" d="M299.2,226.47a4.418,4.418,0,0,1-3.538-1.761l-14.512-19.276a1.474,1.474,0,1,1,2.355-1.773l14.512,19.276a1.474,1.474,0,0,0,2.355-1.773l-14.512-19.276a1.474,1.474,0,0,1,2.355-1.773l14.512,19.275a4.42,4.42,0,0,1-3.527,7.08Zm0,0" transform="translate(-252.807 -179.921)" fill="#fff"/>
    <path id="Path_12181" data-name="Path 12181" d="M154.6,71.036a1.474,1.474,0,0,1-1.177-.587l-7.092-9.42a1.474,1.474,0,0,1-.213-1.374,17.371,17.371,0,0,1,15.437-11.622,1.474,1.474,0,0,1,1.262.585l7.092,9.42a1.474,1.474,0,0,1,.213,1.374,17.371,17.371,0,0,1-15.437,11.622Zm-5.425-11.131,6.114,8.121a14.424,14.424,0,0,0,11.775-8.865l-6.114-8.121a14.424,14.424,0,0,0-11.775,8.865Zm0,0" transform="translate(-131.232 -43.31)" fill="#fff"/>
    <g id="Group_3079" data-name="Group 3079" transform="translate(9.496 0)">
      <path id="Path_12182" data-name="Path 12182" d="M103.574,162.594a4.418,4.418,0,0,1-3.538-1.761l-7.092-9.42a4.422,4.422,0,0,1,7.065-5.319l7.092,9.42a4.42,4.42,0,0,1-3.527,7.08Zm1.768-2.065h0ZM96.474,147.28A1.474,1.474,0,0,0,95.3,149.64l7.092,9.42a1.474,1.474,0,0,0,2.355-1.773l-7.092-9.42a1.476,1.476,0,0,0-1.181-.588Zm0,0" transform="translate(-92.054 -130.149)" fill="#fff"/>
      <path id="Path_12183" data-name="Path 12183" d="M295.34,18.261A4.417,4.417,0,0,1,291.8,16.5L284.71,7.08a4.422,4.422,0,1,1,7.065-5.319l7.092,9.42a4.42,4.42,0,0,1-3.527,7.08Zm-7.1-15.314a1.473,1.473,0,0,0-1.176,2.36l7.092,9.42a1.474,1.474,0,1,0,2.355-1.773l-7.092-9.42a1.472,1.472,0,0,0-1.179-.587Zm0,0" transform="translate(-264.979 0)" fill="#fff"/>
    </g>
  </g>
</svg>
