<svg xmlns="http://www.w3.org/2000/svg" width="51.489" height="50.8" viewBox="0 0 51.489 50.8">
  <g id="manager" transform="translate(-1.001 -1.427)">
    <path id="Path_12236" data-name="Path 12236" d="M16.3,32.433a.361.361,0,0,0-.311.227c-2.693,1.943-5.79,1.563-8.8,2.77A10.227,10.227,0,0,0,1.04,45.545,6.132,6.132,0,0,0,3.32,50.037c1.956,1.385,1,.992,39.876,2.166.422.014.847.023,1.27.023,2.155,0,4.275-.261,5.851-1.624a7.161,7.161,0,0,0,2.173-5.541,11.691,11.691,0,0,0-8-10.852c-2.994-.936-8.162-.724-9.559-4.206-.462-1.151-.319-2.422-.638-3.859,5.368-5.219,6.211-17.967.317-22.589C30.567.393,21.261.653,18.1,5.013a15.51,15.51,0,0,0-2.492,8.967c.011,4.183,1.087,8.451,3.887,11.513a8.34,8.34,0,0,1-3.2,6.94Zm4-6.151a10.445,10.445,0,0,0,8.177,2.839A9.852,9.852,0,0,0,33.6,26.793a23.633,23.633,0,0,0,.427,3.023l-5.751,2.731a4.27,4.27,0,0,0-1.687,1.207A4.27,4.27,0,0,0,24.9,32.546l-5.541-2.631a7.012,7.012,0,0,0,.934-3.633Zm5.735-.209,1.138,1.138L26.1,28.278c-.056-.009-.11-.024-.166-.034a.2.2,0,0,0-.011-.258l-1.011-1.012,1.07-1.07a.189.189,0,0,0,.048.169Zm2.3,1.735-.6-.6L29.1,25.839l1.01,1.01-.372.372a.2.2,0,0,0,.285.285l.372-.372.194.194a.2.2,0,1,0,.285-.285l-.194-.194,1.732-1.733.749.749a.178.178,0,0,0,.249.014,9.171,9.171,0,0,1-5.044,2.442,8.221,8.221,0,0,1-1.757.009l.837-.837.6.6a.2.2,0,1,0,.284-.283Zm1.059-2.253,1.732-1.732,1.01,1.01L30.4,26.565Zm4.072.285a.2.2,0,0,0-.011-.257l-.749-.749,1.22-1.22.755.755a.193.193,0,0,0,.087.036A9.942,9.942,0,0,1,33.46,25.84Zm-7.933,2.323a9.42,9.42,0,0,1-1.4-.411l.492-.492ZM28.168,40.08,29.9,51l-7.316-.221L25.6,40.128A3.428,3.428,0,0,0,28.168,40.08Zm-4.043-2.433a3.026,3.026,0,0,0,2.46-1.418,3.26,3.26,0,0,0,2.929,1.459h.014A2.883,2.883,0,0,1,24.125,37.647Zm-5.169-7.031,5.6,2.657c.846.4,1.945.929,1.552,2.116-.383,1.159-1.881,2.072-4.561,1.063a10.147,10.147,0,0,1-4.619-3.5,9.633,9.633,0,0,0,2.031-2.332ZM3.785,49.382a5.339,5.339,0,0,1-1.944-3.912,9.4,9.4,0,0,1,5.642-9.292c2.858-1.146,5.962-.8,8.8-2.747a10.955,10.955,0,0,0,4.978,3.775,7.155,7.155,0,0,0,2.026.463,3.742,3.742,0,0,0,1.589,2.085l-3.124,11C6.245,50.284,5.362,50.5,3.785,49.382Zm31.186,1.4-.456-.456.85-.849L36.686,50.8l-.07.071a.2.2,0,0,0,0,.285.192.192,0,0,0,.121.05l-3.008-.091.5-.5.456.456a.2.2,0,1,0,.284-.285Zm4.227.071-1-1,1.02-1.021a.192.192,0,0,0,.041.1l1.109,1.109-1.2,1.2c-.008.008-.006.02-.012.03l-2.377-.072a.192.192,0,0,0,.124-.051l1.015-1.015,1,1a.2.2,0,1,0,.284-.285Zm4.023.546-3.532-.106.965-.965.5.5a.2.2,0,1,0,.285-.285l-.5-.5.967-.967,1.18,1.18-.471.471a.2.2,0,0,0,.285.285l.471-.471.254.254a.2.2,0,1,0,.285-.285l-.254-.254.92-.92,1.18,1.18-.5.5a.2.2,0,0,0,.285.285l.5-.5.158.158a.2.2,0,1,0,.285-.285l-.158-.158.779-.779,1.151,1.151a13.344,13.344,0,0,1-5.036.511Zm4.188-4.9,1.18,1.18L47.1,49.169l-1.18-1.18Zm-.591,2.952-.779.779-1.18-1.18.779-.779Zm2.974.541a4.892,4.892,0,0,1-1.142.721l-1.263-1.263,1.487-1.487.707.707-1.109,1.109a.2.2,0,0,0,.285.285l1.109-1.109.467.467a4.334,4.334,0,0,1-.541.57Zm-.633-2.313,1.227-1.227.664.665c.017.017.041.016.062.026L49.865,48.39ZM50.581,49.1l-.431-.431,1.192-1.192A5.957,5.957,0,0,1,50.581,49.1Zm1.1-4.193-.891-.891.726-.726A9.962,9.962,0,0,1,51.677,44.912Zm-7.431-9.933a10.911,10.911,0,0,1,7.167,7.855s-.01,0-.014.006l-.9.9-.8-.8a.2.2,0,0,0-.285.285l.8.8-.425.425a.2.2,0,0,0,.285.285l.425-.425,1.167,1.167a8.312,8.312,0,0,1-.139,1.251l-.172.172c-.01-.021-.009-.044-.026-.062l-.664-.664.336-.336a.2.2,0,1,0-.285-.285l-.336.336-1.157-1.157a.2.2,0,0,0-.285.285L50.1,46.171,48.873,47.4l-1.179-1.18,1.125-1.125a.2.2,0,0,0-.285-.285l-2.9,2.9-.377-.377a.2.2,0,0,0-.285.285l.377.377-.779.779-.968-.968a.2.2,0,0,0-.284.285l.968.968-.92.92-1.18-1.181,3.882-3.882a.2.2,0,1,0-.285-.285L41.9,48.507l-.188-.188a.2.2,0,0,0-.284.284l.188.189-.967.967L39.544,48.65a.189.189,0,0,0-.1-.041L40.852,47.2a.2.2,0,0,0-.285-.285L37.914,49.57l-.5-.5a.2.2,0,1,0-.285.285l.5.5-.66.66-1.322-1.321L37.242,47.6a.2.2,0,0,0-.285-.285l-2.728,2.728-.543-.542a.2.2,0,1,0-.284.284l.542.542-.636.638a.2.2,0,0,0-.056.135l-2.538-.076-1.8-11.351A3.72,3.72,0,0,0,30.4,37.609a7.671,7.671,0,0,0,1.508-.4,10.922,10.922,0,0,0,5.16-4.027c2.344,1.155,4.83,1.068,7.176,1.8Zm-7.883-2.195a10.126,10.126,0,0,1-4.737,3.669c-3.8,1.428-5.126-1.048-4.476-2.13a3.332,3.332,0,0,1,1.467-1.049l5.7-2.706a5.419,5.419,0,0,0,2.047,2.216Zm1.3-16.107-.337-.337.421-.421C37.729,16.176,37.7,16.427,37.668,16.677ZM18.756,5.486c2.76-3.812,11.413-4.381,15.356-1.294,3.048,2.389,3.7,6.49,3.737,9.372-2.739.612-5.4-2.367-7.149-4.554a.4.4,0,0,0-.672.07,9.72,9.72,0,0,1-13.589,3.938,14.053,14.053,0,0,1,2.317-7.533Zm-2.34,8.5c0-.014,0-.031,0-.047A10.534,10.534,0,0,0,30.45,9.982c1.833,2.266,4.523,4.916,7.4,4.4-.016.619-.028.658-.069,1.2a.2.2,0,0,0-.27.006l-.459.459-.442-.442a.2.2,0,0,0-.284.285l.442.442-.855.855a.2.2,0,0,0,.285.285l.855-.856.558.558a15.269,15.269,0,0,1-2.634,6.929c-.006-.008,0-.02-.011-.028l-.755-.755.74-.74a.2.2,0,0,0-.285-.285l-.74.74-1.228-1.228a.2.2,0,0,0-.285.285l1.228,1.228-1.22,1.22-1.01-1.01,1-1a.2.2,0,0,0-.285-.285l-1,1-.536-.536A.2.2,0,1,0,30.3,23l.536.535L29.1,25.268l-.747-.746a.2.2,0,0,0-.285.285l.747.746-1.371,1.372-1.138-1.138a.193.193,0,0,0-.167-.048l1.4-1.4a.2.2,0,0,0-.284-.284L24.623,26.69l-.541-.541a.2.2,0,0,0-.285.285l.541.541-.6.6c-5.184-2.276-7.3-7.87-7.319-13.6Z" transform="translate(0 0)" fill="#fff"/>
    <path id="Path_12237" data-name="Path 12237" d="M42.493,25.307l.448-.448.913.913a.2.2,0,0,0,.284-.285l-.913-.913L44.3,23.5l.356.356a.2.2,0,0,0,.284-.285l-.356-.356.01-.01a.2.2,0,0,0-.285-.284l-.01.01-.672-.671a.2.2,0,0,0-.285.285l.672.671-1.07,1.07-.34-.34a.2.2,0,1,0-.285.285l.34.34-.448.448a.2.2,0,0,0,0,.285A.2.2,0,0,0,42.493,25.307Z" transform="translate(-8.043 -4.062)" fill="#fff"/>
  </g>
</svg>
