<svg xmlns="http://www.w3.org/2000/svg" width="17.983" height="27.666" viewBox="0 0 17.983 27.666">
  <g id="mobile" transform="translate(-7.031 -1.125)">
    <path id="Path_12293" data-name="Path 12293" d="M23.17,1.125H8.875A1.847,1.847,0,0,0,7.031,2.969V26.946a1.847,1.847,0,0,0,1.844,1.844H23.17a1.847,1.847,0,0,0,1.844-1.844V2.969A1.847,1.847,0,0,0,23.17,1.125Zm0,1.844V4.814H8.875V2.969Zm0,3.689V19.569H8.875V6.658Zm0,20.288H8.875V21.413h14.3v5.533Z" fill="#ff723a"/>
    <path id="Path_12294" data-name="Path 12294" d="M16.875,28.125h1.844v1.844H16.875Z" transform="translate(-1.775 -4.868)" fill="#ff723a"/>
  </g>
</svg>
