<svg xmlns="http://www.w3.org/2000/svg" width="24.329" height="24.328" viewBox="0 0 24.329 24.328">
  <path id="Icon_awesome-phone-alt" data-name="Icon awesome-phone-alt" d="M23.635,17.192l-5.322-2.281a1.14,1.14,0,0,0-1.33.328l-2.357,2.88A17.613,17.613,0,0,1,6.206,9.7l2.88-2.357a1.138,1.138,0,0,0,.328-1.33L7.132.69A1.148,1.148,0,0,0,5.826.029L.884,1.17A1.14,1.14,0,0,0,0,2.281,22.046,22.046,0,0,0,22.048,24.329a1.14,1.14,0,0,0,1.112-.884L24.3,18.5A1.154,1.154,0,0,0,23.635,17.192Z" transform="translate(0 0)" fill="#fff"/>
</svg>
