<svg id="professor" xmlns="http://www.w3.org/2000/svg" width="100.236" height="100.236" viewBox="0 0 100.236 100.236">
  <path id="Path_12208" data-name="Path 12208" d="M42.746,41.113A11.759,11.759,0,0,1,31,29.366a11.618,11.618,0,0,1,1.6-5.873A11.618,11.618,0,0,1,31,17.62,11.759,11.759,0,0,1,42.746,5.873a11.429,11.429,0,0,1,1.551.106A11.718,11.718,0,0,1,65.2,6.9a2.937,2.937,0,0,1-5.35,2.423,5.85,5.85,0,0,0-10.991.894,2.936,2.936,0,0,1-3.929,1.958A5.841,5.841,0,0,0,38.4,21.527a2.936,2.936,0,0,1,0,3.931,5.787,5.787,0,0,0-1.532,3.908,5.879,5.879,0,0,0,7.833,5.539,2.937,2.937,0,1,1,1.96,5.537,11.72,11.72,0,0,1-3.92.671Zm0,0" transform="translate(-24.931)" fill="#8e66ff"/>
  <path id="Path_12209" data-name="Path 12209" d="M323.71,41.113a11.792,11.792,0,0,1-2.791-.334,2.937,2.937,0,1,1,1.392-5.706,5.882,5.882,0,0,0,7.273-5.707,5.787,5.787,0,0,0-1.532-3.908,2.936,2.936,0,0,1,0-3.931,5.787,5.787,0,0,0,1.532-3.908,5.846,5.846,0,0,0-8.055-5.44,2.937,2.937,0,0,1-3.929-1.959,5.849,5.849,0,0,0-10.99-.894,2.937,2.937,0,0,1-5.35-2.423,11.718,11.718,0,0,1,20.9-.926,11.421,11.421,0,0,1,1.551-.106A11.76,11.76,0,0,1,335.457,17.62a11.612,11.612,0,0,1-1.6,5.873,11.612,11.612,0,0,1,1.6,5.873A11.76,11.76,0,0,1,323.71,41.113Zm0,0" transform="translate(-242.069 0)" fill="#8e66ff"/>
  <path id="Path_12210" data-name="Path 12210" d="M243.937,438.011A2.936,2.936,0,0,1,241,435.075V422.937a2.937,2.937,0,0,1,5.873,0v12.138A2.936,2.936,0,0,1,243.937,438.011Zm0,0" transform="translate(-193.818 -337.775)" fill="#8b432d"/>
  <path id="Path_12211" data-name="Path 12211" d="M215.785,360.173a20.379,20.379,0,0,1-8-1.62,2.936,2.936,0,1,1,2.291-5.408,14.686,14.686,0,0,0,11.413,0,2.936,2.936,0,1,1,2.291,5.408,20.379,20.379,0,0,1-8,1.62Zm0,0" transform="translate(-165.667 -283.821)" fill="#8e66ff"/>
  <path id="Path_12212" data-name="Path 12212" d="M45.683,209.366a14.683,14.683,0,1,1,0-29.366,2.937,2.937,0,0,1,0,5.873,8.81,8.81,0,0,0,0,17.62,2.937,2.937,0,1,1,0,5.873Zm0,0" transform="translate(-24.931 -144.761)" fill="#ff723a"/>
  <path id="Path_12213" data-name="Path 12213" d="M393.937,209.366a2.937,2.937,0,1,1,0-5.873,8.81,8.81,0,0,0,0-17.62,2.937,2.937,0,0,1,0-5.873,14.683,14.683,0,0,1,0,29.366Zm0,0" transform="translate(-314.452 -144.761)" fill="#ff723a"/>
  <path id="Path_12214" data-name="Path 12214" d="M223.629,217.856a2.926,2.926,0,0,1-1.633-.5,8.817,8.817,0,0,0-9.795,0,2.937,2.937,0,0,1-3.271-4.878,14.691,14.691,0,0,1,16.336,0,2.937,2.937,0,0,1-1.638,5.376Zm0,0" transform="translate(-166.981 -168.888)" fill="#3c3a41"/>
  <path id="Path_12215" data-name="Path 12215" d="M97.3,389.758H2.937A2.936,2.936,0,0,1,0,386.821a26.718,26.718,0,0,1,7.827-18.872A26.3,26.3,0,0,1,26.625,360c1.622,0,2.545,1.315,2.545,2.937s-.923,2.937-2.545,2.937A21.148,21.148,0,0,0,6.087,383.884H94.15a21.148,21.148,0,0,0-20.539-18.011c-1.622,0-2.545-1.315-2.545-2.937S71.989,360,73.611,360a26.3,26.3,0,0,1,18.8,7.949,26.718,26.718,0,0,1,7.827,18.872A2.936,2.936,0,0,1,97.3,389.758Zm0,0" transform="translate(0 -289.521)" fill="#f14d5d"/>
  <path id="Path_12216" data-name="Path 12216" d="M123.3,112.225A32.339,32.339,0,0,1,91,79.922V62.3a32.3,32.3,0,0,1,64.605,0v17.62A32.34,32.34,0,0,1,123.3,112.225Zm0-76.352A26.46,26.46,0,0,0,96.873,62.3v17.62a26.429,26.429,0,0,0,52.859,0V62.3A26.46,26.46,0,0,0,123.3,35.873Zm0,0" transform="translate(-73.185 -24.127)" fill="#ff723a"/>
  <g id="Group_3094" data-name="Group 3094" transform="translate(17.815 35.239)">
    <path id="Path_12217" data-name="Path 12217" d="M105.683,209.366a14.683,14.683,0,1,1,14.683-14.683A14.7,14.7,0,0,1,105.683,209.366Zm0-23.493a8.81,8.81,0,1,0,8.81,8.81A8.82,8.82,0,0,0,105.683,185.873Zm0,0" transform="translate(-91 -180)" fill="#8e66ff"/>
    <path id="Path_12218" data-name="Path 12218" d="M285.683,209.366a14.683,14.683,0,1,1,14.683-14.683A14.7,14.7,0,0,1,285.683,209.366Zm0-23.493a8.81,8.81,0,1,0,8.81,8.81A8.82,8.82,0,0,0,285.683,185.873Zm0,0" transform="translate(-235.761 -180)" fill="#8e66ff"/>
  </g>
</svg>
