<svg xmlns="http://www.w3.org/2000/svg" width="53.025" height="45.186" viewBox="0 0 53.025 45.186">
  <g id="quote" transform="translate(0)">
    <path id="Path_6241" data-name="Path 6241" d="M14.413,7.178a12.416,12.416,0,0,1,12.4,12.4v.062c0,.041.005.1.01.183.255,4.5-.482,16.665-12.786,32.248a.758.758,0,0,1-1.311-.714c.035-.1,3.4-10.176,1.1-19.392a12.4,12.4,0,0,1,.588-24.792ZM25.3,19.538a10.888,10.888,0,1,0-10.888,10.93.757.757,0,0,1,.73.557c1.742,6.341.888,12.992.022,17.028,9.76-13.672,10.373-24.107,10.145-28.141a3.206,3.206,0,0,1-.009-.373Z" transform="translate(26.163 -7.177)" fill="#ff723a"/>
    <path id="Path_6242" data-name="Path 6242" d="M51.6,7.178A12.416,12.416,0,0,1,64,19.581v.062c0,.041.005.1.01.183.255,4.5-.482,16.665-12.786,32.248a.758.758,0,0,1-1.311-.714c.035-.1,3.4-10.176,1.1-19.392A12.4,12.4,0,0,1,51.6,7.177Zm10.888,12.36A10.888,10.888,0,1,0,51.6,30.468a.757.757,0,0,1,.73.557c1.742,6.341.888,12.992.022,17.028C62.111,34.381,62.724,23.945,62.5,19.911a3.206,3.206,0,0,1-.01-.373Z" transform="translate(-39.192 -7.177)" fill="#ff723a"/>
  </g>
</svg>
