<svg xmlns="http://www.w3.org/2000/svg" width="72.703" height="53.679" viewBox="0 0 72.703 53.679">
  <g id="Group_23" data-name="Group 23" transform="translate(-678.297 -8202.232)">
    <path id="Path_133" data-name="Path 133" d="M0,50.506H17.634c-.3,12.851-3.947,14.31-8.525,14.727l-1.765.219V79.583l2.035-.109c5.978-.336,12.587-1.414,17-6.858,3.865-4.772,5.569-12.568,5.569-24.536V25.9H0Z" transform="translate(678.297 8176.327)" fill="#ff723a"/>
    <path id="Path_134" data-name="Path 134" d="M111,25.9v24.6h17.4c-.3,12.851-3.829,14.31-8.407,14.727l-1.648.219V79.583l1.917-.109c5.978-.336,12.647-1.414,17.056-6.858,3.865-4.772,5.628-12.568,5.628-24.536V25.9Z" transform="translate(608.055 8176.327)" fill="#ff723a"/>
  </g>
</svg>
