<svg xmlns="http://www.w3.org/2000/svg" width="18.627" height="20.778" viewBox="0 0 18.627 20.778">
  <g id="shield-check" transform="translate(-2.872 -1.125)">
    <path id="Path_612" data-name="Path 612" d="M8.644,3.19Q6.743,3.7,4.869,4.3a.629.629,0,0,0-.436.507,15.389,15.389,0,0,0,3,11.932,14.115,14.115,0,0,0,3.043,2.9,8.315,8.315,0,0,0,1.187.693,3,3,0,0,0,.39.152,1.012,1.012,0,0,0,.135.034.8.8,0,0,0,.134-.032,3.257,3.257,0,0,0,.39-.154,8.281,8.281,0,0,0,1.187-.693,14.125,14.125,0,0,0,3.043-2.9,15.384,15.384,0,0,0,3-11.932A.629.629,0,0,0,19.5,4.3c-.867-.277-2.33-.728-3.774-1.111a17.8,17.8,0,0,0-3.542-.68A17.78,17.78,0,0,0,8.644,3.19ZM8.289,1.853a18.54,18.54,0,0,1,3.9-.728,18.588,18.588,0,0,1,3.9.727q1.933.519,3.84,1.129a2.015,2.015,0,0,1,1.389,1.64,16.781,16.781,0,0,1-3.279,12.972,15.5,15.5,0,0,1-3.35,3.186,9.616,9.616,0,0,1-1.4.812,2.878,2.878,0,0,1-1.1.312,2.878,2.878,0,0,1-1.1-.312,9.569,9.569,0,0,1-1.4-.812,15.5,15.5,0,0,1-3.348-3.186A16.774,16.774,0,0,1,3.06,4.621a2.014,2.014,0,0,1,1.389-1.64q1.906-.61,3.84-1.129Z" transform="translate(0)" fill="#fff" fill-rule="evenodd"/>
    <path id="Path_613" data-name="Path 613" d="M19.79,13.7a.693.693,0,0,1,0,.981l-4.156,4.156a.693.693,0,0,1-.981,0L12.576,16.76a.693.693,0,1,1,.981-.981l1.588,1.588L18.81,13.7a.693.693,0,0,1,.981,0Z" transform="translate(-3.652 -4.756)" fill="#fff" fill-rule="evenodd"/>
  </g>
</svg>
