<svg xmlns="http://www.w3.org/2000/svg" width="88.392" height="80.723" viewBox="0 0 88.392 80.723">
  <g id="career-path" transform="translate(-1.851 -3.957)">
    <path id="Path_12269" data-name="Path 12269" d="M34.2,12.66a15.886,15.886,0,0,1,4.3,3.047,7.466,7.466,0,0,0-2.688-5.376A9.084,9.084,0,0,0,29.9,8a8.908,8.908,0,0,0-5.914,2.151A7.466,7.466,0,0,0,21.3,15.527c2.867-2.688,5.735-3.943,8.781-3.943A9.415,9.415,0,0,1,34.2,12.66Z" transform="translate(15.406 3.202)" fill="#1b212f"/>
    <path id="Path_12270" data-name="Path 12270" d="M3.014,35.4A14.436,14.436,0,0,0,5.165,50.271a15.575,15.575,0,0,0,6.272,4.48,9.359,9.359,0,0,0,3.763.717h3.763l12.9-.538c0,2.33-.179,4.48-.179,6.81,0,3.763.179,7.706.358,11.47A83.58,83.58,0,0,0,33.48,84.68c.717-3.763,1.075-7.706,1.434-11.47V71.776a22.968,22.968,0,0,0,4.839.9c2.151.179,4.122.358,6.272.358s4.122-.179,6.272-.358a45.837,45.837,0,0,0,4.839-.9V73.21A83.58,83.58,0,0,0,58.57,84.68c.717-3.763,1.075-7.706,1.434-11.47s.358-7.706.358-11.47c0-2.33,0-4.48-.179-6.81,4.3.179,8.781.358,13.083.538a26.378,26.378,0,0,0,3.763,0,15.1,15.1,0,0,0,10.036-5.376,15.073,15.073,0,0,0,3.047-7.169,13.413,13.413,0,0,0-1.254-7.885,14.76,14.76,0,0,0-11.47-8.423,11.31,11.31,0,0,0-1.434-4.122,12.355,12.355,0,0,0-3.943-4.122,12.719,12.719,0,0,0-9.14-1.792,20.57,20.57,0,0,0-5.376-8.244,19.879,19.879,0,0,0-10.574-4.3,17.984,17.984,0,0,0-11.29,2.688,19.2,19.2,0,0,0-6.81,7.348,15.551,15.551,0,0,0-5.018-.179,13.019,13.019,0,0,0-5.914,2.867A12.387,12.387,0,0,0,14.3,22.134a11.221,11.221,0,0,0-.538,4.839A14.723,14.723,0,0,0,3.014,35.4Zm53.764,22.76a39.629,39.629,0,0,0-4.48-.9c-2.151-.179-4.122-.358-6.272-.358s-4.122.179-6.272.358a39.629,39.629,0,0,0-4.48.9c0-2.688-.179-5.2-.358-7.885a32.186,32.186,0,0,0-.358-3.943,26.813,26.813,0,0,0,5.2,1.075c2.151.179,4.122.358,6.272.358s4.122-.179,6.272-.358a26.813,26.813,0,0,0,5.2-1.075c-.179,1.254-.179,2.509-.358,3.943-.179,2.688-.358,5.376-.358,7.885ZM52.3,69.984c-2.151-.179-4.122-.358-6.272-.358s-4.122.179-6.272.358a35.785,35.785,0,0,0-4.66.9c.179-3.047.179-6.093.358-9.14V59.231a39.63,39.63,0,0,0,4.48.9c2.151.179,4.122.358,6.272.358s4.122-.179,6.272-.358a39.63,39.63,0,0,0,4.48-.9V61.74c0,3.047.179,6.093.358,9.14C55.344,70.522,53.911,70.163,52.3,69.984ZM15.738,29.661h.179a1.491,1.491,0,0,0,1.075-1.792,8.315,8.315,0,0,1,.358-4.66,9.7,9.7,0,0,1,2.688-3.943,7.922,7.922,0,0,1,4.3-1.971,8.222,8.222,0,0,1,4.66.538,1.582,1.582,0,0,0,2.151-.9,15.4,15.4,0,0,1,6.093-6.989A16.084,16.084,0,0,1,46.384,7.8a16.128,16.128,0,0,1,8.6,3.584,15.589,15.589,0,0,1,4.839,8.065v.179a1.582,1.582,0,0,0,2.151.9,8.781,8.781,0,0,1,7.885.717,8.987,8.987,0,0,1,4.122,6.989,1.542,1.542,0,0,0,1.434,1.434A12.2,12.2,0,0,1,85.99,36.292a12.262,12.262,0,0,1-1.075,12.724,12.78,12.78,0,0,1-5.376,4.3,10.606,10.606,0,0,1-3.405.9,22.849,22.849,0,0,1-3.584.179c-4.3.179-8.781.358-13.083.538,0-1.434-.179-3.047-.179-4.48a83.58,83.58,0,0,0-1.434-11.47c-.538,2.33-.717,4.66-1.075,6.989a29.859,29.859,0,0,0-5.2-1.075c-2.151-.179-4.122-.358-6.272-.358s-4.122.179-6.272.358a24.309,24.309,0,0,0-5.2,1.075,47.117,47.117,0,0,0-1.075-6.989c-.717,3.763-1.075,7.706-1.434,11.47a37.46,37.46,0,0,0-.179,4.48l-12.9-.538a22.849,22.849,0,0,1-3.584-.179,11.982,11.982,0,0,1-3.405-.9A13.55,13.55,0,0,1,5.882,49.2,12.143,12.143,0,0,1,4.627,36.471c2.688-3.943,6.81-6.81,11.111-6.81Z" transform="translate(0 0)" fill="#1b212f"/>
  </g>
</svg>
