<svg xmlns="http://www.w3.org/2000/svg" width="73.265" height="184.185" viewBox="0 0 73.265 184.185">
  <g id="Group_3058" data-name="Group 3058" transform="translate(1398.54 -546.961)" opacity="0.3">
    <g id="Group_3019" data-name="Group 3019" transform="translate(-1395.751 547.699)">
      <path id="Path_11717" data-name="Path 11717" d="M87.793,179.605l-14.741,4.182" transform="translate(-25.397 -165.643)" fill="none" stroke="#ff723a" stroke-miterlimit="10" stroke-width="1.5"/>
      <path id="Path_11718" data-name="Path 11718" d="M63.576,181.527l-34.7-12.318L56.5,186.593" transform="translate(-16.352 -163.514)" fill="none" stroke="#ff723a" stroke-miterlimit="10" stroke-width="1.5"/>
      <path id="Path_11719" data-name="Path 11719" d="M76.265,174.454q-30.656-6.8-61.561-12.406" transform="translate(-13.451 -162.048)" fill="none" stroke="#ff723a" stroke-miterlimit="10" stroke-width="1.5"/>
      <path id="Path_11720" data-name="Path 11720" d="M59.32,191.69q-8.513.409-16.981,1.411" transform="translate(-19.109 -168.117)" fill="none" stroke="#ff723a" stroke-miterlimit="10" stroke-width="1.5"/>
      <path id="Path_11721" data-name="Path 11721" d="M13.128,162.316a316.853,316.853,0,0,0,25.2,26.132" transform="translate(-13.128 -162.103)" fill="none" stroke="#ff723a" stroke-miterlimit="10" stroke-width="1.5"/>
      <path id="Path_11722" data-name="Path 11722" d="M74.524,186.074a130,130,0,0,0,.687,15.629" transform="translate(-25.694 -166.967)" fill="none" stroke="#ff723a" stroke-miterlimit="10" stroke-width="1.5"/>
      <path id="Path_11723" data-name="Path 11723" d="M64.523,191.082,72.6,203.015" transform="translate(-23.65 -167.992)" fill="none" stroke="#ff723a" stroke-miterlimit="10" stroke-width="1.5"/>
      <path id="Path_11724" data-name="Path 11724" d="M70.394,203.225q-7.273-5.824-15.038-11" transform="translate(-21.774 -168.227)" fill="none" stroke="#ff723a" stroke-miterlimit="10" stroke-width="1.5"/>
    </g>
    <path id="Path_11750" data-name="Path 11750" d="M63.8,212.751a24.178,24.178,0,0,1,11.029,34.771c-4.034,6.617-10.979,10.9-18.025,14.124-7.8,3.572-16.54,6.188-24.913,4.306S15.976,256.4,16.829,247.859a8.988,8.988,0,0,1,3.109-6.312c3.291-2.527,8.024-1.4,11.869.162,16.319,6.627,29.912,19,39.848,33.541,4.265,6.244,7.942,12.984,9.907,20.286a47.712,47.712,0,0,1-27.05,56.154c-8.19,3.56-17.816,4.7-26.03,1.191s-14.385-12.372-13.044-21.2" transform="translate(-1409.314 375.27)" fill="none" stroke="#ff723a" stroke-linecap="round" stroke-miterlimit="10" stroke-width="1.5" stroke-dasharray="9.738"/>
    <path id="Path_11811" data-name="Path 11811" d="M10.4,164.96a86.283,86.283,0,0,0,6.556,8.365" transform="translate(-1408.319 385.055)" fill="none" stroke="#ff723a" stroke-miterlimit="10" stroke-width="1.5"/>
    <path id="Path_11812" data-name="Path 11812" d="M22.337,182.017l4.522,5.652" transform="translate(-1410.764 381.563)" fill="none" stroke="#ff723a" stroke-miterlimit="10" stroke-width="1.5"/>
    <path id="Path_11937" data-name="Path 11937" d="M42.877,173.4a20.632,20.632,0,0,0,2.321,4.577" transform="translate(-1414.969 383.327)" fill="none" stroke="#ff723a" stroke-miterlimit="10" stroke-width="1.5"/>
    <path id="Path_11938" data-name="Path 11938" d="M47.991,176.656a47.7,47.7,0,0,0,2.631,7.435" transform="translate(-1416.016 382.66)" fill="none" stroke="#ff723a" stroke-miterlimit="10" stroke-width="1.5"/>
    <path id="Path_11939" data-name="Path 11939" d="M51.386,177.629q1.744,4.147,3.49,8.293" transform="translate(-1416.711 382.461)" fill="none" stroke="#ff723a" stroke-miterlimit="10" stroke-width="1.5"/>
    <path id="Path_11940" data-name="Path 11940" d="M57.4,180.937a55.507,55.507,0,0,1,3.014,6.43" transform="translate(-1417.942 381.784)" fill="none" stroke="#ff723a" stroke-miterlimit="10" stroke-width="1.5"/>
    <path id="Path_11941" data-name="Path 11941" d="M61.465,181.941q1.62,6.182,3.584,12.267" transform="translate(-1418.775 381.578)" fill="none" stroke="#ff723a" stroke-miterlimit="10" stroke-width="1.5"/>
    <path id="Path_11942" data-name="Path 11942" d="M64.545,183.2c.157-.2.441.1.512.341q1.677,5.741,3.229,11.519" transform="translate(-1419.406 381.335)" fill="none" stroke="#ff723a" stroke-miterlimit="10" stroke-width="1.5"/>
    <path id="Path_11943" data-name="Path 11943" d="M69.154,184.495a49.639,49.639,0,0,0,3.133,10.624" transform="translate(-1420.349 381.055)" fill="none" stroke="#ff723a" stroke-miterlimit="10" stroke-width="1.5"/>
  </g>
</svg>
