<svg xmlns="http://www.w3.org/2000/svg" width="63.388" height="64.716" viewBox="0 0 63.388 64.716">
  <g id="Group_3056" data-name="Group 3056" transform="translate(1300.973 -625.435)" opacity="0.3">
    <g id="Group_3015" data-name="Group 3015" transform="translate(-1300.223 625.922)">
      <path id="Path_11664" data-name="Path 11664" d="M132.084,240.271a22.784,22.784,0,0,0-4.905,19.184c1.4,6.69,4.828,13.374,14.967,16.371,15.376,4.544,20.284-6.221,25.6-21.721" transform="translate(-114.296 -240.271)" fill="none" stroke="#ff723a" stroke-miterlimit="10" stroke-width="1.5"/>
      <path id="Path_11665" data-name="Path 11665" d="M123.41,245.31c-5.6-2.025-8.7-2.329-11.4-.25a9.669,9.669,0,0,0-2.448,3.065c-1.424,2.584-3.047,10.214,1.688,12.5a19.3,19.3,0,0,0,9.96,2.164" transform="translate(-108.097 -241.392)" fill="none" stroke="#ff723a" stroke-miterlimit="10" stroke-width="1.5"/>
      <path id="Path_11666" data-name="Path 11666" d="M139.426,290.557a6.109,6.109,0,0,0-1.771,3.839,1.983,1.983,0,0,0,.13,1.015,2.2,2.2,0,0,0,.835.815,15.318,15.318,0,0,0,6.681,2.411,5.6,5.6,0,0,0,4.159-.835c1.131-.911,1.457-2.88.316-3.778" transform="translate(-117.933 -257.012)" fill="none" stroke="#ff723a" stroke-miterlimit="10" stroke-width="1.5"/>
      <path id="Path_11667" data-name="Path 11667" d="M135.749,300.619a30.469,30.469,0,0,1-2.995,7.972,12.078,12.078,0,0,1-5.455,5.071,2.907,2.907,0,0,1-2.784.044" transform="translate(-113.562 -260.361)" fill="none" stroke="#ff723a" stroke-miterlimit="10" stroke-width="1.5"/>
      <path id="Path_11668" data-name="Path 11668" d="M147.388,302.755a25.694,25.694,0,0,0-1.066,14.791,4.342,4.342,0,0,0,.7,1.611,1.685,1.685,0,0,0,1.536.691" transform="translate(-120.608 -261.073)" fill="none" stroke="#ff723a" stroke-miterlimit="10" stroke-width="1.5"/>
      <path id="Path_11669" data-name="Path 11669" d="M118.692,319.164c8.034,2.456,16.661,5.4,24.7,7.855l-1.242,2.311a1.246,1.246,0,0,1-.52.6.925.925,0,0,1-.626.042c-3.561-1.049-19.257-6.822-23.166-8.567.4-1,.457-1.24.859-2.243" transform="translate(-111.338 -266.535)" fill="none" stroke="#ff723a" stroke-miterlimit="10" stroke-width="1.5"/>
      <path id="Path_11670" data-name="Path 11670" d="M123.073,248.712c-1.967-.538-3.894-1.043-5.473-.654a6.668,6.668,0,0,0-5.23,5.136c-.24,1.081-1.271,4.063,1.269,6.065a11.521,11.521,0,0,0,8.445,2.123" transform="translate(-109.382 -242.818)" fill="none" stroke="#ff723a" stroke-miterlimit="10" stroke-width="1.5"/>
      <path id="Path_11671" data-name="Path 11671" d="M182.2,266.605c5.706,1.7,8.38,3.3,9.315,6.576a9.644,9.644,0,0,1,.146,3.92c-.39,2.924-3.621,10.025-8.79,9.05a19.289,19.289,0,0,1-9.3-4.181" transform="translate(-129.894 -249.038)" fill="none" stroke="#ff723a" stroke-miterlimit="10" stroke-width="1.5"/>
      <path id="Path_11672" data-name="Path 11672" d="M182.347,270.014c1.9.737,4.737,1.757,5.776,3.008a6.669,6.669,0,0,1,1.152,7.239c-.449,1.012-1.393,4.023-4.626,4.122a11.52,11.52,0,0,1-8.053-3.313" transform="translate(-130.9 -250.173)" fill="none" stroke="#ff723a" stroke-miterlimit="10" stroke-width="1.5"/>
      <path id="Path_11673" data-name="Path 11673" d="M135.47,241.046c12.786,3.709,26.856,10.109,35.192,13.316" transform="translate(-117.209 -240.529)" fill="none" stroke="#ff723a" stroke-miterlimit="10" stroke-width="1.5"/>
      <path id="Path_11674" data-name="Path 11674" d="M151.013,258.846l-6.249,4.017c-.16.1-.338.235-.344.426a.6.6,0,0,0,.183.374l2.264,2.712a9.615,9.615,0,0,1,2.511-1.441,32.487,32.487,0,0,0-2.264,6.439,8.373,8.373,0,0,0-4.227-1.157l-.538,2.445a.321.321,0,0,0,.255.466q5.2,1.763,10.543,3.017l.55-1.984a.253.253,0,0,0-.226-.38q-1.515-.394-2.991-.919a.723.723,0,0,1-.38-.236.732.732,0,0,1-.011-.6c1.137-4.086,2.932-7.98,3.838-12.124a1.14,1.14,0,0,0-.153-1.1,1.094,1.094,0,0,0-.6-.215,12.822,12.822,0,0,0-2.383-.1" transform="translate(-119.491 -246.329)" fill="none" stroke="#ff723a" stroke-miterlimit="10" stroke-width="1.5"/>
      <path id="Path_11675" data-name="Path 11675" d="M177.656,265.467a62.109,62.109,0,0,1-4.465,9.1c-1.059,1.776-2.349,3.612-4.309,4.272" transform="translate(-128.333 -248.659)" fill="none" stroke="#ff723a" stroke-miterlimit="10" stroke-width="1.5"/>
      <path id="Path_11676" data-name="Path 11676" d="M161.712,289.808a8.1,8.1,0,0,1-3.915.312" transform="translate(-124.642 -256.762)" fill="none" stroke="#ff723a" stroke-miterlimit="10" stroke-width="1.5"/>
      <path id="Path_11677" data-name="Path 11677" d="M151.938,297.491a.92.92,0,0,1-.08,1.344,2.664,2.664,0,0,1-1.419.523" transform="translate(-122.193 -259.32)" fill="none" stroke="#ff723a" stroke-miterlimit="10" stroke-width="1.5"/>
      <path id="Path_11678" data-name="Path 11678" d="M143.437,306.974a25.224,25.224,0,0,0-.9,4.049,8.44,8.44,0,0,0,.455,4.085" transform="translate(-119.54 -262.477)" fill="none" stroke="#ff723a" stroke-miterlimit="10" stroke-width="1.5"/>
    </g>
    <path id="Path_11806" data-name="Path 11806" d="M152.807,242.31a48.777,48.777,0,0,0,12.154,5.846" transform="translate(-1423.204 384.972)" fill="none" stroke="#ff723a" stroke-miterlimit="10" stroke-width="1.5"/>
    <path id="Path_11807" data-name="Path 11807" d="M188.045,255.691l2.48,1.686" transform="translate(-1434.935 380.518)" fill="none" stroke="#ff723a" stroke-miterlimit="10" stroke-width="1.5"/>
    <path id="Path_11808" data-name="Path 11808" d="M162.765,298.189a7.178,7.178,0,0,0,4.17-1.056" transform="translate(-1426.519 366.721)" fill="none" stroke="#ff723a" stroke-miterlimit="10" stroke-width="1.5"/>
    <path id="Path_11809" data-name="Path 11809" d="M126.03,279.254a14.483,14.483,0,0,0,3.475,7.376" transform="translate(-1414.29 372.673)" fill="none" stroke="#ff723a" stroke-miterlimit="10" stroke-width="1.5"/>
    <path id="Path_11810" data-name="Path 11810" d="M131.2,305.953a9.11,9.11,0,0,1-4.516,5.523" transform="translate(-1414.506 363.785)" fill="none" stroke="#ff723a" stroke-miterlimit="10" stroke-width="1.5"/>
    <path id="Path_11898" data-name="Path 11898" d="M132.119,245.249a71.462,71.462,0,0,0-4.78,9.723" transform="translate(-1414.725 383.994)" fill="none" stroke="#ff723a" stroke-miterlimit="10" stroke-width="1.5"/>
    <path id="Path_11899" data-name="Path 11899" d="M133.381,252.446q-2.788,5.946-5.577,11.891" transform="translate(-1414.88 381.598)" fill="none" stroke="#ff723a" stroke-miterlimit="10" stroke-width="1.5"/>
    <path id="Path_11900" data-name="Path 11900" d="M133.977,263.9l-3.93,9.994" transform="translate(-1415.627 377.785)" fill="none" stroke="#ff723a" stroke-miterlimit="10" stroke-width="1.5"/>
    <path id="Path_11901" data-name="Path 11901" d="M136.768,268.414l-2.728,8.78" transform="translate(-1416.956 376.282)" fill="none" stroke="#ff723a" stroke-miterlimit="10" stroke-width="1.5"/>
    <path id="Path_11902" data-name="Path 11902" d="M140.466,278.881a7.132,7.132,0,0,0-.924,3.932" transform="translate(-1418.784 372.797)" fill="none" stroke="#ff723a" stroke-miterlimit="10" stroke-width="1.5"/>
    <path id="Path_11903" data-name="Path 11903" d="M143.9,282.041l-1.235,4.838" transform="translate(-1419.826 371.745)" fill="none" stroke="#ff723a" stroke-miterlimit="10" stroke-width="1.5"/>
    <path id="Path_11904" data-name="Path 11904" d="M149.094,286.6a8.176,8.176,0,0,0-.926,3.327" transform="translate(-1421.66 370.229)" fill="none" stroke="#ff723a" stroke-miterlimit="10" stroke-width="1.5"/>
    <path id="Path_11905" data-name="Path 11905" d="M156.053,286.59q-.3,1.666-.606,3.331" transform="translate(-1424.083 370.231)" fill="none" stroke="#ff723a" stroke-miterlimit="10" stroke-width="1.5"/>
    <path id="Path_11906" data-name="Path 11906" d="M158.17,296.122" transform="translate(-1424.989 367.058)" fill="none" stroke="#ff723a" stroke-miterlimit="10" stroke-width="1.5"/>
    <path id="Path_11907" data-name="Path 11907" d="M141.209,290.671l-2.145,2.705" transform="translate(-1418.629 368.872)" fill="none" stroke="#ff723a" stroke-miterlimit="10" stroke-width="1.5"/>
    <path id="Path_11908" data-name="Path 11908" d="M141.479,294.4a22.756,22.756,0,0,1-3.792,5.352" transform="translate(-1418.17 367.632)" fill="none" stroke="#ff723a" stroke-miterlimit="10" stroke-width="1.5"/>
    <path id="Path_11909" data-name="Path 11909" d="M141.983,299.3l-2.422,3.634" transform="translate(-1418.794 366)" fill="none" stroke="#ff723a" stroke-miterlimit="10" stroke-width="1.5"/>
  </g>
</svg>
