<svg id="ambulance" xmlns="http://www.w3.org/2000/svg" width="50.843" height="50.843" viewBox="0 0 50.843 50.843">
  <path id="Path_12184" data-name="Path 12184" d="M218.448,99.937H212.49a1.489,1.489,0,0,1-1.49-1.49V95.469a4.469,4.469,0,1,1,8.937,0v2.979A1.489,1.489,0,0,1,218.448,99.937Zm-4.469-2.979h2.979v-1.49a1.49,1.49,0,0,0-2.979,0Zm0,0" transform="translate(-190.047 -81.963)" fill="#f14d5d"/>
  <path id="Path_12185" data-name="Path 12185" d="M49.353,334.979H1.49a1.49,1.49,0,1,1,0-2.979H49.353a1.49,1.49,0,1,1,0,2.979Zm0,0" transform="translate(0 -299.032)" fill="#f14d5d"/>
  <path id="Path_12186" data-name="Path 12186" d="M257.484,162.916H243.979V152.49a1.49,1.49,0,0,0-2.979,0v11.916a1.489,1.489,0,0,0,1.49,1.49h14.995a1.49,1.49,0,0,0,0-2.979Zm0,0" transform="translate(-217.068 -136.005)" fill="#8e66ff"/>
  <g id="Group_3080" data-name="Group 3080" transform="translate(0 14.995)">
    <path id="Path_12187" data-name="Path 12187" d="M168.41,424.979H149.928a1.49,1.49,0,0,1,0-2.979H168.41a1.49,1.49,0,0,1,0,2.979Zm0,0" transform="translate(-133.698 -395.089)" fill="#ff723a"/>
    <path id="Path_12188" data-name="Path 12188" d="M1.49,171.953A1.489,1.489,0,0,1,0,170.463V155.469A4.474,4.474,0,0,1,4.469,151H35.111a4.461,4.461,0,0,1,4.335,3.385l2.415,9.66a1.489,1.489,0,1,1-2.89.722l-2.415-9.659a1.487,1.487,0,0,0-1.445-1.128H4.469a1.491,1.491,0,0,0-1.49,1.49v14.995a1.489,1.489,0,0,1-1.49,1.49Zm0,0" transform="translate(0 -151)" fill="#ff723a"/>
    <path id="Path_12189" data-name="Path 12189" d="M402.427,280.036a1.489,1.489,0,0,1-1.49-1.49,4.58,4.58,0,0,0-4.469-4.568H393.49a1.49,1.49,0,1,1,0-2.979h2.979a7.335,7.335,0,0,1,5.278,2.243,7.549,7.549,0,0,1,2.169,5.3A1.489,1.489,0,0,1,402.427,280.036Zm0,0" transform="translate(-353.073 -259.084)" fill="#ff723a"/>
    <path id="Path_12190" data-name="Path 12190" d="M427.14,343.916h-6.213a1.49,1.49,0,0,1,0-2.979h4.723V333.49a1.49,1.49,0,0,1,2.979,0v8.937A1.489,1.489,0,0,1,427.14,343.916Zm0,0" transform="translate(-377.786 -314.026)" fill="#ff723a"/>
    <path id="Path_12191" data-name="Path 12191" d="M7.8,343.916H1.49A1.489,1.489,0,0,1,0,342.427V333.49a1.49,1.49,0,0,1,2.979,0v7.448H7.8a1.49,1.49,0,1,1,0,2.979Zm0,0" transform="translate(0 -314.026)" fill="#ff723a"/>
  </g>
  <path id="Path_12192" data-name="Path 12192" d="M98.448,213.979h-1.49v-1.49a1.49,1.49,0,0,0-2.979,0v1.49H92.49a1.49,1.49,0,0,0,0,2.979h1.49v1.49a1.49,1.49,0,1,0,2.979,0v-1.49h1.49a1.49,1.49,0,0,0,0-2.979Zm0,0" transform="translate(-81.963 -190.047)" fill="#f14d5d"/>
  <path id="Path_12193" data-name="Path 12193" d="M242.49,6.057A1.489,1.489,0,0,1,241,4.568V1.49a1.49,1.49,0,1,1,2.979,0V4.568A1.489,1.489,0,0,1,242.49,6.057Zm0,0" transform="translate(-217.068)" fill="#8e66ff"/>
  <path id="Path_12194" data-name="Path 12194" d="M295.523,36.84A1.49,1.49,0,0,1,294.47,34.3l2.107-2.106a1.489,1.489,0,0,1,2.106,2.106L296.577,36.4A1.485,1.485,0,0,1,295.523,36.84Zm0,0" transform="translate(-264.836 -28.601)" fill="#8e66ff"/>
  <path id="Path_12195" data-name="Path 12195" d="M170.35,36.84A1.485,1.485,0,0,1,169.3,36.4L167.191,34.3A1.489,1.489,0,0,1,169.3,32.19L171.4,34.3a1.49,1.49,0,0,1-1.053,2.543Zm0,0" transform="translate(-150.195 -28.601)" fill="#8e66ff"/>
  <path id="Path_12196" data-name="Path 12196" d="M66.958,403.916a5.958,5.958,0,1,1,5.958-5.958A5.965,5.965,0,0,1,66.958,403.916Zm0-8.937a2.979,2.979,0,1,0,2.979,2.979A2.982,2.982,0,0,0,66.958,394.979Zm0,0" transform="translate(-54.943 -353.073)" fill="#8e66ff"/>
  <path id="Path_12197" data-name="Path 12197" d="M337.958,403.916a5.958,5.958,0,1,1,5.958-5.958A5.965,5.965,0,0,1,337.958,403.916Zm0-8.937a2.979,2.979,0,1,0,2.979,2.979A2.982,2.982,0,0,0,337.958,394.979Zm0,0" transform="translate(-299.032 -353.073)" fill="#8e66ff"/>
</svg>
