<svg xmlns="http://www.w3.org/2000/svg" width="17.223" height="20.094" viewBox="0 0 17.223 20.094">
  <g id="catalog" transform="translate(-4.5 -2.25)">
    <path id="Path_12169" data-name="Path 12169" d="M20.288,2.25H7.371A1.435,1.435,0,0,0,5.935,3.685V6.556H4.5V7.991H5.935v3.588H4.5v1.435H5.935V16.6H4.5v1.435H5.935v2.871a1.435,1.435,0,0,0,1.435,1.435H20.288a1.435,1.435,0,0,0,1.435-1.435V3.685A1.435,1.435,0,0,0,20.288,2.25Zm0,18.658H7.371V18.038H8.806V16.6H7.371V13.014H8.806V11.579H7.371V7.991H8.806V6.556H7.371V3.685H20.288Z" fill="#fff"/>
    <path id="Path_12170" data-name="Path 12170" d="M15.75,9h5.741v1.435H15.75Z" transform="translate(-4.074 -2.444)" fill="#fff"/>
    <path id="Path_12171" data-name="Path 12171" d="M15.75,16.875h5.741V18.31H15.75Z" transform="translate(-4.074 -5.296)" fill="#fff"/>
    <path id="Path_12172" data-name="Path 12172" d="M15.75,24.75h5.741v1.435H15.75Z" transform="translate(-4.074 -8.147)" fill="#fff"/>
  </g>
</svg>
