<svg xmlns="http://www.w3.org/2000/svg" width="50.665" height="50.423" viewBox="0 0 50.665 50.423">
  <g id="chart" transform="translate(0 -1.223)">
    <path id="Path_11509" data-name="Path 11509" d="M6.487,42.274q-.055,0-.11,0a1.652,1.652,0,0,1-1.2-.645A25,25,0,0,1,0,26.314,25.351,25.351,0,0,1,21.8,1.24,1.652,1.652,0,0,1,23.68,2.876V12.943a1.652,1.652,0,0,1-1.255,1.6A12.106,12.106,0,0,0,15.009,32.64a1.652,1.652,0,0,1-.239,2.035L7.656,41.79A1.653,1.653,0,0,1,6.487,42.274ZM20.376,4.858A22.106,22.106,0,0,0,3.3,26.314,21.708,21.708,0,0,0,6.711,38.061l4.841-4.841a15.386,15.386,0,0,1,1.7-16.481,15.558,15.558,0,0,1,7.125-5.03Z" transform="translate(0 -0.001)" fill="#8e66ff"/>
    <path id="Path_11510" data-name="Path 11510" d="M112.082,372.376a25.068,25.068,0,0,1-15.144-5.044,1.652,1.652,0,0,1-.178-2.49l7.126-7.137a1.652,1.652,0,0,1,2.018-.25,12.08,12.08,0,0,0,12.437-.039,1.652,1.652,0,0,1,2.025.245l7.115,7.115a1.652,1.652,0,0,1-.17,2.485A25,25,0,0,1,112.082,372.376Zm-11.58-6.605a21.951,21.951,0,0,0,23.244-.057l-4.842-4.842a15.4,15.4,0,0,1-13.551.04Z" transform="translate(-86.75 -320.73)" fill="#ff723a"/>
    <path id="Path_11511" data-name="Path 11511" d="M289.943,42.2a1.652,1.652,0,0,1-1.168-.484L281.66,34.6a1.652,1.652,0,0,1-.245-2.025,12.119,12.119,0,0,0-7.465-18.026,1.652,1.652,0,0,1-1.255-1.6V2.875a1.652,1.652,0,0,1,1.879-1.636,25.351,25.351,0,0,1,21.8,25.074,25,25,0,0,1-5.116,15.228,1.652,1.652,0,0,1-1.2.65C290.018,42.194,289.981,42.2,289.943,42.2Zm-5.071-9.06,4.842,4.842a21.709,21.709,0,0,0,3.357-11.664A22.106,22.106,0,0,0,276,4.857v6.851a15.557,15.557,0,0,1,7.125,5.03,15.41,15.41,0,0,1,1.748,16.4Z" transform="translate(-245.711 0)" fill="#f14d5d"/>
    <path id="Path_11512" data-name="Path 11512" d="M211.831,148.129c-1.285-.921-2.614-1.873-2.614-2.787a1.652,1.652,0,0,1,3.3,0,1.652,1.652,0,1,0,3.3,0,4.964,4.964,0,0,0-3.3-4.672v-1.11a1.652,1.652,0,1,0-3.3,0v1.11a4.964,4.964,0,0,0-3.3,4.672c0,2.612,2.215,4.2,3.994,5.473,1.285.921,2.614,1.873,2.614,2.787a1.652,1.652,0,0,1-3.3,0,1.652,1.652,0,1,0-3.3,0,4.964,4.964,0,0,0,3.3,4.672v1.11a1.652,1.652,0,1,0,3.3,0v-1.11a4.964,4.964,0,0,0,3.3-4.672C215.826,150.99,213.611,149.4,211.831,148.129Z" transform="translate(-185.537 -123.159)" fill="#ff723a"/>
  </g>
</svg>
