<svg id="code" xmlns="http://www.w3.org/2000/svg" width="91.899" height="80.771" viewBox="0 0 91.899 80.771">
  <path id="Path_11520" data-name="Path 11520" d="M89.207,125.385H2.692a2.692,2.692,0,0,1,0-5.385H89.207a2.692,2.692,0,1,1,0,5.385Zm0,0" transform="translate(0 -98.461)" fill="#f14d5d"/>
  <path id="Path_11521" data-name="Path 11521" d="M83.822,80.771H8.077A8.086,8.086,0,0,1,0,72.694V8.077A8.086,8.086,0,0,1,8.077,0H83.822A8.086,8.086,0,0,1,91.9,8.077V72.694A8.086,8.086,0,0,1,83.822,80.771ZM8.077,5.385A2.7,2.7,0,0,0,5.385,8.077V72.694a2.7,2.7,0,0,0,2.692,2.692H83.822a2.7,2.7,0,0,0,2.692-2.692V8.077a2.7,2.7,0,0,0-2.692-2.692Zm0,0" transform="translate(0 0)" fill="#ff723a"/>
  <g id="Group_2994" data-name="Group 2994" transform="translate(16.334 32.308)">
    <path id="Path_11522" data-name="Path 11522" d="M104.462,236.924a2.682,2.682,0,0,1-1.9-.789L91.789,225.365a2.691,2.691,0,0,1,0-3.807l10.769-10.769a2.692,2.692,0,1,1,3.807,3.807L97.5,223.462l8.865,8.866a2.692,2.692,0,0,1-1.9,4.6Zm0,0" transform="translate(-91 -204.615)" fill="#8e66ff"/>
    <path id="Path_11523" data-name="Path 11523" d="M333.692,236.924a2.692,2.692,0,0,1-1.9-4.6l8.865-8.866-8.865-8.866a2.692,2.692,0,0,1,3.807-3.807l10.769,10.769a2.691,2.691,0,0,1,0,3.807L335.6,236.135A2.682,2.682,0,0,1,333.692,236.924Zm0,0" transform="translate(-287.922 -204.615)" fill="#8e66ff"/>
    <path id="Path_11524" data-name="Path 11524" d="M213.691,217.691a2.694,2.694,0,0,1-2.555-3.544l10.769-32.308a2.692,2.692,0,0,1,5.108,1.7l-10.769,32.308A2.694,2.694,0,0,1,213.691,217.691Zm0,0" transform="translate(-189.459 -179.997)" fill="#8e66ff"/>
  </g>
  <path id="Path_11525" data-name="Path 11525" d="M219.077,65.385h-5.385a2.692,2.692,0,0,1,0-5.385h5.385a2.692,2.692,0,0,1,0,5.385Zm0,0" transform="translate(-173.128 -49.231)" fill="#ff723a"/>
  <path id="Path_11526" data-name="Path 11526" d="M309.077,65.385h-5.385a2.692,2.692,0,1,1,0-5.385h5.385a2.692,2.692,0,0,1,0,5.385Zm0,0" transform="translate(-246.973 -49.231)" fill="#f14d5d"/>
  <path id="Path_11527" data-name="Path 11527" d="M399.077,65.385h-5.385a2.692,2.692,0,0,1,0-5.385h5.385a2.692,2.692,0,0,1,0,5.385Zm0,0" transform="translate(-320.819 -49.231)" fill="#ff723a"/>
</svg>
