<svg xmlns="http://www.w3.org/2000/svg" width="80.43" height="80.43" viewBox="0 0 80.43 80.43">
  <g id="cube" transform="translate(0 -0.001)">
    <path id="Path_11517" data-name="Path 11517" d="M283.57,222.732c0-.023,0-.047,0-.07,0-.063-.008-.126-.016-.188l-.006-.032c-.008-.057-.018-.114-.031-.17l-.011-.05c-.016-.064-.033-.128-.054-.191,0-.007-.006-.015-.009-.022-.019-.056-.041-.112-.065-.166-.007-.016-.013-.031-.02-.047-.027-.058-.055-.116-.087-.172l-.023-.04c-.026-.044-.053-.087-.082-.13l-.036-.053q-.053-.074-.112-.144c-.014-.017-.029-.033-.044-.05-.031-.035-.063-.069-.1-.1l-.047-.047c-.045-.042-.093-.083-.142-.122l-.05-.038c-.045-.034-.091-.066-.139-.1l-.032-.021-.007,0c-.057-.036-.116-.068-.176-.1l-.02-.011-19.008-9.425a2.356,2.356,0,1,0-2.094,4.222l14.75,7.314-13.7,6.793-17.8-8.9A2.356,2.356,0,0,0,241,222.78v23.563a2.356,2.356,0,0,0,1.289,2.1l18.851,9.582.018.009a2.4,2.4,0,0,0,.223.1l.022.009a2.4,2.4,0,0,0,.234.071l.045.01a2.343,2.343,0,0,0,.234.042l.042,0a2.36,2.36,0,0,0,.247.015h0a2.335,2.335,0,0,0,.245-.015l.043,0a2.331,2.331,0,0,0,.233-.041l.045-.011a2.422,2.422,0,0,0,.233-.07l.02-.007q.112-.042.221-.1l.02-.009,19.008-9.582a2.357,2.357,0,0,0,1.3-2.1V222.78C283.571,222.764,283.57,222.748,283.57,222.732Zm-37.857,3.86,14.138,7.069v18.423L245.713,244.9Zm33.146,18.3-14.3,7.206V233.667l14.3-7.088Zm0,0" transform="translate(-203.141 -177.851)" fill="#8e66ff"/>
    <path id="Path_11518" data-name="Path 11518" d="M42.566,222.622c0-.018,0-.036-.006-.054,0-.034-.006-.069-.01-.1s-.007-.043-.01-.064-.01-.061-.016-.091-.01-.044-.015-.067-.013-.057-.021-.085-.013-.045-.02-.067-.017-.055-.027-.082-.016-.044-.024-.066-.021-.053-.032-.079l-.028-.064c-.012-.026-.025-.052-.038-.078s-.02-.04-.031-.061-.029-.052-.044-.077l-.034-.057c-.017-.026-.034-.051-.051-.076s-.023-.036-.036-.053-.039-.052-.06-.077l-.036-.045c-.025-.03-.052-.06-.078-.088l-.026-.028c-.035-.037-.072-.074-.11-.109l-.041-.035c-.026-.023-.051-.045-.078-.067l-.053-.041-.073-.054-.058-.039c-.018-.012-.036-.025-.055-.037l-.02-.012-.06-.034-.08-.044-.024-.013-18.851-9.425a2.358,2.358,0,0,0-2.1,0L1.31,220.671l-.028.015-.082.044-.06.034-.026.015-.05.033-.058.039-.074.055-.052.04c-.026.021-.051.043-.075.064l-.044.038c-.031.029-.061.059-.091.089l-.021.02c-.036.037-.071.077-.1.117l-.026.033c-.023.029-.047.059-.069.09-.012.015-.022.032-.033.047s-.037.054-.054.082l-.033.054c-.015.026-.031.053-.045.08s-.021.039-.031.059-.026.053-.039.08-.019.042-.028.063-.022.053-.033.08-.017.044-.024.065-.018.055-.027.083-.013.044-.02.067-.015.057-.021.086-.01.044-.015.066-.012.061-.017.091-.007.043-.01.064-.007.069-.011.1c0,.018,0,.036,0,.053,0,.053-.006.107-.006.16v23.563a2.357,2.357,0,0,0,1.3,2.1L20.3,258.032l.021.009a2.31,2.31,0,0,0,.22.1l.02.008c.077.028.155.05.234.07l.045.01a2.352,2.352,0,0,0,.233.041l.042,0a2.352,2.352,0,0,0,.245.014h0a2.389,2.389,0,0,0,.247-.014l.042,0a2.359,2.359,0,0,0,.235-.042l.045-.011a2.261,2.261,0,0,0,.234-.071l.024-.009c.074-.028.148-.06.22-.1l.02-.009,18.851-9.582a2.355,2.355,0,0,0,1.289-2.1V222.782C42.571,222.728,42.569,222.675,42.566,222.622ZM21.36,215.989l13.586,6.793L21.36,229.575l-13.7-6.793ZM4.713,226.581l14.3,7.088V252.1l-14.3-7.206ZM37.859,244.9l-14.138,7.187V233.664l14.138-7.069Zm0,0" transform="translate(0 -177.853)" fill="#f14d5d"/>
    <path id="Path_11519" data-name="Path 11519" d="M163.409,11.623c0-.018,0-.036,0-.053,0-.035-.007-.07-.011-.1s-.007-.042-.01-.064-.01-.061-.016-.091-.01-.044-.015-.066-.013-.058-.021-.087-.013-.044-.02-.066-.017-.055-.027-.083-.015-.044-.024-.065-.021-.054-.033-.08-.018-.042-.028-.063l-.038-.079-.031-.06c-.015-.026-.029-.052-.045-.078s-.021-.037-.033-.056-.034-.052-.052-.079l-.034-.05q-.03-.041-.063-.081l-.033-.042c-.027-.032-.055-.063-.083-.094l-.02-.023c-.036-.037-.072-.074-.111-.109l-.037-.032c-.027-.024-.053-.047-.082-.07l-.051-.039-.075-.056-.058-.038c-.018-.012-.036-.025-.055-.037l-.02-.012c-.02-.012-.04-.023-.06-.034l-.081-.044-.024-.013L143.261.25a2.354,2.354,0,0,0-2.107,0L122.3,9.675l-.024.012-.081.045-.06.034-.02.012-.055.037L122,9.853q-.038.027-.074.055c-.018.013-.036.026-.053.04s-.053.045-.079.068-.027.022-.039.034q-.057.052-.11.109l-.024.027c-.027.029-.054.059-.08.09l-.035.045c-.02.026-.041.052-.06.078l-.036.052-.051.077c-.012.018-.023.038-.034.057s-.03.051-.044.077-.021.04-.031.061-.026.052-.038.078l-.028.064c-.011.026-.021.053-.032.08s-.017.044-.024.066-.018.055-.027.083-.014.044-.02.066-.015.057-.021.086-.01.044-.015.066-.011.061-.016.091-.007.042-.01.064-.007.069-.011.1c0,.018,0,.036,0,.055,0,.053-.006.106-.006.16V35.5a2.357,2.357,0,0,0,1.3,2.108l18.851,9.425.025.01a2.364,2.364,0,0,0,.223.1l.009,0a2.394,2.394,0,0,0,.234.07l.044.011c.077.017.154.03.231.04l.045,0a2.088,2.088,0,0,0,.485,0l.045,0c.077-.01.155-.023.231-.04l.044-.011a2.233,2.233,0,0,0,.234-.07l.009,0a2.368,2.368,0,0,0,.223-.1l.025-.01,18.851-9.425a2.356,2.356,0,0,0,1.3-2.108V11.783C163.414,11.729,163.412,11.676,163.409,11.623Zm-21.2-6.631,13.582,6.79-13.582,6.791-13.581-6.791ZM125.713,15.6l14.138,7.069V41.116l-14.138-7.069ZM158.7,34.047l-14.138,7.069V22.665L158.7,15.6Zm0,0" transform="translate(-101.992 0)" fill="#ff723a"/>
  </g>
</svg>
