<svg xmlns="http://www.w3.org/2000/svg" width="50" height="50" viewBox="0 0 50 50">
  <g id="design_1_" data-name="design (1)" transform="translate(0)">
    <path id="Path_11513" data-name="Path 11513" d="M253.564,141.418a1.459,1.459,0,0,1-1.036-.429L241.435,129.9a1.465,1.465,0,0,1,2.072-2.071L254.6,138.918a1.465,1.465,0,0,1-1.036,2.5Zm0,0" transform="translate(-217.47 -114.954)" fill="#fff"/>
    <path id="Path_11514" data-name="Path 11514" d="M13.906,26.465a1.46,1.46,0,0,1-1.036-.429L.429,13.6a1.465,1.465,0,0,1,0-2.072L11.523.429a1.464,1.464,0,0,1,2.071,0L26.036,12.87a1.465,1.465,0,0,1-2.071,2.072L12.559,3.537,3.536,12.559,14.941,23.964a1.465,1.465,0,0,1-1.036,2.5Zm0,0" transform="translate(0 0)" fill="#fff"/>
    <path id="Path_11515" data-name="Path 11515" d="M254.908,267.468a1.461,1.461,0,0,1-1.036-.429L241.431,254.6a1.465,1.465,0,0,1,2.072-2.072l11.405,11.4,9.022-9.022-11.4-11.405a1.465,1.465,0,0,1,2.071-2.071l12.44,12.44a1.465,1.465,0,0,1,0,2.072l-11.094,11.094a1.46,1.46,0,0,1-1.036.429Zm0,0" transform="translate(-217.467 -217.468)" fill="#fff"/>
    <path id="Path_11516" data-name="Path 11516" d="M12.559,50H1.465A1.465,1.465,0,0,1,0,48.539V37.444a1.464,1.464,0,0,1,.429-1.036L36.405.433a1.465,1.465,0,0,1,2.072,0L49.571,11.527a1.465,1.465,0,0,1,0,2.072L13.6,49.574A1.463,1.463,0,0,1,12.559,50Zm-9.63-2.93h9.023L46.463,12.562,37.441,3.541,2.93,38.051Zm0,0" transform="translate(0 -0.004)" fill="#fff"/>
  </g>
</svg>
