<svg xmlns="http://www.w3.org/2000/svg" xmlns:xlink="http://www.w3.org/1999/xlink" width="24" height="16" viewBox="0 0 24 16">
  <defs>
    <clipPath id="clip-path">
      <path id="Path_12340" data-name="Path 12340" d="M14,0H3A3,3,0,0,1,0-3V-13a3,3,0,0,1,3-3H14a3,3,0,0,1,3,3v4.49l5,3.57v-7.19l-1.45,1a1,1,0,0,1-1.026.106,1,1,0,0,1-.574-.858,1,1,0,0,1,.49-.908l1.45-1a2,2,0,0,1,2.052-.1A2,2,0,0,1,24-12.13v7.19a2,2,0,0,1-1.083,1.778A2,2,0,0,1,20.84-3.31l-5-3.57A2,2,0,0,1,15-8.51V-13a1,1,0,0,0-1-1H3a1,1,0,0,0-1,1V-3A1,1,0,0,0,3-2H14a1,1,0,0,0,1-1,1,1,0,0,1,1-1,1,1,0,0,1,1,1A3,3,0,0,1,14,0Z" fill="#99c34c" clip-rule="evenodd"/>
    </clipPath>
    <clipPath id="clip-path-2">
      <path id="Path_12339" data-name="Path 12339" d="M-681,2468H414V-1690H-681Z" fill="#99c34c"/>
    </clipPath>
  </defs>
  <g id="Group_3296" data-name="Group 3296" transform="translate(0 16)">
    <g id="Group_3295" data-name="Group 3295" clip-path="url(#clip-path)">
      <g id="Group_3294" data-name="Group 3294" clip-path="url(#clip-path-2)">
        <path id="Path_12338" data-name="Path 12338" d="M-5-21H29V5H-5Z" fill="#99c34c"/>
      </g>
    </g>
  </g>
</svg>
