<svg xmlns="http://www.w3.org/2000/svg" xmlns:xlink="http://www.w3.org/1999/xlink" width="24" height="18" viewBox="0 0 24 18">
  <defs>
    <clipPath id="clip-path">
      <path id="Path_12328" data-name="Path 12328" d="M21,0H5A1,1,0,0,1,4-1,1,1,0,0,1,5-2H21a1,1,0,0,0,1-1v-9a1,1,0,0,0-1-1H16.72a1,1,0,0,1-.95-.68L15-16H9l-.77,2.32a1,1,0,0,1-.95.68H3a1,1,0,0,0-1,1V-1A1,1,0,0,1,1,0,1,1,0,0,1,0-1V-12a3,3,0,0,1,3-3H6.56l.54-1.63A2,2,0,0,1,9-18h6a2,2,0,0,1,1.9,1.37L17.44-15H21a3,3,0,0,1,3,3v9A3,3,0,0,1,21,0ZM16-8a4,4,0,0,0-4-4,1,1,0,0,0-1,1,1,1,0,0,0,1,1,2,2,0,0,1,1.9,1.4,2,2,0,0,1-.757,2.237,2,2,0,0,1-2.361-.043A2,2,0,0,1,10.11-8.67,1,1,0,0,0,9.967-9.7a1,1,0,0,0-.977-.348,1,1,0,0,0-.76.705A4,4,0,0,0,9.27-5.079a4,4,0,0,0,4.322.745A4,4,0,0,0,16-8Z" fill="#edbf28" clip-rule="evenodd"/>
    </clipPath>
    <clipPath id="clip-path-2">
      <path id="Path_12327" data-name="Path 12327" d="M-585,2467H510V-1691H-585Z" fill="#edbf28"/>
    </clipPath>
  </defs>
  <g id="Group_3284" data-name="Group 3284" transform="translate(0 18)">
    <g id="Group_3283" data-name="Group 3283" clip-path="url(#clip-path)">
      <g id="Group_3282" data-name="Group 3282" clip-path="url(#clip-path-2)">
        <path id="Path_12326" data-name="Path 12326" d="M-5-23H29V5H-5Z" fill="#edbf28"/>
      </g>
    </g>
  </g>
</svg>
