<svg xmlns="http://www.w3.org/2000/svg" width="50.61" height="50.247" viewBox="0 0 50.61 50.247">
  <g id="notepad" transform="translate(-0.772 -1.003)">
    <path id="Path_12238" data-name="Path 12238" d="M11.33,51.247l22.444-.217c2.135-.019,4.537-.174,6.018-1.78,1.312-1.445,1.412-3.465,1.4-5.583q-.067-6.852-.115-13.687c3.139-3.335,6.3-6.814,9.414-10.346,1.65-1.9,1.088-5.733-2.4-5.331-2.969.338-4.646,2.773-7.107,5.236q-.033-3.088-.055-6.175a.4.4,0,0,0-.119-.278C40.69,12.964,29.126,1.992,28.955,1.967A88.956,88.956,0,0,0,9.773,1.214C2.656,1.714.95,4.338.925,10.873Q.844,26.617.772,42.369C.744,48.33,2.4,51.344,11.33,51.247ZM48.183,15.082c2.808-.316,2.849,2.734,1.719,4.034q-1.214,1.38-2.44,2.748a.383.383,0,0,0-.249.034l-3.774-3.774c1.351-1.435,2.78-2.818,4.744-3.043ZM42.9,18.7l3.9,3.9C39.71,30.479,32.925,37.476,24.79,45.245a.359.359,0,0,0-.051-.078l-4.125-4.144C43.909,17.727,42.166,19.481,42.9,18.7Zm-23.893,26a.028.028,0,0,1,0-.007c.467-1.168.929-2.3,1.2-2.964L24.063,45.6c-1.19.3-3.985.978-5.933,1.3.26-.663.568-1.443.876-2.208Zm20.88-31.416a27.417,27.417,0,0,1-8.2.981c-2.7-.092-3.261-1.04-3.138-3.683.116-2.507.469-4.421.674-7.366C32.962,6.836,36.284,9.795,39.887,13.284Zm-.2.861-.4.4-.236-.237C39.264,14.256,39.475,14.2,39.686,14.145Zm-1.658.382-.394.394-.275-.275C37.583,14.608,37.806,14.57,38.029,14.527Zm-1.767.292-.341.341-.276-.276C35.851,14.863,36.057,14.846,36.262,14.819Zm-1.9.185-.376.376-.35-.35C33.879,15.021,34.122,15.018,34.363,15Zm-1.775.061-.415.415-.429-.429q.422.014.844.015ZM30.976,15l-.416.416-.6-.6A5.724,5.724,0,0,0,30.976,15ZM1.557,42.373q.068-15.743.153-31.5C1.733,4.839,3.06,2.471,9.828,2a88.125,88.125,0,0,1,18.65.7c-.162,2.844-.583,5.136-.709,7.851-.069,1.484-.016,2.944,1.212,3.813.009.021.009.046.026.063L30.282,15.7l-.32.32a.2.2,0,0,0,.278.278l.32-.32.634.634a.2.2,0,0,0,.278-.278l-.634-.634.5-.5.559.559-.06.06a.2.2,0,0,0,.278.277l.06-.06.359.359a.2.2,0,1,0,.277-.278l-.359-.359.679-.679.579.579-.2.2a.2.2,0,1,0,.278.277l.2-.2.37.37a.2.2,0,0,0,.278-.278l-.37-.37.7-.7c.06,0,.119-.013.179-.019l.5.5-.379.379a.2.2,0,1,0,.278.277l.379-.379.226.226a.2.2,0,0,0,.277-.278l-.226-.226.7-.7.459.459-.1.1a.2.2,0,0,0,.278.278l.1-.1.21.21a.2.2,0,0,0,.278-.278l-.21-.21.7-.7c.015-.015.013-.036.022-.053l.376.376-.4.4a.2.2,0,0,0,.278.277l.4-.4.111.111a.2.2,0,1,0,.278-.278l-.111-.111.589-.588q.024,3.043.054,6.084c-2.758,2.743-2.905,2.9-7.4,7.4a.386.386,0,0,0-.165-.038H6.259a.393.393,0,1,0,0,.785h25.8l-7.118,7.118a.361.361,0,0,0-.04-.008H6.064a.393.393,0,1,0,0,.785h18.1L19.8,40.719a.393.393,0,0,0-.086.129s-.65,1.589-1.337,3.3H5.677a.393.393,0,0,0,0,.785H18.065c-.34.851-.667,1.683-.914,2.317a.394.394,0,0,0,.419.532c2.458-.333,7.07-1.52,7.265-1.57A.392.392,0,0,0,25,46.12c.383-.36.838-.8,1.234-1.184h9.283a.393.393,0,0,0,0-.785H27.051c4.448-4.276,8.9-8.76,13.249-13.356q.051,6.434.109,12.875c.009,1.956-.075,3.814-1.2,5.048-1.267,1.374-3.385,1.507-5.446,1.525l-22.445.217c-2.495.026-6.96.152-8.866-2.98-.916-1.5-.907-3.416-.9-5.107Z" transform="translate(0 0)" fill="#fff"/>
    <path id="Path_12239" data-name="Path 12239" d="M8.026,15.4h13.94a.393.393,0,1,0,0-.785H8.026a.393.393,0,1,0,0,.785Z" transform="translate(-1.474 -2.925)" fill="#fff"/>
    <path id="Path_12240" data-name="Path 12240" d="M7.4,25.956H21.641a.393.393,0,0,0,0-.785H7.4a.393.393,0,1,0,0,.785Z" transform="translate(-1.341 -5.192)" fill="#fff"/>
    <path id="Path_12241" data-name="Path 12241" d="M44.624,32.368l-4.593,4.593-.528-.528a.2.2,0,0,0-.277.278l.528.528L38.163,38.83a.193.193,0,0,0-.273.273l-1.245,1.245-.342-.342a.2.2,0,0,0-.278.278l.342.342L34.8,42.188l-.581-.581a.2.2,0,1,0-.278.278l.581.581-2.074,2.074a.2.2,0,1,0,.278.278L34.8,42.744l.47.47a.2.2,0,1,0,.278-.278l-.47-.47L36.645,40.9l.531.531a.2.2,0,0,0,.278-.278l-.531-.531,1.242-1.242.37.37a.2.2,0,1,0,.278-.278l-.37-.37,1.589-1.589.373.373a.2.2,0,0,0,.277-.278l-.373-.373L44.9,32.646a.2.2,0,0,0-.278-.278Z" transform="translate(-6.793 -6.725)" fill="#fff"/>
    <path id="Path_12242" data-name="Path 12242" d="M37.1,8.519a.2.2,0,0,0,0,.393h.322l-.032.822h-.065a.2.2,0,1,0,0,.393h.049l-.035.9-.251.015a.2.2,0,0,0,.012.392h.012l.213-.013-.019.483-.026.006a.2.2,0,0,0-.144.237.191.191,0,0,0,.155.137l-.019.474a.2.2,0,0,0,.188.2h.008a.2.2,0,0,0,.2-.188l.022-.56.408-.1A.2.2,0,0,0,38,11.731l-.3.073.016-.408.158-.009a.2.2,0,0,0,.184-.208.189.189,0,0,0-.208-.184L37.732,11l.034-.875h.277a.2.2,0,0,0,0-.393h-.262l.032-.822h.455a.2.2,0,0,0,0-.393h-.44l.022-.562a.2.2,0,0,0-.188-.2.19.19,0,0,0-.2.188l-.023.577H37.1Z" transform="translate(-7.762 -1.45)" fill="#fff"/>
  </g>
</svg>
