<svg xmlns="http://www.w3.org/2000/svg" width="84.454" height="100.84" viewBox="0 0 84.454 100.84">
  <g id="phone-operator" transform="translate(-6.225 -1.029)">
    <path id="Path_12243" data-name="Path 12243" d="M90.675,88.95a25.919,25.919,0,0,0-19.313-24.1C64.935,63.3,60.335,63.5,60.218,56.188c4.815-3.466,7.412-8.847,8.832-14.6a5.222,5.222,0,0,0,3.567-.916,3.279,3.279,0,0,0,.959-4.447,10.289,10.289,0,0,0,1.284-2.539c1.139-3.52-.623-6.977-3.889-7.231.155-4.222.183-10.658-1.287-14.615-2.643-7.116-9.043-7.9-12.265-6.193C55.282-.759,43.25.354,37.187,3.839,28.41,8.888,27.044,17.111,28.4,26.367c.169,1.136.377,2.273.6,3.413-1.654,2-1.541,6.067-1.17,8.485.517,3.481,2.536,4.525,4.714,3.8C34,45.921,36.4,51.419,39.1,54.548c.763,11.283-4.364,11.53-12.243,13.675C12.3,72.2,2.391,87.2,7.655,95.929c2,3.326,5.769,5.11,9.688,5.7,4,.637,61.917-.161,64.254-.52C88.123,100.123,90.79,95.454,90.675,88.95ZM65.968,65.291c-1.645,4.331-4.009,8.529-9.059,8.9a6.644,6.644,0,0,1-6.228-3.32,24.7,24.7,0,0,0,9.81-8.6A10.485,10.485,0,0,0,65.968,65.291ZM49.674,69.6q-.835-.4-1.629-.863l.24-.24.719.719a.395.395,0,0,0,.558-.558l-.719-.718,1.069-1.069,1.662,1.662c.013.013.032.008.044.019C50.988,68.924,50.341,69.276,49.674,69.6ZM40.752,56.245c5.392,4.632,13.965,3.157,17.914.954.019.364.054.733.1,1.1a.371.371,0,0,0-.416.058l-.837.837-.036-.036a.395.395,0,0,0-.558.558l.036.036-.981.981a1.048,1.048,0,0,0,0,.766l1.659,1.659a.371.371,0,0,0,.194.08,22.4,22.4,0,0,1-3.495,3.436,1.562,1.562,0,0,0-.355-.42L55.2,65.035l.2.2a.395.395,0,1,0,.558-.558l-.2-.2.834-.836a.395.395,0,0,0-.558-.558l-.834.836-.771-.771a.395.395,0,1,0-.558.558l.771.771L53.421,65.7l-1.175-1.173.631-.631a.395.395,0,1,0-.558-.558L49.9,65.755l-.088-.088a.395.395,0,0,0-.558.558l.088.088-1.069,1.069L47.3,66.4a.394.394,0,0,0-.557.558l.981.981-.382.382A22.441,22.441,0,0,1,40.161,61.4a17.22,17.22,0,0,0,.591-5.152Zm17.495,6.488c-.019-.043-.017-.091-.052-.128l-1.484-1.486.806-.806.666.666a.395.395,0,0,0,.558-.558l-.666-.666.795-.795a6.419,6.419,0,0,0,.76,2.1.786.786,0,0,0-.44.323c-.292.461-.609.908-.943,1.35Zm-6.026,5.46a15.349,15.349,0,0,0-1.754-1.88l1.225-1.225,2.041,2.041c.006.006.017,0,.025.011-.5.367-1.009.719-1.538,1.053Zm7.054-13.285a.37.37,0,0,0-.062-.41l-.826-.826,1.96-1.96.7.7a.395.395,0,1,0,.558-.558l-.7-.7,1.96-1.96.771.771a.364.364,0,0,0,.2.084,18.384,18.384,0,0,1-4.566,4.861ZM71.693,39.395c-1.441,1.041-4.375.964-4.212-.9a2.566,2.566,0,0,1,2.1-2.047,2.863,2.863,0,0,1,2.49.388A1.7,1.7,0,0,1,71.693,39.395ZM73.36,33.2a.005.005,0,0,0,0,0,8.447,8.447,0,0,1-.945,1.965,4.343,4.343,0,0,0-2.121-.423c.2-1.446.511-4.488.625-6.733C72.972,28.223,74.218,30.547,73.36,33.2ZM37.972,5.208c6.341-3.645,17.9-3.755,18.113,1.8a.791.791,0,0,0,1.318.554c2.154-1.952,8.311-1.88,10.8,4.826,1.429,3.848,1.352,10.926,1.17,14.817,0,0,0,0,0,.006-.046,1.153-.136,2.306-.233,3.459a14.218,14.218,0,0,1-.18-3.837.788.788,0,0,0-.912-.815c-6.384,1.028-11.587-4.857-11.338-9.716a.788.788,0,0,0-1.508-.358,19.277,19.277,0,0,1-1.916,3.343s0-.011-.006-.014l-.725-.725.9-.9a.395.395,0,1,0-.558-.558l-.9.9-.219-.219a.395.395,0,0,0-.558.558l.219.219-1.6,1.6-.5-.5a.394.394,0,0,0-.558.557l.5.5-1.763,1.763L46.31,21.255l.6-.606a.395.395,0,1,0-.558-.558l-2.484,2.484-.383-.383a.394.394,0,0,0-.558.557l.383.383-1.929,1.929-1.1-1.1a.395.395,0,1,0-.558.558l1.1,1.1-.44.44a.394.394,0,1,0,.557.557l.44-.44.617.617a20.843,20.843,0,0,1-3.168.372.371.371,0,0,0-.095-.328l-1.05-1.05,4.253-4.253a.395.395,0,0,0-.558-.558l-4.253,4.252-.273-.274a.395.395,0,0,0-.558.558l.273.273-1.249,1.249c-.486-.055-.971-.115-1.457-.2A.79.79,0,0,0,33.042,28a9.359,9.359,0,0,1,1.153,5.542,3.765,3.765,0,0,1-.386,1.446c-.489.871-1.334.912-1.574.47a.763.763,0,0,0-.344-.315c-.49-1.746-.926-3.515-1.29-5.3a0,0,0,0,0,0,0c-.241-1.233-.465-2.467-.645-3.7C28.686,17.472,29.815,9.9,37.972,5.208Zm4.9,21.39a10.1,10.1,0,0,0-.921-.976l1.929-1.929L45.782,25.6a16.669,16.669,0,0,1-2.913,1Zm3.671-1.358-2.105-2.105,1.322-1.322,1.211,1.211-.826.826a.394.394,0,1,0,.558.557l.826-.826.5.5a.385.385,0,0,0,.265.11,17.27,17.27,0,0,1-1.746,1.053Zm2.036-1.721-.5-.5,1.763-1.763.93.93a19.458,19.458,0,0,1-2.142,1.747A.368.368,0,0,0,48.576,23.52Zm2.758-1.883L50.4,20.7l1.6-1.6.725.725c.036.036.088.036.132.055A19.577,19.577,0,0,1,51.335,21.637Zm-13.367,5.54c-.533,0-1.068-.017-1.609-.055l.778-.778ZM29.386,38.031a16.633,16.633,0,0,1,.109-5.887,84.636,84.636,0,0,0,2.487,8.463C30.309,41.1,29.64,39.74,29.386,38.031Zm3.153-.755a2.72,2.72,0,0,0,2.656-1.519,5.361,5.361,0,0,0,.576-2.05,10.967,10.967,0,0,0-.694-5.1c8.989,1.046,16.213-2.818,20.351-9.677,1.183,4.545,5.838,9.2,11.926,8.759a18.165,18.165,0,0,0,.082,2.539,2.385,2.385,0,0,0,1.52,2.309c-.093.855-.191,1.71-.312,2.556a4.011,4.011,0,0,0-2.733,3.269,2.883,2.883,0,0,0,.836,2.323,13.392,13.392,0,0,1-16.533,6.036,3.49,3.49,0,0,0-2.473-3.146,2.907,2.907,0,0,0-3.526,3.984,3.46,3.46,0,0,0,5.018,1.2,2.66,2.66,0,0,0,.522-.527A14.969,14.969,0,0,0,66.96,43.253a25.469,25.469,0,0,1-2.738,6.22c-.014-.021-.009-.049-.028-.068l-.771-.771L65.4,46.656a.395.395,0,1,0-.558-.558l-1.978,1.978-.14-.14a.395.395,0,0,0-.558.558l.14.14-1.96,1.96-.246-.246a.394.394,0,1,0-.557.558l.246.246-1.96,1.96-.388-.388.42-.42a.395.395,0,0,0-.558-.558l-.42.42-.14-.14a.395.395,0,0,0-.558.558l.14.14-1.751,1.751L52.95,52.852c-.013-.017-.008-.041-.024-.057s-.039-.011-.057-.024l-.326-.326a.395.395,0,1,0-.558.558l.088.088-1.96,1.96-.927-.927a.395.395,0,0,0-.558.558l.929.927-1.137,1.137a.395.395,0,0,0,.558.558l1.137-1.139.981.981a.395.395,0,0,0,.558-.558l-.981-.981,1.96-1.96,1.383,1.383-.666.666a.395.395,0,1,0,.558.558l.666-.666.953.953a.395.395,0,0,0,.558-.558l-.953-.953,1.751-1.751.459.461a.376.376,0,0,0,.1.311.39.39,0,0,0,.279.115c.011,0,.021-.013.032-.013l.9.9a.39.39,0,0,0,.279.115s.008,0,.014-.006c-.274.188-.566.377-.856.546-3.87,2.26-9.98,2.46-13.095,1.277l.768-.768L46.55,57a.395.395,0,0,0,.558-.558l-.785-.785L48.485,53.5a.395.395,0,0,0-.558-.558L45.764,55.1l-.142-.14a.395.395,0,0,0-.558.558l.14.14-.973.973a11.672,11.672,0,0,1-3.76-2.892.11.11,0,0,1-.013-.016c-3.317-3.724-6.42-11.67-7.92-16.449Zm16.1,9.281a.878.878,0,0,1-.36.938,1.885,1.885,0,0,1-2.653-.639,1.334,1.334,0,0,1,1.681-1.768,2.057,2.057,0,0,1,1.331,1.468ZM39.473,63.168a25.021,25.021,0,0,0,9.191,7.7,6.656,6.656,0,0,1-6.228,3.32c-3.683-.271-6.359-2.837-8.048-6.466A9.392,9.392,0,0,0,39.473,63.168ZM18.025,100.126c-1.252-3.476-1.352-8.1-1.274-12.213.106-6.524,2.616-7.745,8.348-7.818l45.42-.654c4.908-.057,8.912.3,10.464,4.971l-1.2,1.2a.355.355,0,0,0-.492.492l-.088.088a.395.395,0,0,0,.558.558l.055-.055,1.082,1.08-1.014,1.014-.59-.59a.395.395,0,0,0-.558.558l.59.59-.926.926a.395.395,0,0,0,.558.558l.926-.926,1.311,1.311a.4.4,0,0,0,.558,0,.379.379,0,0,0,.08-.192,24.478,24.478,0,0,1-.448,7.069.371.371,0,0,0-.08-.2l-.861-.861.787-.787a.395.395,0,0,0-.558-.558l-.787.787-1.516-1.514,1.582-1.582,1.2,1.2a.4.4,0,0,0,.558-.558l-1.451-1.451c-.009-.011-.006-.028-.016-.039s-.028-.008-.039-.017l-1.509-1.509a.395.395,0,0,0-.558.558l1.259,1.259-1.582,1.582-.992-.992a.395.395,0,1,0-.558.558l.992.992-1.85,1.85-1.65-1.65,1.38-1.38a.395.395,0,0,0-.558-.558l-1.38,1.38-.121-.123a.395.395,0,0,0-.558.558l.123.121-1.982,1.982-1.582-1.582.618-.618a.394.394,0,0,0-.558-.557L66.21,97.314l-.946-.946.12-.12a.395.395,0,0,0-.558-.558l-.18.18a.347.347,0,0,0-.437.437l-1.643,1.642-1.259-1.259a.395.395,0,0,0-.558.558l1.259,1.259L60.815,99.7a.385.385,0,0,0-.11.29l-3.448.038L58.586,98.7l.927.927a.395.395,0,0,0,.558-.558l-.927-.927,1.782-1.782a.394.394,0,0,0-.558-.557L58.586,97.58l-.423-.423a.395.395,0,0,0-.558.558l.423.423-.913.913L56.067,98l1.153-1.153a.394.394,0,0,0-.558-.557l-1.2,1.2a.364.364,0,0,0-.4.066.371.371,0,0,0-.066.4l-.926.926-.858-.858a.395.395,0,0,0-.558.558l.858.858c-.21.21-.448.371-.427.631-32.162.36-32.026.467-35.062.052Zm60.34-.349-.356-.356c.025-.016.057-.011.079-.033l1.795-1.795.861.861a.391.391,0,0,0,.554,0c-.109.393-.232.773-.372,1.137C80.169,99.689,79.243,99.754,78.364,99.777ZM77.5,98.91l-1.538-1.538,1.85-1.85,1.516,1.516L77.53,98.832C77.508,98.853,77.513,98.885,77.5,98.91Zm4.288-8.944c.014.3.024.577.036.866a12.211,12.211,0,0,0-1.382-1.484l1.227-1.227C81.717,88.733,81.757,89.351,81.785,89.966Zm-.273-2.687-1.14-1.139.866-.866a16.474,16.474,0,0,1,.339,1.978C81.553,87.252,81.534,87.274,81.512,87.279ZM72.632,99.858,69.02,99.9l1.634-1.634,1.281,1.281a.395.395,0,0,0,.558-.558L71.212,97.7l1.982-1.982,1.648,1.648L72.714,99.5A.379.379,0,0,0,72.632,99.858Zm-8.849-.689-.661-.661L64.7,96.926l.946.946-1.694,1.694a.372.372,0,0,0-.071.388l-2.236.025.913-.913.661.661a.4.4,0,0,0,.56-.558Zm2.426-.738L67.4,99.623a.395.395,0,1,0,.558-.558l-1.192-1.192,1.749-1.749L70.1,97.7,68.37,99.432a.376.376,0,0,0-.035.472l-3.642.041ZM54.754,99.567l-.123-.123.88-.88L56.6,99.659a.368.368,0,0,0,.057.377l-1.878.021a.38.38,0,0,0-.028-.489Zm-.62.5-.123,0,.063-.063Zm19.348-.214L75.4,97.929,77.275,99.8S77.407,99.8,73.482,99.848Zm9.205-.563c.945-3.066.831-6.179.672-9.395-.421-9.513-3.574-12.142-12.86-12.027l-45.42.654c-6.435.08-9.778,1.807-9.9,9.368-.077,4.127.019,8.384,1.09,11.923a11.063,11.063,0,0,1-7.259-4.693C4.4,87.474,13.554,73.492,27.27,69.746c1.8-.494,3.765-.856,5.64-1.462,2.293,4.985,5.816,7.217,9.412,7.48a8.267,8.267,0,0,0,7.351-3.539,8.271,8.271,0,0,0,7.351,3.539c5.728-.42,8.538-4.935,10.491-10.1,2.028.418,2.629.517,3.476.722A24.3,24.3,0,0,1,89.1,88.979C89.183,93.928,87.527,98.055,82.687,99.285Z" transform="translate(0 0)" fill="#1b212f"/>
    <path id="Path_12244" data-name="Path 12244" d="M35.315,56.764a4.509,4.509,0,0,0-4.492,1.342,3.926,3.926,0,0,0,.112,5.744,4.606,4.606,0,0,0,6.506.254C40.362,61.335,38.463,57.575,35.315,56.764Zm-1.465,1.52-.057-.057c.043-.006.084-.008.126-.011Zm-2.361,1.587,1,1L31.457,61.9A2.176,2.176,0,0,1,31.489,59.871Zm4.868,3.088a3.058,3.058,0,0,1-4.305-.226c-.055-.055-.1-.117-.153-.175.006-.006.016,0,.022-.009l1.2-1.2c.008,0,.014.009.024.009a.38.38,0,0,0,.385-.418l.21-.21a.395.395,0,0,0-.558-.558l-.134.136-1.095-1.095c.008-.008.013-.017.021-.025a3.155,3.155,0,0,1,.968-.7l.355.355-.467.467a.394.394,0,0,0,.557.558l.467-.467.4.4a.395.395,0,0,0,.558-.558l-.4-.4.538-.539c1.878.5,3.438,2.733,1.41,4.657Z" transform="translate(13.504 32.079)" fill="#1b212f"/>
    <path id="Path_12245" data-name="Path 12245" d="M25.873,54.844,23.46,57.255l-1.631-1.631,1.7-1.7a.395.395,0,1,0-.558-.558l-1.7,1.7-.866-.866a.395.395,0,1,0-.558.558l.866.866-1.159,1.159-1.429-1.429.937-.937a.395.395,0,1,0-.558-.558l-.937.937-.462-.462a.395.395,0,1,0-.558.558l.462.462-.934.932a.395.395,0,0,0,.558.558l.934-.934L19,57.34l-1.91,1.908a.395.395,0,0,0,.558.558l1.91-1.91,1.364,1.364a.395.395,0,0,0,.558-.558l-1.364-1.364,1.159-1.159L22.9,57.81l-.629.629a.395.395,0,0,0,.558.558l.629-.629.628.628a.395.395,0,0,0,.558-.558l-.628-.628L26.431,55.4a.394.394,0,0,0,0-.558A.4.4,0,0,0,25.873,54.844Z" transform="translate(5.617 30.137)" fill="#1b212f"/>
  </g>
</svg>
