<svg xmlns="http://www.w3.org/2000/svg" width="50.876" height="50.443" viewBox="0 0 50.876 50.443">
  <g id="puzzle" transform="translate(-0.757 -1.031)">
    <g id="Group_3111" data-name="Group 3111" transform="translate(0.757 1.03)">
      <path id="Path_12232" data-name="Path 12232" d="M49.963,27.2a6.363,6.363,0,0,0-8.093-.9,3.348,3.348,0,0,1-2.453.716c-1.04-.3-1.434-1.743-1.2-2.906.255-1.28.989-2.475,1.214-3.86A5.715,5.715,0,0,0,33.8,13.876c-2.239.085-5.2,1.943-6.978.318C24.1,11.694,29.194,7.257,24.943,2.9a5.7,5.7,0,0,0-8.563.14C12.415,7.411,17.433,11.255,15.3,14s-6.543-1.135-9.789-.548a5.635,5.635,0,0,0-4.136,4.28,16.028,16.028,0,0,0-.088,5.948c.367,3.256,1.815,5.307,4.674,4.151l.818.818-.462.462a.2.2,0,0,0,.279.279l.462-.462.276.276a.2.2,0,0,0,.279-.279l-.276-.276.775-.775.29.29a.2.2,0,1,0,.279-.279l-.29-.29.463-.463a.2.2,0,0,0-.279-.279l-.463.463-.389-.387a8.649,8.649,0,0,1,1.293-.622c.064.085.593.607.673.688l-.463.463a.2.2,0,0,0,.279.279l.462-.462.136.136a.2.2,0,1,0,.279-.279l-.136-.136c.076-.076.757-.751.823-.835l.053.009.548.548-.488.488a.2.2,0,0,0,.279.279L11.945,27l.458.458a.2.2,0,0,0,.279-.279l-.458-.458.135-.135c.143.07.284.146.422.231,4.614,2.85,1.045,8.644-2.906,8.062-1.9-.275-3.812-1.793-5.884-1.241-2.88.772-3.232,4.08-3.235,6.791C.749,50.154,4.3,52.092,11.6,51.322a10.766,10.766,0,0,0,3.491-.776,3.886,3.886,0,0,0,2.315-2.88,4.88,4.88,0,0,0-.443-2.368l.555-.555.077.077a.2.2,0,1,0,.279-.279l-.077-.077.422-.422a.2.2,0,0,0-.279-.279l-.422.422-1.2-1.2a4.844,4.844,0,0,1,.178-1.575l.689.689-.66.66a.2.2,0,0,0,.279.279l.66-.66.408.408a.2.2,0,1,0,.279-.279l-.408-.408.909-.909a.19.19,0,0,0,.05-.122l.1.1a.2.2,0,1,0,.279-.279l-.929-.928.993-.993c.013-.013.01-.031.019-.045l.727.727a.2.2,0,0,0,.279,0,.188.188,0,0,0,.05-.157l.794-.794.62.62a.2.2,0,0,0,.279,0,.186.186,0,0,0,.045-.109c.006.009,0,.022.013.031a.2.2,0,0,0,.279,0l.72-.72,1.224,1.224a.2.2,0,0,0,.279-.279l-.741-.741a4.849,4.849,0,0,1,1.7,5.714c-.5,1.2-1.521,2.39-1.288,3.832a2.532,2.532,0,0,0,2.5,2.264c.969.112,6.557,1.061,8.7.032a5.6,5.6,0,0,0,3.1-4.438,10.579,10.579,0,0,0-.484-3.6c-.013-.052-.025-.1-.039-.157a.188.188,0,0,0,.114-.047l.66-.66.073.073a.2.2,0,0,0,.279-.279l-.073-.073.52-.52a.2.2,0,1,0-.279-.279l-.52.52L37.5,39.914V39.9a.182.182,0,0,0,.256-.009l.521-.521.811.811a.2.2,0,0,0,.279-.279l-.811-.811.873-.874a.2.2,0,0,0-.279-.279l-.873.874-.551-.551a2.864,2.864,0,0,1,.873-1.348l.338.338-.347.347a.2.2,0,0,0,.279.279l.347-.347.886.886a.2.2,0,1,0,.279-.279l-.886-.886.419-.419a.2.2,0,0,0,0-.268l1.208,1.208-.316.316a.2.2,0,0,0,.279.279l.353-.353a.2.2,0,0,0,.2-.2l.6-.6.555.555-.173.173a.2.2,0,1,0,.279.279l.2-.2a.151.151,0,0,0,.185-.039.184.184,0,0,0,.039-.185l.342-.342c.013-.013.011-.032.02-.047A6.23,6.23,0,0,0,49.963,27.2ZM7.053,28.371l-.711-.711c.343-.163.683-.348,1.019-.536,0,0,0,.007,0,.009l.462.463Zm2.91-1.655-.533-.533a4.024,4.024,0,0,1,1.147-.081Zm1.982-.276-.061-.061c.028.01.057.024.085.035Zm4.86,18.454a5.333,5.333,0,0,1-.4-1.264l.834.834Zm1.68-4.038a.19.19,0,0,0-.122.05l-.909.909-.834-.834a5.063,5.063,0,0,1,.706-1.284l.264.264-.364.364a.2.2,0,0,0,.279.279l.364-.364Zm.376-2.166-.993.993-.287-.287a4.375,4.375,0,0,1,.921-.8c.069-.043.147-.073.219-.112l.185.185c-.014.009-.032.007-.045.02Zm1.11.489L19.09,38.3a4.707,4.707,0,0,1,1.191-.324l.449.449Zm.817-1.258c.148-.006.3-.008.443,0l-.222.222Zm1.178,1.042a.186.186,0,0,0-.045.109c-.006-.009,0-.022-.013-.031l-.62-.62.448-.448a5.013,5.013,0,0,1,.888.208l.062.062Zm4.762,10.789c-.037,0-.069-.013-.1-.017l1.11-1.11,1.236,1.236a.187.187,0,0,0,.047.166c.019.019.045.018.068.028C27.674,49.9,27.518,49.845,26.729,49.751Zm4.993.075-.1.1a.2.2,0,0,0,0,.279.185.185,0,0,0,.1.043c-.779-.021-1.579-.083-2.308-.157.013-.008.029-.006.04-.017a.189.189,0,0,0,.02-.232l1.127-1.127Zm-.835-1.393,1.176-1.176,1.113,1.113L32,49.547Zm1.262,1.819c-.117,0-.234,0-.353-.006A.191.191,0,0,0,31.9,50.2l.1-.1Zm-2.933-.706-1.2-1.2,1.113-1.113,1.2,1.2ZM35,49.855a6.12,6.12,0,0,1-2.3.392l-.421-.421,1.176-1.176,1.121,1.121a.2.2,0,0,0,.279-.279l-1.121-1.121,1.623-1.623.758.758-1.351,1.35a.2.2,0,0,0,.279.279l1.389-1.389s0,0,.006,0a.2.2,0,0,0,.14-.058.193.193,0,0,0,.055-.145l.929-.929A4.807,4.807,0,0,1,35,49.855Zm1.257-4.288a.2.2,0,0,0-.279,0l-.623.623-.575-.575a.194.194,0,0,0,.084-.035l1.371-1.371.664.664a.2.2,0,1,0,.279-.279l-.664-.664.772-.772s0-.013.007-.018a8.523,8.523,0,0,1,.355,2.944.186.186,0,0,0-.163.049l-1.094,1.093-.758-.758.623-.623a.2.2,0,0,0,0-.279Zm.563-4.49c.019.107.041.211.063.317l-.19-.19Zm1,.9c-.1-.409-.2-.82-.26-1.226-.013-.079-.016-.162-.025-.241l.877.877ZM38,39.1l-.5.5a5.287,5.287,0,0,1,.113-.883Zm1.635-2.54-.419.419-.276-.276a2.1,2.1,0,0,1,.226-.127,2.314,2.314,0,0,1,.615-.142l.121.122A.2.2,0,0,0,39.63,36.556Zm1.77.94L40.325,36.42a6.2,6.2,0,0,1,1.463.353l.169.169Zm1.668,0-.417-.417c.205.074.41.147.619.215Zm7.052-3.334a5.625,5.625,0,0,1-5.931,2.577c-1.695-.391-3.512-1.617-5.318-.9-1.775.7-2.328,2.895-2.12,4.75l-.338.338-.3-.3a.2.2,0,1,0-.279.279l.3.3-.3.3a.2.2,0,0,0,.279.279l.3-.3.625.625c.05.207.1.414.152.618.011.043.021.084.032.128a.185.185,0,0,0-.215.027l-.772.772L34.983,42.4a.2.2,0,0,0-.279.279l1.253,1.253L34.586,45.3a.177.177,0,0,0-.035.084l-.525-.525a.2.2,0,0,0-.279.279l1.329,1.329L33.454,48.1,32.34,46.982l1.043-1.043a.2.2,0,0,0-.279-.279L32.061,46.7l-.8-.8a.2.2,0,0,0-.279.279l.8.8-1.176,1.176-1.2-1.2,1.562-1.562a.2.2,0,1,0-.279-.279l-1.562,1.562-.009-.009a.2.2,0,0,0-.279.279l.009.009-1.113,1.113-.335-.335a.2.2,0,0,0-.279.279l.335.335-1.291,1.291a1.657,1.657,0,0,1-1.249-1.49c-.181-1.123.743-2.2,1.239-3.4a5.556,5.556,0,0,0-8.072-6.813,5.667,5.667,0,0,0-2.416,6.079c.327,1.264,1.094,2.406.952,3.562a3.139,3.139,0,0,1-1.868,2.263,10.038,10.038,0,0,1-3.238.705c-6.661.692-9.972-.654-9.964-10.115,0-2.351.212-5.378,2.649-6.028,1.746-.471,3.557.965,5.566,1.26,4.833.692,8.743-6.237,3.434-9.516-2.784-1.718-4.934-.429-6.155.256C4.3,27.937,2.549,27.883,2.065,23.591a15.217,15.217,0,0,1,.065-5.654,4.964,4.964,0,0,1,3.515-3.709c2.914-.536,7.724,3.526,10.272.256,2.527-3.245-2.625-6.867,1.047-10.915a4.894,4.894,0,0,1,7.414-.118c3.973,4.073-1.366,8.317,1.91,11.325,2.156,1.981,5.417-.03,7.541-.11a4.936,4.936,0,0,1,4.819,5.455c-.21,1.278-.94,2.472-1.209,3.832-.305,1.537.269,3.385,1.758,3.818a4.026,4.026,0,0,0,3.064-.788,5.454,5.454,0,0,1,7.86,7.181Z" transform="translate(-0.757 -1.03)" fill="#fff"/>
    </g>
    <g id="Group_3112" data-name="Group 3112" transform="translate(4.677 34.682)">
      <path id="Path_12233" data-name="Path 12233" d="M16.539,43.8a4.031,4.031,0,0,1-.615.966,1.5,1.5,0,0,0-.7-.384.2.2,0,0,0-.121.375,1.608,1.608,0,0,1,.457.2.541.541,0,0,1,.107.113,5.037,5.037,0,0,1-1.2.881,1.691,1.691,0,0,0-.281-.516.2.2,0,0,0-.3.253,1.314,1.314,0,0,1,.237.455h0a6.489,6.489,0,0,1-1.531.457l.223-.563a.2.2,0,0,0-.11-.256.2.2,0,0,0-.256.11l-.3.765a9.366,9.366,0,0,1-1.327.065l.247-.47a.2.2,0,1,0-.35-.184l-.329.626a11.045,11.045,0,0,1-1.246-.152l.091-.1a.2.2,0,1,0-.3-.258l-.235.273c-.35-.077-.694-.171-1.036-.28.093-.107.183-.219.282-.32a.2.2,0,0,0-.281-.278c-.146.148-.281.307-.413.468a11.159,11.159,0,0,1-1.232-.525.2.2,0,0,0-.177.351,11.709,11.709,0,0,0,1.157.507c-.089.123-.182.243-.263.371a.2.2,0,1,0,.333.211c.1-.158.211-.308.324-.458.333.111.667.213,1.009.3l-.5.584a.2.2,0,1,0,.3.258l.649-.752a11.556,11.556,0,0,0,1.344.187l-.235.449a.2.2,0,1,0,.35.184l.311-.593a9.268,9.268,0,0,0,1.362-.028l-.056.141a.2.2,0,1,0,.367.146l.14-.351a7.074,7.074,0,0,0,1.766-.48,1.231,1.231,0,0,1-.037.3.2.2,0,0,0,.384.094,1.687,1.687,0,0,0,.027-.574,5.5,5.5,0,0,0,1.3-.923c.024.011.043.032.072.032h.006a.2.2,0,0,0,.2-.192.734.734,0,0,0-.013-.117,4.492,4.492,0,0,0,.782-1.212.2.2,0,0,0-.364-.155Z" transform="translate(-5.726 -43.684)" fill="#fff"/>
    </g>
    <g id="Group_3113" data-name="Group 3113" transform="translate(17.82 9.982)">
      <path id="Path_12234" data-name="Path 12234" d="M22.384,12.435l.059-.016.129-.043Z" transform="translate(-22.384 -12.376)" fill="#fff"/>
    </g>
    <g id="Group_3114" data-name="Group 3114" transform="translate(11.12 9.991)">
      <path id="Path_12235" data-name="Path 12235" d="M21.836,13.637l-.623.253c-.123-.51-.276-1.011-.43-1.5l-.132.035-.245.084c.158.5.314,1.016.437,1.535l-.39.159a.2.2,0,1,0,.148.365l.329-.133a5.574,5.574,0,0,1,.08,1.892l-.525-.013a.194.194,0,0,0-.2.193.2.2,0,0,0,.193.2l.45.01a3.052,3.052,0,0,1-.641,1.338,3.632,3.632,0,0,1-.527-.338.2.2,0,0,0-.248.307,4.04,4.04,0,0,0,.5.34,5.635,5.635,0,0,1-1.586,1.1c-.015.007-.032.011-.047.018a2.373,2.373,0,0,1-.443-.556.2.2,0,0,0-.346.191,2.761,2.761,0,0,0,.382.523,8.019,8.019,0,0,1-1.673.48l-.339-.595a.2.2,0,0,0-.342.2l.252.44a7.948,7.948,0,0,1-1.759.017.189.189,0,0,0-.218.174.2.2,0,0,0,.174.218,7.859,7.859,0,0,0,2.024-.022c.2.353.369.764.768.764a.423.423,0,0,0,.371-.193.2.2,0,1,0-.336-.207c-.121.091-.313-.3-.388-.433a8.311,8.311,0,0,0,1.8-.54,2.825,2.825,0,0,0,1.175.573.2.2,0,1,0,.082-.385,2.412,2.412,0,0,1-.846-.372,5.722,5.722,0,0,0,1.652-1.2,3.986,3.986,0,0,0,.719.258.2.2,0,0,0,.1-.383,3.689,3.689,0,0,1-.53-.2,3.4,3.4,0,0,0,.679-1.5l.324.008h0a.2.2,0,0,0,0-.394L21.4,16.33a6.049,6.049,0,0,0-.1-2.053L21.985,14a.2.2,0,0,0,.108-.257.194.194,0,0,0-.257-.106Z" transform="translate(-13.892 -12.388)" fill="#fff"/>
    </g>
  </g>
</svg>
