<svg xmlns="http://www.w3.org/2000/svg" width="85.21" height="60.15" viewBox="0 0 85.21 60.15">
  <g id="Quotemarks-right" transform="translate(-0.001 -9.412)">
    <path id="Path_2644" data-name="Path 2644" d="M18.9,9.412a18.9,18.9,0,0,0-1.1,37.763c.172,1.853.043,6.9-4.79,13.913a1.331,1.331,0,0,0,.155,1.7c1.978,1.978,3.2,3.223,4.055,4.094,1.12,1.139,1.631,1.659,2.378,2.338a1.331,1.331,0,0,0,1.768.019c8.422-7.328,17.777-22.47,16.423-41.024C37,17.319,29.052,9.412,18.9,9.412Zm1.61,57c-.363-.357-.776-.779-1.386-1.4-.741-.755-1.758-1.79-3.3-3.338,5.865-9.038,4.758-15.475,4.273-16.4a1.379,1.379,0,0,0-1.2-.733,16.234,16.234,0,0,1,0-32.468c8.72,0,15.548,6.868,16.239,16.33C36.657,49.273,24.254,62.823,20.507,66.411Z" transform="translate(0)" fill="#ff723a"/>
    <path id="Path_2645" data-name="Path 2645" d="M73.308,28.212h0c-.8-10.892-8.743-18.8-18.9-18.8a18.9,18.9,0,0,0-1.095,37.763c.172,1.852.042,6.893-4.793,13.913a1.331,1.331,0,0,0,.155,1.7c1.97,1.97,3.189,3.213,4.045,4.083,1.125,1.147,1.638,1.669,2.39,2.351a1.331,1.331,0,0,0,1.768.017C65.305,61.906,74.661,46.765,73.308,28.212Zm-17.286,38.2c-.365-.36-.783-.784-1.4-1.411-.741-.754-1.754-1.787-3.29-3.326,5.865-9.039,4.759-15.475,4.275-16.4a1.384,1.384,0,0,0-1.2-.733,16.234,16.234,0,1,1,0-32.468c8.718,0,15.548,6.868,16.24,16.331h0C72.173,49.27,59.77,62.823,56.023,66.411Z" transform="translate(11.771)" fill="#ff723a"/>
  </g>
</svg>
