<svg xmlns="http://www.w3.org/2000/svg" width="63.198" height="70.516" viewBox="0 0 63.198 70.516">
  <g id="writing" transform="translate(-26.57)">
    <g id="Group_3192" data-name="Group 3192" transform="translate(26.57)">
      <g id="Group_3191" data-name="Group 3191">
        <path id="Path_12300" data-name="Path 12300" d="M140.34,202.755A2.754,2.754,0,0,0,137.585,200H109.214a2.755,2.755,0,1,0,0,5.509h28.372A2.754,2.754,0,0,0,140.34,202.755Z" transform="translate(-95.456 -172.455)" fill="#fff"/>
        <path id="Path_12301" data-name="Path 12301" d="M109.214,280a2.755,2.755,0,1,0,0,5.509h17.231a2.755,2.755,0,0,0,0-5.509Z" transform="translate(-95.456 -241.436)" fill="#fff"/>
        <path id="Path_12302" data-name="Path 12302" d="M46.8,65.007H37.588A5.515,5.515,0,0,1,32.079,59.5V11.018a5.515,5.515,0,0,1,5.509-5.509H71.454a5.515,5.515,0,0,1,5.509,5.509v16.94a2.755,2.755,0,1,0,5.509,0V11.018A11.031,11.031,0,0,0,71.454,0H37.588A11.031,11.031,0,0,0,26.57,11.018V59.5A11.031,11.031,0,0,0,37.588,70.516H46.8a2.755,2.755,0,1,0,0-5.509Z" transform="translate(-26.57)" fill="#fff"/>
        <path id="Path_12303" data-name="Path 12303" d="M274.367,274.441a8.272,8.272,0,0,0-11.684,0l-15.123,15.089a2.756,2.756,0,0,0-.69,1.149l-3.293,10.843a2.754,2.754,0,0,0,3.371,3.455l11.118-3.08a2.754,2.754,0,0,0,1.211-.705l15.091-15.063A8.273,8.273,0,0,0,274.367,274.441ZM255.9,296.78l-5.593,1.549,1.637-5.389,10.2-10.181,3.9,3.9Zm14.577-14.549-.534.533-3.9-3.9.532-.531a2.755,2.755,0,0,1,3.9,3.894Z" transform="translate(-213.586 -234.559)" fill="#fff"/>
        <path id="Path_12304" data-name="Path 12304" d="M137.585,120H109.214a2.755,2.755,0,1,0,0,5.509h28.372a2.755,2.755,0,0,0,0-5.509Z" transform="translate(-95.456 -103.473)" fill="#fff"/>
      </g>
    </g>
  </g>
</svg>
