<svg xmlns="http://www.w3.org/2000/svg" width="105.994" height="80.885" viewBox="0 0 105.994 80.885">
  <g id="atom_1_" data-name="atom (1)" transform="translate(-18.502 -43.71)">
    <path id="Path_12247" data-name="Path 12247" d="M98.485,119.818a62.833,62.833,0,0,0,6.6,2.542,32.875,32.875,0,0,0,6.847,1.419,16.779,16.779,0,0,0,3.426-.078,9.311,9.311,0,0,0,3.178-.972,7.1,7.1,0,0,0,2.43-2.08,8.057,8.057,0,0,0,1.268-2.969,12.281,12.281,0,0,0,.248-1.643,16.344,16.344,0,0,0,0-1.691,22.456,22.456,0,0,0-.418-3.4,38.224,38.224,0,0,0-2.046-6.628A79.981,79.981,0,0,0,113.505,91.9q-1.866-2.989-3.926-5.865c-1.361-1.944-2.794-3.79-4.276-5.627s-3.013-3.635-4.578-5.4-3.212-3.465-4.894-5.122A108.463,108.463,0,0,0,73.41,52.728,61.016,61.016,0,0,0,60.581,47.14a25.055,25.055,0,0,0-6.8-1.05A13.038,13.038,0,0,0,50.5,46.5a7.692,7.692,0,0,0-2.8,1.458,6.415,6.415,0,0,0-1.837,2.488,10.516,10.516,0,0,0-.739,3.134,21.143,21.143,0,0,0,.773,6.706,55.932,55.932,0,0,0,5.447,12.756c1.142,2.041,2.371,4.038,3.664,5.992s2.673,3.888,4.067,5.754,2.882,3.717,4.374,5.525,3.071,3.572,4.68,5.292c3.207,3.45,6.546,6.8,10.074,9.928,1.764,1.565,3.552,3.11,5.389,4.592s3.722,2.916,5.642,4.306a.1.1,0,0,1,.024.136.1.1,0,0,1-.131,0,121.351,121.351,0,0,1-22.077-17.9A113.173,113.173,0,0,1,49.559,74.081a68.752,68.752,0,0,1-3.232-6.444,43.362,43.362,0,0,1-2.386-6.876,23.146,23.146,0,0,1-.729-7.367,12.586,12.586,0,0,1,.943-3.732,8.261,8.261,0,0,1,2.391-3.134,9.447,9.447,0,0,1,3.494-1.74,13.753,13.753,0,0,1,3.737-.413,26.615,26.615,0,0,1,7.216,1.273,46.968,46.968,0,0,1,6.687,2.687c2.153,1.045,4.237,2.216,6.269,3.46a112.979,112.979,0,0,1,11.629,8.261c1.847,1.5,3.684,3,5.452,4.582.894.778,1.764,1.584,2.648,2.376s1.745,1.613,2.59,2.43a133.04,133.04,0,0,1,18.592,21.591,67.911,67.911,0,0,1,6.755,12.664,39.887,39.887,0,0,1,2.07,6.949,22.951,22.951,0,0,1,.374,3.664,18.391,18.391,0,0,1-.053,1.861,13.606,13.606,0,0,1-.321,1.856,9.2,9.2,0,0,1-1.6,3.475,8.421,8.421,0,0,1-2.993,2.4,10.433,10.433,0,0,1-3.62.972,17.727,17.727,0,0,1-3.664-.073,30.518,30.518,0,0,1-6.959-1.827A50.11,50.11,0,0,1,98.378,120a.1.1,0,1,1,.107-.18Z" transform="translate(-12.68 -0.339)" fill="#1b212f"/>
    <path id="Path_12248" data-name="Path 12248" d="M144.934,191.974a8.655,8.655,0,0,1-1.711,1.317,6.153,6.153,0,0,1-2.138.8,4.738,4.738,0,0,1-2.376-.233,4.859,4.859,0,0,1-1.978-1.38,5.428,5.428,0,0,1-1.079-2.1,7.416,7.416,0,0,1-.224-2.25,7.192,7.192,0,0,1,1.5-4.155,5.491,5.491,0,0,1,4.155-2.109,5.914,5.914,0,0,1,4.514,1.749,5.681,5.681,0,0,1,1.293,2.109,4.9,4.9,0,0,1,.185,2.405,6.448,6.448,0,0,1-.807,2.148A8.718,8.718,0,0,1,144.934,191.974Zm-.136-.136a3.766,3.766,0,0,0,.972-1.769,4.3,4.3,0,0,0,0-1.944,6.4,6.4,0,0,0-.632-1.686,5.2,5.2,0,0,0-1.02-1.361,4.9,4.9,0,0,0-3.047-1.38,5.224,5.224,0,0,0-1.745.209,5.166,5.166,0,0,0-1.657.816,4.033,4.033,0,0,0-1.628,3.4,3.854,3.854,0,0,0,.588,1.842,5.462,5.462,0,0,0,1.234,1.366,7.668,7.668,0,0,0,3.207,1.521,4.568,4.568,0,0,0,1.944,0,3.747,3.747,0,0,0,1.788-1.016Z" transform="translate(-60.101 -71.013)" fill="#1b212f"/>
    <path id="Path_12249" data-name="Path 12249" d="M101.177,48.711a42.948,42.948,0,0,1,11.206-4.48,19.112,19.112,0,0,1,6.147-.442,6.089,6.089,0,0,1,.782.121c.262.049.525.083.782.156a10.031,10.031,0,0,1,1.521.52,8.149,8.149,0,0,1,2.692,1.847,8.655,8.655,0,0,1,1.769,2.765l.277.763c.092.258.136.52.2.782a11.743,11.743,0,0,1,.277,1.574,20.765,20.765,0,0,1-.423,6.22,43.974,43.974,0,0,1-4.3,11.405,86.875,86.875,0,0,1-6.453,10.2c-1.186,1.623-2.405,3.222-3.674,4.777s-2.546,3.105-3.858,4.621q-3.922,4.563-8.169,8.825c-2.833,2.838-5.724,5.627-8.771,8.261a109.343,109.343,0,0,1-9.505,7.44,79.24,79.24,0,0,1-10.419,6.181,52.111,52.111,0,0,1-5.618,2.391,34.23,34.23,0,0,1-5.967,1.579,16.683,16.683,0,0,1-6.317-.039,9.9,9.9,0,0,1-3.1-1.215l-.714-.486-.671-.535a5.082,5.082,0,0,1-.593-.617l-.282-.321c-.087-.112-.165-.233-.248-.35a9.146,9.146,0,0,1-1.39-3.037,12.956,12.956,0,0,1-.432-3.2,22.432,22.432,0,0,1,.807-6.191A50.019,50.019,0,0,1,51.4,96.965a99.046,99.046,0,0,1,14.3-19.36.092.092,0,0,1,.136,0,.1.1,0,0,1,0,.131c-1.229,1.579-2.464,3.149-3.64,4.762s-2.323,3.251-3.431,4.9a94.459,94.459,0,0,0-5.992,10.273c-.884,1.774-1.7,3.577-2.43,5.409a39.916,39.916,0,0,0-1.769,5.593,22.106,22.106,0,0,0-.661,5.686,11.177,11.177,0,0,0,.4,2.721,7.1,7.1,0,0,0,1.123,2.376,6.978,6.978,0,0,0,4.34,2.707,15.618,15.618,0,0,0,5.588.058,40.82,40.82,0,0,0,11.1-3.615,107.181,107.181,0,0,0,20.031-12.79A119.484,119.484,0,0,0,107.63,89.156a102.874,102.874,0,0,0,7.119-9.607,89.654,89.654,0,0,0,5.9-10.336c.87-1.774,1.657-3.586,2.362-5.418a41.488,41.488,0,0,0,1.691-5.608,19.283,19.283,0,0,0,.486-5.705,11.667,11.667,0,0,0-.214-1.38,6.029,6.029,0,0,0-.156-.675l-.219-.651a7.031,7.031,0,0,0-1.37-2.3,6.886,6.886,0,0,0-2.182-1.584,8.972,8.972,0,0,0-1.288-.486c-.224-.068-.457-.107-.685-.16a5.661,5.661,0,0,0-.695-.136,19.132,19.132,0,0,0-5.783.165,39.174,39.174,0,0,0-5.744,1.458c-1.885.641-3.732,1.39-5.569,2.182a.117.117,0,0,1-.112-.2Z" transform="translate(-14.103)" fill="#1b212f"/>
    <path id="Path_12250" data-name="Path 12250" d="M147.637,49.153a3.747,3.747,0,0,0-1.759-1,4.568,4.568,0,0,0-1.944,0,7.668,7.668,0,0,0-3.207,1.521,5.462,5.462,0,0,0-1.234,1.366,3.854,3.854,0,0,0-.588,1.842,4.019,4.019,0,0,0,1.628,3.4,5.2,5.2,0,0,0,1.652.816,5.253,5.253,0,0,0,1.749.209,4.9,4.9,0,0,0,3.047-1.38A5.2,5.2,0,0,0,148,54.567a6.58,6.58,0,0,0,.632-1.686,4.306,4.306,0,0,0,0-1.944A3.766,3.766,0,0,0,147.637,49.153Zm.136-.136a8.717,8.717,0,0,1,1.336,1.7,6.448,6.448,0,0,1,.807,2.148,4.957,4.957,0,0,1-.185,2.405,5.749,5.749,0,0,1-1.293,2.109,5.919,5.919,0,0,1-4.514,1.749,5.637,5.637,0,0,1-2.342-.607,5.52,5.52,0,0,1-1.813-1.5,7.158,7.158,0,0,1-1.5-4.155,7.29,7.29,0,0,1,.224-2.25,5.345,5.345,0,0,1,1.1-2.1,4.86,4.86,0,0,1,1.944-1.38,4.738,4.738,0,0,1,2.376-.233,6.152,6.152,0,0,1,2.138.8,8.655,8.655,0,0,1,1.725,1.317Z" transform="translate(-61.559 -1.609)" fill="#1b212f"/>
    <path id="Path_12251" data-name="Path 12251" d="M123.989,71.034c.554-.641,1.147-1.239,1.73-1.851s1.205-1.181,1.832-1.74a8.551,8.551,0,0,1,1.944-1.628,5.778,5.778,0,0,1,2.566-.695.117.117,0,0,1,.117.117.176.176,0,0,1,0,.049,6.453,6.453,0,0,1-1.555,2.124,10.138,10.138,0,0,1-2.128,1.288c-.714.428-1.434.841-2.158,1.259s-1.458.831-2.2,1.234a.12.12,0,0,1-.151-.156Z" transform="translate(-54.22 -11.006)" fill="#1b212f"/>
    <path id="Path_12252" data-name="Path 12252" d="M127.184,122.235a9,9,0,0,1-.277,2.138,6.128,6.128,0,0,1-.948,2.08,4.719,4.719,0,0,1-1.842,1.516,4.86,4.86,0,0,1-2.376.423,5.346,5.346,0,0,1-2.25-.724,7.421,7.421,0,0,1-1.749-1.458,7.143,7.143,0,0,1-1.876-4,5.5,5.5,0,0,1,.219-2.342,5.618,5.618,0,0,1,1.229-2.085,5.909,5.909,0,0,1,4.427-1.944,5.783,5.783,0,0,1,2.405.578,4.957,4.957,0,0,1,1.832,1.57,6.56,6.56,0,0,1,.948,2.09,8.567,8.567,0,0,1,.258,2.158Zm-.194,0a3.776,3.776,0,0,0-.554-1.944,4.374,4.374,0,0,0-1.37-1.38,6.473,6.473,0,0,0-1.638-.744,5.006,5.006,0,0,0-1.686-.238,4.86,4.86,0,0,0-3.13,1.176,5.166,5.166,0,0,0-1.089,1.385,5.229,5.229,0,0,0-.6,1.745,4.053,4.053,0,0,0,1.259,3.557,3.849,3.849,0,0,0,1.715.884,5.385,5.385,0,0,0,1.842.092,7.649,7.649,0,0,0,3.343-1.191,4.5,4.5,0,0,0,1.366-1.39A3.708,3.708,0,0,0,126.99,122.235Z" transform="translate(-50.029 -37.078)" fill="#1b212f"/>
    <path id="Path_12253" data-name="Path 12253" d="M121.887,111.289a10.783,10.783,0,0,0,1.652-3.066,6.8,6.8,0,0,0,.253-3.377,9.136,9.136,0,0,0-1.215-3.159,13.45,13.45,0,0,0-2.172-2.639,25.755,25.755,0,0,0-5.705-3.922,50.052,50.052,0,0,0-6.439-2.731c-8.883-3.018-18.281-4.349-27.66-5.044-4.7-.364-9.423-.486-14.141-.418-2.362.058-4.723.136-7.075.316s-4.709.418-7.046.753a87.592,87.592,0,0,0-13.825,3.037,56.565,56.565,0,0,0-6.6,2.5,37.379,37.379,0,0,0-6.113,3.4c-.457.36-.943.68-1.375,1.064l-.656.559-.617.6a12.091,12.091,0,0,0-2.085,2.678,8.062,8.062,0,0,0-1.05,3.061,6.706,6.706,0,0,0,.418,3.149,11.971,11.971,0,0,0,4.145,5.122,30.77,30.77,0,0,0,5.9,3.552,65.336,65.336,0,0,0,13.271,4.4A115.169,115.169,0,0,0,57.62,123.4c4.67.535,9.379.739,14.093.821a136.79,136.79,0,0,0,14.093-.52q3.521-.328,7.022-.807c1.166-.165,2.328-.355,3.5-.559s2.328-.36,3.484-.593a51.948,51.948,0,0,0,6.8-1.813,64.141,64.141,0,0,0,6.662-2.43.1.1,0,0,1,.126.049.1.1,0,0,1-.044.126,54.744,54.744,0,0,1-6.531,2.848,46.164,46.164,0,0,1-6.8,2.187c-1.157.277-2.342.52-3.494.739s-2.323.486-3.5.7c-2.342.432-4.7.8-7.066,1.064a140.047,140.047,0,0,1-14.253.88c-2.381,0-4.767,0-7.153-.126s-4.767-.267-7.143-.486-4.743-.564-7.1-.948-4.709-.85-7.037-1.424a67.615,67.615,0,0,1-13.607-4.728,30.97,30.97,0,0,1-6.181-3.888,17.922,17.922,0,0,1-2.634-2.624,11.24,11.24,0,0,1-1.871-3.314,8.188,8.188,0,0,1-.408-3.844,9.432,9.432,0,0,1,1.356-3.567,13.441,13.441,0,0,1,2.391-2.833l.685-.612.714-.564c.486-.394.972-.7,1.458-1.059A50.454,50.454,0,0,1,38.3,90.408a109.273,109.273,0,0,1,13.927-3.032c2.342-.374,4.7-.671,7.066-.923s4.733-.447,7.1-.6a142.769,142.769,0,0,1,14.277-.117,108.365,108.365,0,0,1,14.219,1.57,79.822,79.822,0,0,1,13.859,3.674,46.277,46.277,0,0,1,6.551,3,25.342,25.342,0,0,1,5.831,4.335,13.607,13.607,0,0,1,2.2,2.916,10.03,10.03,0,0,1,1.118,3.5,7.464,7.464,0,0,1-.486,3.62,10.56,10.56,0,0,1-1.944,3.032.092.092,0,0,1-.136,0,.1.1,0,0,1,0-.1Z" transform="translate(0 -21.54)" fill="#1b212f"/>
    <path id="Path_12254" data-name="Path 12254" d="M220.934,142.974a8.654,8.654,0,0,1-1.711,1.317,6.152,6.152,0,0,1-2.138.8,4.738,4.738,0,0,1-2.376-.233,4.86,4.86,0,0,1-1.978-1.38,5.428,5.428,0,0,1-1.079-2.1,7.416,7.416,0,0,1-.224-2.25,7.192,7.192,0,0,1,1.5-4.155,5.491,5.491,0,0,1,4.155-2.109,5.914,5.914,0,0,1,4.514,1.749,5.681,5.681,0,0,1,1.293,2.109,4.9,4.9,0,0,1,.185,2.405,6.448,6.448,0,0,1-.807,2.148A8.718,8.718,0,0,1,220.934,142.974Zm-.136-.136a3.766,3.766,0,0,0,.972-1.769,4.306,4.306,0,0,0,0-1.944,6.405,6.405,0,0,0-.632-1.686,5.2,5.2,0,0,0-1.02-1.361,4.9,4.9,0,0,0-3.047-1.38,5.224,5.224,0,0,0-1.745.209,5.165,5.165,0,0,0-1.657.816,4.033,4.033,0,0,0-1.628,3.4,3.854,3.854,0,0,0,.588,1.842,5.462,5.462,0,0,0,1.234,1.366,7.668,7.668,0,0,0,3.207,1.521,4.568,4.568,0,0,0,1.944,0,3.747,3.747,0,0,0,1.788-1.016Z" transform="translate(-99.168 -45.824)" fill="#1b212f"/>
  </g>
</svg>
