<svg xmlns="http://www.w3.org/2000/svg" width="82.831" height="80.227" viewBox="0 0 82.831 80.227">
  <g id="graphic-tool" transform="translate(-3.255 -4.191)">
    <g id="Group_3126" data-name="Group 3126" transform="translate(3.255 4.191)">
      <path id="Path_12271" data-name="Path 12271" d="M75.781,15.064A6.2,6.2,0,0,0,86.053,9.747a6.143,6.143,0,0,0-12.174-.317c-.017.088-.019.175-.033.265L50.57,9.9a9.318,9.318,0,0,0-.223-2.061c-.73-3-2.772-3.725-5.538-3.645-4.319.131-5.646,1.876-5.595,5.187-.3.065-24.573-.11-24.875-.111A5.1,5.1,0,0,0,5.87,6.016a6.55,6.55,0,0,0-2.537,6.022,5.181,5.181,0,0,0,8,3.255,6.329,6.329,0,0,0,3.027-4.63l20.087.125A37.4,37.4,0,0,0,10.011,41.717c0,.017,0,.031,0,.047l-2.966.024a.7.7,0,0,0-.682.589c-.565,3.652-.1,6.55-.274,9.833a.69.69,0,0,0,.718.732c3.345-.106,5.9.11,9.257,0a.694.694,0,0,0,.673-.67c.114-3.119.411-6.672.53-9.837a.7.7,0,0,0-.7-.723l-5.155.04a36.384,36.384,0,0,1,9.115-20.018C27.411,14.152,37.395,10.806,39.24,10.82c-.014,1.831-.418,3.979,1.846,5.288a7.339,7.339,0,0,0,4.069.649c3.517-.129,5.181-1.156,5.38-4.949A32.246,32.246,0,0,1,68.6,21.9c8.47,9.408,7.629,18.466,8.257,19.86l-4.386.035a.7.7,0,0,0-.682.589c-.565,3.652-.1,6.55-.274,9.833a.689.689,0,0,0,.718.732c3.345-.106,5.9.11,9.257,0a.694.694,0,0,0,.673-.67c.116-3.122.411-6.671.531-9.837a.7.7,0,0,0-.7-.723h-.006l-3.869.031c.613-1.392-1.075-12.55-8.484-20.78a33.636,33.636,0,0,0-15.453-9.7L73.8,11.089a5.9,5.9,0,0,0,1.986,3.975ZM12.992,9.756l-.376-.376.272-.272a4.358,4.358,0,0,1,.1.647ZM7.314,14.64c-.054-.014-.1-.05-.152-.067l1.481-1.481,1.082,1.082a.349.349,0,1,0,.493-.493L9.136,12.6l1.074-1.074.944.943-.8.8a.349.349,0,0,0,.493.493l.808-.808a.344.344,0,0,0,.207.086,4.576,4.576,0,0,1-4.55,1.6Zm4.813-2.162.348-.347a4.885,4.885,0,0,1-.291.483.348.348,0,0,0-.057-.136ZM12.543,12a.33.33,0,0,0-.045-.387.349.349,0,0,0-.493,0l-.362.363L10.15,10.482a.349.349,0,0,0-.493.493l.058.058L8.642,12.105l-.493-.493a.349.349,0,1,0-.493.493l.493.493L6.524,14.223c-.017.017-.013.04-.025.06a3.717,3.717,0,0,1-1.8-2.488A5.14,5.14,0,0,1,6.734,7.107a3.652,3.652,0,0,1,5.9,1.27l-.51.511-.581-.581a.349.349,0,0,0-.493.493l.581.579-.493.494a.349.349,0,0,0,.493.493l.493-.494.675.675a.323.323,0,0,0,.171.071A4.514,4.514,0,0,1,12.543,12Zm-2.27,39.538,1.5-1.5,1.08,1.08a.349.349,0,1,0,.493-.493l-1.08-1.079,1.074-1.074.943.943-.8.8a.349.349,0,0,0,.493.493l.808-.808a.323.323,0,0,0,.459-.014.342.342,0,0,0,.014-.459l.246-.246c-.047.8-.1,1.615-.134,2.395-1.392.028-2.5.007-5.1-.032Zm5.448-6.17-.464.464-.581-.581a.349.349,0,0,0-.493.493l.581.581-.493.493a.349.349,0,1,0,.493.493l.493-.493.362.362c-.026.422-.05.922-.075,1.341a.329.329,0,0,0-.4.038l-.363.363-1.493-1.494a.349.349,0,1,0-.493.493l.058.058-1.074,1.074-.494-.494a.349.349,0,1,0-.493.493l.493.493L9.66,51.169a.326.326,0,0,0-.053.363c-.718-.007-.766-.022-2.1,0,.082-2.872-.233-5.365.146-8.357l8.189-.064c-.031.732-.081,1.5-.124,2.254Zm65.07,6.2c-2.793.056-5.011-.089-7.861-.038.082-2.872-.233-5.365.146-8.357l8.189-.064C81.146,45.8,80.912,48.832,80.793,51.57ZM75.248,9.688A4.752,4.752,0,0,1,84.67,9.9a4.765,4.765,0,0,1-6.209,5.075l1.147-1.147,1.082,1.082a.349.349,0,0,0,.493-.493L80.1,13.331l1.074-1.074.944.943-.8.8a.349.349,0,0,0,.493.493l.808-.808a.325.325,0,0,0,.459-.014.342.342,0,0,0,.014-.459l.373-.372a.349.349,0,0,0-.493-.493l-.363.362-1.494-1.494a.349.349,0,0,0-.493.493l.058.058-1.074,1.074-.493-.493a.349.349,0,0,0-.493.493l.493.493L77.753,14.7a4.495,4.495,0,0,1-2.5-5.007ZM48.9,10.361l.276-.276c0,.184,0,.366,0,.549Zm-3.8,5.006c-.455.017-.959.026-1.462,0l1.292-1.292,1.08,1.08a.349.349,0,1,0,.493-.493l-1.08-1.08L46.5,12.506l.943.943-.8.8a.349.349,0,1,0,.493.493l.808-.808a.325.325,0,0,0,.459-.014.342.342,0,0,0,.014-.459l.372-.373a.349.349,0,0,0-.493-.493l-.362.363L46.44,11.463a.349.349,0,1,0-.493.493l.058.058-1.074,1.074-.494-.494a.349.349,0,0,0-.493.493l.494.494L42.817,15.2c-.014.014-.01.035-.021.05a3.366,3.366,0,0,1-1.014-.351c-1.2-.695-1.227-1.656-1.167-3.3.117-3.378-.905-5.863,4.236-6.017,1.656-.049,3.514-.015,4.142,2.581a6.578,6.578,0,0,1,.148,1c-.015.011-.038.007-.052.021l-.677.677-.581-.581a.349.349,0,0,0-.493.493l.581.581-.493.493a.349.349,0,0,0,.493.493l.493-.493.677.677c.015.015.04.011.058.024-.135,3.127-1.092,3.7-4.046,3.811Z" transform="translate(-3.255 -4.191)" fill="#1b212f"/>
    </g>
    <g id="Group_3127" data-name="Group 3127" transform="translate(25.633 19.758)">
      <path id="Path_12272" data-name="Path 12272" d="M57.132,41.335A.7.7,0,0,0,57,40.4,55.04,55.04,0,0,1,39.815,15.836a.7.7,0,0,0-1.3-.04c-3.659,8.723-10.386,17.537-18.942,24.817a.7.7,0,0,0-.177.83A47.142,47.142,0,0,1,23.826,61.68a50.573,50.573,0,0,1-.8,8.858h0A50.523,50.523,0,0,1,20.715,79.1a.7.7,0,0,0,.654.936H51.481a.7.7,0,0,0,.652-.941,33.1,33.1,0,0,1-1.991-9.635,41.259,41.259,0,0,1,.163-6.64c1.032-9.614,3.137-16.238,6.827-21.479Zm-8.41,27.55c-1.392.145-21.952,1.64-24.207,1.239a52.235,52.235,0,0,0,.7-7.753c1.7,0,23.63.97,23.641.972A42.729,42.729,0,0,0,48.722,68.885Zm-12.669-10.4,2.111,2.111-.638.638a.339.339,0,0,0-.1.255q-1.516-.069-3.042-.155l-.59-.59Zm5.5,1.767a.349.349,0,0,0,.493,0l.883-.883,1.03,1.03-.049.049a.349.349,0,1,0,.493.493l.047-.047.9.9-6.033-.219a.34.34,0,0,0,.224-.093.348.348,0,0,0,0-.493l-.393-.393,2.5-2.5.784.784-.883.883A.348.348,0,0,0,41.552,60.25Zm5.893,1.376a.349.349,0,0,0,.493,0l.859-.859c.134.075.174.111.352-.011-.052.412-.1.816-.145,1.216-.934-.093-1.683-.11-2.633-.143L44.943,60.4l1.718-1.718L48.28,60.3l-.834.834a.347.347,0,0,0,0,.492Zm-8.4-.148a.334.334,0,0,0,.22.09c-1.03-.038-1.054-.042-1.054-.042l.441-.441Zm-5.7-.2-.084,0,.039-.039ZM40.033,43.11a2.453,2.453,0,0,1-1.363,2.011,1.859,1.859,0,0,1-2.261-2.7C37.464,40.877,40.241,40.774,40.033,43.11ZM20.881,41.328a72.143,72.143,0,0,0,17.566-22.1L37.9,39.969a4.013,4.013,0,0,0-2.647,1.667A3.251,3.251,0,0,0,39.228,46.4a3.829,3.829,0,0,0,2.192-3.162A2.789,2.789,0,0,0,39.3,40.025l.533-20.353a56.418,56.418,0,0,0,15.8,21.393,40.552,40.552,0,0,0-5.808,15.371l-1.782-1.784.519-.519a.349.349,0,0,0-.493-.493l-1.5,1.5a.349.349,0,0,0,.493.493l.492-.492,2.118,2.119c-.114.664-.21,1.31-.3,1.956l-.588.588-1.619-1.619,1.281-1.281a.349.349,0,0,0-.493-.493L46.66,57.694l-1.178-1.178a.349.349,0,1,0-.493.493l1.178,1.178-1.718,1.718-1.03-1.03,1.167-1.167a.349.349,0,0,0-.493-.493l-1.167,1.167-.784-.784.571-.571a.349.349,0,1,0-.493-.493l-.571.571-.2-.2a.349.349,0,0,0-.493.493l.2.2-2.5,2.5-2.111-2.111,1.079-1.079a.349.349,0,0,0-.493-.493L36.048,57.5a.348.348,0,1,0-.492.492L33.3,60.248,32.12,59.07a.349.349,0,1,0-.493.493l1.178,1.178-.473.48c-2.359-.135-4.759-.246-7.129-.235a48.516,48.516,0,0,0-4.322-19.658ZM34.592,75.563,36.7,77.673l-.638.638a.326.326,0,0,0-.068.326H33.151l-.816-.816Zm5.5,1.768a.349.349,0,0,0,.493,0l.884-.884,1.03,1.03-.049.049a.349.349,0,0,0,.493.493l.049-.049.668.668H37.892a.338.338,0,0,0,.191-.079.348.348,0,0,0,0-.493l-.393-.393,2.5-2.5.785.785-.884.884A.344.344,0,0,0,40.092,77.331Zm5.865,1.306H44.642l-1.16-1.16L45.2,75.759l1.619,1.619-.834.834a.335.335,0,0,0-.029.425Zm-8.37-.078a.338.338,0,0,0,.191.079H36.723l.471-.471Zm-5.421.078h-.649l.324-.324Zm18.329,0h-3.95l.791-.791a.3.3,0,0,0,.408-.035.333.333,0,0,0,.035-.408l.815-.815A.349.349,0,1,0,48.1,76.1l-.791.791L45.69,75.267l1.281-1.281a.349.349,0,1,0-.493-.493L45.2,74.774,44.02,73.6a.349.349,0,0,0-.493.493L44.7,75.267l-1.718,1.718-1.03-1.03,1.167-1.167a.349.349,0,0,0-.493-.493l-1.167,1.167-.785-.785.569-.569a.349.349,0,0,0-.493-.493l-.569.569-.195-.195a.349.349,0,0,0-.493.493l.195.195-2.5,2.5L35.078,75.07l1.079-1.079a.349.349,0,0,0-.493-.493l-1.079,1.079a.348.348,0,0,0-.492.492l-2.258,2.258-1.178-1.178a.349.349,0,1,0-.493.493l1.178,1.178-.686.686c-.036.036-.036.085-.054.129H22.35a52.032,52.032,0,0,0,1.909-7.175c2.775.5,23.161-1.054,24.553-1.195A34.919,34.919,0,0,0,50.5,78.637Z" transform="translate(-19.327 -15.371)" fill="#1b212f"/>
    </g>
    <g id="Group_3128" data-name="Group 3128" transform="translate(81.911 8.842)">
      <path id="Path_12273" data-name="Path 12273" d="M60.43,8.8l-.493.493a.349.349,0,0,0,.493.493l.493-.493.677.677a.349.349,0,0,0,.493-.493L61.416,8.8l.677-.677a.349.349,0,0,0-.493-.493l-.678.677-.581-.581a.349.349,0,0,0-.493.493Z" transform="translate(-59.746 -7.531)" fill="#1b212f"/>
    </g>
    <g id="Group_3129" data-name="Group 3129" transform="translate(78.13 44.656)">
      <path id="Path_12274" data-name="Path 12274" d="M57.712,34.524l-.493.494a.349.349,0,0,0,.493.493l.493-.494.675.675a.349.349,0,1,0,.493-.493l-.675-.675.675-.677a.349.349,0,1,0-.493-.493l-.675.677-.581-.581a.349.349,0,0,0-.493.493Z" transform="translate(-57.03 -33.253)" fill="#1b212f"/>
    </g>
    <g id="Group_3130" data-name="Group 3130" transform="translate(73.604 46.923)">
      <path id="Path_12275" data-name="Path 12275" d="M54.376,39.22,56,37.595l1.082,1.082a.349.349,0,0,0,.493-.493L56.494,37.1l1.074-1.074.943.943-.8.8a.349.349,0,0,0,.493.493l.808-.808a.325.325,0,0,0,.459-.014.342.342,0,0,0,.014-.459l.372-.373a.349.349,0,0,0-.493-.493L59,36.477l-1.494-1.494a.349.349,0,0,0-.493.493l.058.058L56,36.608l-.494-.489a.349.349,0,0,0-.493.493l.493.493L53.882,38.73a.348.348,0,0,0,0,.493.352.352,0,0,0,.494,0Z" transform="translate(-53.78 -34.88)" fill="#1b212f"/>
    </g>
    <g id="Group_3131" data-name="Group 3131" transform="translate(51.304 75.004)">
      <path id="Path_12276" data-name="Path 12276" d="M39.342,56.163l.519-.519a.349.349,0,0,0-.493-.493l-1.5,1.5a.349.349,0,0,0,.493.493l.49-.49L41.2,59a.349.349,0,0,0,.493-.493Z" transform="translate(-37.764 -55.049)" fill="#1b212f"/>
    </g>
  </g>
</svg>
