<svg xmlns="http://www.w3.org/2000/svg" width="93.248" height="80.226" viewBox="0 0 93.248 80.226">
  <g id="web-development" transform="translate(-1.008 -5.476)">
    <g id="Group_3118" data-name="Group 3118" transform="translate(1.008 5.476)">
      <path id="Path_12261" data-name="Path 12261" d="M79.02,5.734,21.844,5.479C4.82,5.332.59,10.17,1.04,22.2c.624,16.479.595,33.027,1.281,49.662C2.784,83.124,7.33,85.7,18.772,85.7l55.206-.092c13.265-.028,18.654-2.73,18.988-15.511l1.275-48.961c.328-12.627-4.669-15.356-15.221-15.4ZM73.975,84.153l-55.206.092C6.655,84.245,4.154,80.977,3.778,71.8,3.123,56.015,3.133,40.6,2.566,24.18l90.126.488L91.51,70.063C91.21,81.533,87.087,84.128,73.975,84.153ZM92.784,21.1l-.055,2.109-90.212-.49C2.108,11.638,4.723,6.8,21.838,6.936l57.176.255C88.645,7.238,93.1,9.155,92.784,21.1Z" transform="translate(-1.008 -5.476)" fill="#1b212f"/>
    </g>
    <g id="Group_3119" data-name="Group 3119" transform="translate(10.334 10.992)">
      <path id="Path_12262" data-name="Path 12262" d="M7.738,11.938c-.758.558-.064,2.475.6,3.241C10.776,18,14.8,15.7,14.6,12.641,14.345,8.537,8.376,8.013,7.738,11.938ZM8.95,13.321a.729.729,0,0,0,.226-.662c-.418-2.4,3.8-2.765,3.974.073.141,2.3-3.457,3.377-4.2.589Z" transform="translate(-7.407 -9.261)" fill="#1b212f"/>
    </g>
    <g id="Group_3120" data-name="Group 3120" transform="translate(21.482 10.992)">
      <path id="Path_12263" data-name="Path 12263" d="M15.456,11.938c-1.227.9.514,4.524,3.265,4.524a3.722,3.722,0,0,0,3.6-3.821c-.259-4.1-6.227-4.627-6.867-.7Zm1.213,1.383a.729.729,0,0,0,.226-.662c-.418-2.4,3.8-2.765,3.974.073a2.129,2.129,0,0,1-4.2.589Z" transform="translate(-15.057 -9.261)" fill="#1b212f"/>
    </g>
    <g id="Group_3121" data-name="Group 3121" transform="translate(33.522 10.974)">
      <path id="Path_12264" data-name="Path 12264" d="M28.29,9.513a3.318,3.318,0,0,0-4.607,2.432c-1.1.818.377,4.438,3.18,4.521h.087a3.72,3.72,0,0,0,3.6-3.821A3.712,3.712,0,0,0,28.29,9.513Zm-1.386,5.5A2.284,2.284,0,0,1,24.9,13.326a.725.725,0,0,0,.226-.66,1.818,1.818,0,0,1,2.617-1.8A2.251,2.251,0,0,1,29.1,12.738,2.252,2.252,0,0,1,26.9,15.009Z" transform="translate(-23.318 -9.248)" fill="#1b212f"/>
    </g>
    <g id="Group_3122" data-name="Group 3122" transform="translate(45.092 10.251)">
      <path id="Path_12265" data-name="Path 12265" d="M62.785,9.15c-2.065-.851-24.152-.077-25.609-.029-1.915.052-4.811.134-5.668,2.431-1.23,3.307,2.284,5.094,5.783,5.187a162.816,162.816,0,0,0,22.919-1.02C66.466,14.992,65.857,10.419,62.785,9.15ZM50.72,10.285l0,0,0,0s0,0,.006,0Zm-4.908,1.4c-.006.006,0,.015-.009.02-.016-.028-.012-.063-.036-.087l-1.248-1.248c.86-.016,1.705-.028,2.564-.039l.041.041Zm-4.3-.442-.765-.765q.787-.024,1.575-.044Zm-7.31-.293a5.193,5.193,0,0,1,.778-.2l-.487.487Zm25.839,3.318a160.659,160.659,0,0,1-22.713,1.011,8.8,8.8,0,0,1-3.012-.631.336.336,0,0,0-.032-.321l.563-.563a.365.365,0,1,0-.516-.516l-.545.545-1.054-1.054a1.74,1.74,0,0,1,.774-1.459l.477.477a.361.361,0,0,0,.006.5.352.352,0,0,0,.5.006l.825.825a.365.365,0,0,0,.516-.516l-.821-.821.962-.962,1.564,1.564a.351.351,0,0,0,.025.456.326.326,0,0,0,.456.025l.022.022a.365.365,0,1,0,.516-.516l0,0,1.185-1.185a.365.365,0,0,0-.516-.516l-1.185,1.185L36.8,10.585c.141,0,.284-.01.42-.013,1.819-.054,2.548-.071,2.548-.071s0,.025.015.034L41,11.758a.359.359,0,0,0,.007.5.365.365,0,0,0,.516,0l.015-.015a.309.309,0,0,0,.427-.036A.349.349,0,0,0,42,11.779l1.315-1.315c.017-.017.013-.045.028-.066.058,0,.117,0,.176,0l1.734,1.734a.365.365,0,0,0,.516,0c.006-.006,0-.015.009-.02.016.028.012.063.036.087a.365.365,0,0,0,.516,0l1.312-1.313L48.657,11.9a.365.365,0,1,0,.516-.516l-1.067-1.068,1.6-.02.5.5-.635.635a.365.365,0,0,0,.516.516l.635-.635.748.748a.365.365,0,1,0,.516-.516l-.748-.748.532-.532.669-.009.2.2-.235.235a.365.365,0,1,0,.516.516l.235-.235.316.316a.365.365,0,0,0,.516-.516l-.316-.316.219-.22c5.7-.063,7.109-.259,8.345.251,1.813.764,2.364,3.26-2.195,3.782Z" transform="translate(-31.257 -8.752)" fill="#1b212f"/>
    </g>
    <g id="Group_3123" data-name="Group 3123" transform="translate(58.713 37.814)">
      <path id="Path_12266" data-name="Path 12266" d="M50.241,31.625c-1.457-1.016-5.6-6.055-8.281-2.975-1.223,1.406-1.042,3.839.421,5.659,2.185,2.721,6.426,3.932,7.178,7.115.966,4.113-4.43,7.087-6.84,9.45a6.952,6.952,0,0,0-1.976,3.052c-.59,2.22.73,4.438,3.052,4.438,2.19,0,3.8-1.408,10.825-6.217,2.687-1.841,5.161-3.735,5.918-6.678,1.844-7.175-7.551-11.924-10.3-13.844Zm.711,12.025.63.63a.34.34,0,0,0-.386.054l-.739.739a7.154,7.154,0,0,0,.5-1.422ZM45.361,50.5c.015.023.01.052.031.073l-.771.771-.118-.118c.283-.248.565-.49.858-.726Zm-2.167,1.989c.163-.188.341-.38.544-.579.07-.068.15-.131.222-.2l.146.146-.771.771Zm-.45.58.92.92-1.1,1.1-.458-.458a2.608,2.608,0,0,1,.045-.335,3.981,3.981,0,0,1,.593-1.227Zm16.38-7.969c-.631,2.454-2.881,4.161-5.328,5.837-6.509,4.454-9.837,7.367-11.343,5.292l.109-.109.118.118a.365.365,0,0,0,.516-.516l-.118-.118,1.1-1.1.071.071a.365.365,0,0,0,.516-.516l-.071-.071.294-.294a.365.365,0,0,0-.516-.516l-.294.294-.329-.329.771-.771.972.972a.365.365,0,1,0,.516-.516l-.972-.972.771-.771.663.663a.365.365,0,1,0,.516-.516l-1.178-1.178L45.979,50c.616-.493,1.236-1.013,1.838-1.558l.66.66-.883.886a.365.365,0,1,0,.516.516l.9-.9a.33.33,0,0,0,.462-.022.352.352,0,0,0,.022-.462l.6-.6A.365.365,0,0,0,49.579,48l-.587.587-.644-.644a5.135,5.135,0,0,0,.787-.838c.039.013.071.047.114.047a.363.363,0,0,0,.258-.106l.587-.587.379.379a.365.365,0,0,0,.516-.516l-.379-.379,1.1-1.1a.35.35,0,0,0,.028-.447.326.326,0,0,0,.455-.025.364.364,0,0,0,0-.516l-1.1-1.1a5.409,5.409,0,0,0-.118-1.669c-.915-3.888-5.413-5.147-7.459-7.695-1.113-1.385-1.1-3.044-.458-3.789,1.554-1.785,4.812,2.141,6.347,3.214C52.4,34.907,60.67,39.1,59.124,45.105Z" transform="translate(-40.603 -27.665)" fill="#1b212f"/>
    </g>
    <g id="Group_3124" data-name="Group 3124" transform="translate(16.06 37.869)">
      <path id="Path_12267" data-name="Path 12267" d="M24.484,46.616C22.9,44.947,22.174,43,22.549,41.407c.753-3.189,4.971-4.366,7.178-7.115,1.463-1.82,1.644-4.253.421-5.659-1.017-1.172-2.685-1.242-4.464-.181-1.487.889-2.462,2.211-3.815,3.155C19.438,33.305,9.7,38.18,11.573,45.45c.987,3.839,4.347,5.605,12.654,11.287,1.893,1.3,4.285,2.351,6.073.928a3.629,3.629,0,0,0,1.067-3.757c-.813-3.04-4.589-4.881-6.883-7.293ZM21.367,34.407l-.44-.44q.651-.415,1.291-.847l.217.217Zm-3.227,1.4.243.243-1.221,1.221-.41-.41c.254-.214.509-.428.767-.621.2-.15.414-.289.621-.434Zm-3.708,3.544,1.026,1.025-1.4,1.4-.647-.647a9.72,9.72,0,0,1,1.026-1.782Zm-1.415,5.835.309.309-.149.149c-.057-.152-.117-.3-.16-.458ZM29.39,56.526c-1.1.88-2.969-.05-4.342-.991-7.679-5.252-10.225-6.691-11.551-9.182l.344-.344.595.595a.365.365,0,0,0,.516-.516l-.595-.595,2.19-2.192a.365.365,0,0,0-.516-.516l-2.19,2.192L12.834,43.97a6.1,6.1,0,0,1,.3-2.078l.4.4-.047.047a.365.365,0,0,0,.516.516l.047-.047.6.6a.365.365,0,0,0,.516-.516l-.6-.6,1.473-1.473c.009,0,.016.01.025.01a.363.363,0,0,0,.258-.106.353.353,0,0,0,.1-.281l1.03-1.03a.365.365,0,0,0-.516-.516l-.962.962-1.1-1.1a14.073,14.073,0,0,1,1.329-1.418l.439.439-.169.169a.365.365,0,0,0,.516.516l.169-.169.08.08a.365.365,0,0,0,.516-.516l-.08-.08L18.9,36.563l.586.586A.365.365,0,0,0,20,36.633L18.75,35.381c.517-.345,1.039-.682,1.555-1.01l.548.548-.353.353a.365.365,0,0,0,.516.516l1.96-1.962a.351.351,0,0,0,.431-.551l-.064-.064a.342.342,0,0,0-.079-.189.353.353,0,0,0-.189-.079L22.83,32.7c.341-.248.667-.519.985-.8a.355.355,0,0,0,.1.233.365.365,0,0,0,.516,0l.169-.169.293.293a.365.365,0,0,0,.516-.516l-.293-.293L26,30.558l.809.809a.365.365,0,1,0,.516-.516l-.876-.876a.345.345,0,0,0-.073-.233c.019-.012.038-.031.057-.042a3.283,3.283,0,0,1,1.618-.541,1.273,1.273,0,0,1,1,.426c.646.745.654,2.4-.458,3.789-2.023,2.52-6.548,3.827-7.459,7.695-.5,2.1.342,4.49,2.3,6.547,2.3,2.421,5.879,4.234,6.528,6.663A2.2,2.2,0,0,1,29.39,56.526Z" transform="translate(-11.336 -27.703)" fill="#1b212f"/>
    </g>
    <g id="Group_3125" data-name="Group 3125" transform="translate(37.703 30.875)">
      <path id="Path_12268" data-name="Path 12268" d="M43.616,22.962c-1.659-.35-3.154.877-4.226,3.431-1.224,2.91-2.571,5.832-3.872,8.657-1.4,3.04-2.851,6.182-4.158,9.335a86.011,86.011,0,0,0-3.371,9.464c-.089.308-.232.729-.4,1.223-1.141,3.365-2.061,6.5-.788,7.918,2.027,2.253,5.015.217,6.759-2.223,2-2.789,2.074-3.678,11.76-31.619a7.878,7.878,0,0,0,.616-3.281,3.183,3.183,0,0,0-2.322-2.9Zm-.6,1.424-1.329,1.331-.191-.191A2.219,2.219,0,0,1,43.015,24.386Zm-1.909,1.781.064.064-.192.194C41.02,26.339,41.058,26.256,41.106,26.167ZM39.6,29.551l.873.873L38.191,32.7c.478-1.045.94-2.093,1.406-3.152Zm-3.339,7.38.66.66L35.15,39.361Q35.7,38.137,36.259,36.931Zm-3.227,7.259.157.157-.4.4C32.869,44.561,32.955,44.376,33.032,44.191ZM29.067,55.252l.453.453-.9.9c.13-.4.255-.777.354-1.068.035-.1.063-.191.1-.289ZM43.944,28.671C34.363,56.306,34.262,57.29,32.377,59.919c-1.043,1.457-3.192,3.451-4.445,2.134l.245-.245a.35.35,0,0,0,.5-.007.358.358,0,0,0,.007-.5l1.3-1.3a.365.365,0,0,0-.516-.516l-1.291,1.291-.478-.477a15.946,15.946,0,0,1,.488-2.274c.023-.015.052-.01.071-.031l.208-.208.681.681a.365.365,0,0,0,.516-.516l-.681-.681,1.115-1.115c.022,0,.038.025.06.025a.365.365,0,0,0,.258-.106.342.342,0,0,0,.082-.316l1.444-1.444a.365.365,0,0,0-.516-.516l-1.386,1.386-.716-.716c.022-.073.052-.16.07-.224.15-.528.319-1.065.487-1.6,0,0,.006,0,.009,0l.675-.675.385.385a.365.365,0,1,0,.516-.516l-.385-.385,1.809-1.809a.365.365,0,0,0-.516-.516l-1.809,1.809-.092-.092c.331-.971.688-1.967,1.087-3.009l.85.85a.365.365,0,0,0,.516-.516L31.84,47.094c.079-.2.166-.412.248-.616L33.7,44.861l.392.392a.365.365,0,1,0,.516-.516l-.392-.392,1.026-1.026a.365.365,0,0,0-.516-.516L33.7,43.829l-.36-.36c.4-.927.791-1.854,1.2-2.775l.94.939A.365.365,0,0,0,36,41.117l-.793-.791,2.246-2.246a.316.316,0,0,0,.439-.032.351.351,0,0,0,.032-.439l1.6-1.6a.365.365,0,1,0-.516-.516l-1.58,1.58-.851-.851c.086-.185.172-.377.256-.561.262-.568.528-1.154.791-1.731a.362.362,0,0,0,.152.063.383.383,0,0,0,.141-.058l.917.915a.365.365,0,1,0,.516-.516l-.882-.882,3.3-3.3a.365.365,0,1,0-.516-.516l-.268.268L39.911,28.83c.214-.491.434-.979.644-1.472a.364.364,0,0,0,.514,0l.616-.616.465.465a.365.365,0,0,0,.516-.516l-.466-.466,1.5-1.5a.335.335,0,0,0,.058-.141,2.048,2.048,0,0,1,.73,1.406,6.64,6.64,0,0,1-.542,2.679Z" transform="translate(-26.187 -22.904)" fill="#1b212f"/>
    </g>
  </g>
</svg>
